%TF.GenerationSoftware,KiCad,Pcbnew,7.0.2*%
%TF.CreationDate,2023-10-24T21:55:58-04:00*%
%TF.ProjectId,MacroPad Tile Holder Sensors,4d616372-6f50-4616-9420-54696c652048,rev?*%
%TF.SameCoordinates,Original*%
%TF.FileFunction,Drillmap*%
%TF.FilePolarity,Positive*%
%FSLAX45Y45*%
G04 Gerber Fmt 4.5, Leading zero omitted, Abs format (unit mm)*
G04 Created by KiCad (PCBNEW 7.0.2) date 2023-10-24 21:55:58*
%MOMM*%
%LPD*%
G01*
G04 APERTURE LIST*
%ADD10C,0.100000*%
%ADD11C,0.200000*%
G04 APERTURE END LIST*
D10*
X11088000Y-6269000D02*
X14787000Y-6269000D01*
X14787000Y-8053000D01*
X11088000Y-8053000D01*
X11088000Y-6269000D01*
D11*
X11330619Y-8370524D02*
X11330619Y-8170524D01*
X11330619Y-8170524D02*
X11378238Y-8170524D01*
X11378238Y-8170524D02*
X11406809Y-8180048D01*
X11406809Y-8180048D02*
X11425857Y-8199095D01*
X11425857Y-8199095D02*
X11435381Y-8218143D01*
X11435381Y-8218143D02*
X11444905Y-8256238D01*
X11444905Y-8256238D02*
X11444905Y-8284809D01*
X11444905Y-8284809D02*
X11435381Y-8322905D01*
X11435381Y-8322905D02*
X11425857Y-8341952D01*
X11425857Y-8341952D02*
X11406809Y-8361000D01*
X11406809Y-8361000D02*
X11378238Y-8370524D01*
X11378238Y-8370524D02*
X11330619Y-8370524D01*
X11530619Y-8370524D02*
X11530619Y-8237190D01*
X11530619Y-8275286D02*
X11540143Y-8256238D01*
X11540143Y-8256238D02*
X11549667Y-8246714D01*
X11549667Y-8246714D02*
X11568714Y-8237190D01*
X11568714Y-8237190D02*
X11587762Y-8237190D01*
X11654428Y-8370524D02*
X11654428Y-8237190D01*
X11654428Y-8170524D02*
X11644905Y-8180048D01*
X11644905Y-8180048D02*
X11654428Y-8189571D01*
X11654428Y-8189571D02*
X11663952Y-8180048D01*
X11663952Y-8180048D02*
X11654428Y-8170524D01*
X11654428Y-8170524D02*
X11654428Y-8189571D01*
X11778238Y-8370524D02*
X11759190Y-8361000D01*
X11759190Y-8361000D02*
X11749667Y-8341952D01*
X11749667Y-8341952D02*
X11749667Y-8170524D01*
X11883000Y-8370524D02*
X11863952Y-8361000D01*
X11863952Y-8361000D02*
X11854428Y-8341952D01*
X11854428Y-8341952D02*
X11854428Y-8170524D01*
X12111571Y-8370524D02*
X12111571Y-8170524D01*
X12111571Y-8170524D02*
X12178238Y-8313381D01*
X12178238Y-8313381D02*
X12244905Y-8170524D01*
X12244905Y-8170524D02*
X12244905Y-8370524D01*
X12425857Y-8370524D02*
X12425857Y-8265762D01*
X12425857Y-8265762D02*
X12416333Y-8246714D01*
X12416333Y-8246714D02*
X12397286Y-8237190D01*
X12397286Y-8237190D02*
X12359190Y-8237190D01*
X12359190Y-8237190D02*
X12340143Y-8246714D01*
X12425857Y-8361000D02*
X12406809Y-8370524D01*
X12406809Y-8370524D02*
X12359190Y-8370524D01*
X12359190Y-8370524D02*
X12340143Y-8361000D01*
X12340143Y-8361000D02*
X12330619Y-8341952D01*
X12330619Y-8341952D02*
X12330619Y-8322905D01*
X12330619Y-8322905D02*
X12340143Y-8303857D01*
X12340143Y-8303857D02*
X12359190Y-8294333D01*
X12359190Y-8294333D02*
X12406809Y-8294333D01*
X12406809Y-8294333D02*
X12425857Y-8284809D01*
X12521095Y-8237190D02*
X12521095Y-8437190D01*
X12521095Y-8246714D02*
X12540143Y-8237190D01*
X12540143Y-8237190D02*
X12578238Y-8237190D01*
X12578238Y-8237190D02*
X12597286Y-8246714D01*
X12597286Y-8246714D02*
X12606809Y-8256238D01*
X12606809Y-8256238D02*
X12616333Y-8275286D01*
X12616333Y-8275286D02*
X12616333Y-8332428D01*
X12616333Y-8332428D02*
X12606809Y-8351476D01*
X12606809Y-8351476D02*
X12597286Y-8361000D01*
X12597286Y-8361000D02*
X12578238Y-8370524D01*
X12578238Y-8370524D02*
X12540143Y-8370524D01*
X12540143Y-8370524D02*
X12521095Y-8361000D01*
X12702048Y-8351476D02*
X12711571Y-8361000D01*
X12711571Y-8361000D02*
X12702048Y-8370524D01*
X12702048Y-8370524D02*
X12692524Y-8361000D01*
X12692524Y-8361000D02*
X12702048Y-8351476D01*
X12702048Y-8351476D02*
X12702048Y-8370524D01*
X12702048Y-8246714D02*
X12711571Y-8256238D01*
X12711571Y-8256238D02*
X12702048Y-8265762D01*
X12702048Y-8265762D02*
X12692524Y-8256238D01*
X12692524Y-8256238D02*
X12702048Y-8246714D01*
X12702048Y-8246714D02*
X12702048Y-8265762D01*
M02*
