%TF.GenerationSoftware,KiCad,Pcbnew,7.0.2*%
%TF.CreationDate,2023-10-24T21:55:58-04:00*%
%TF.ProjectId,MacroPad Tile Holder Sensors,4d616372-6f50-4616-9420-54696c652048,rev?*%
%TF.SameCoordinates,Original*%
%TF.FileFunction,Drillmap*%
%TF.FilePolarity,Positive*%
%FSLAX45Y45*%
G04 Gerber Fmt 4.5, Leading zero omitted, Abs format (unit mm)*
G04 Created by KiCad (PCBNEW 7.0.2) date 2023-10-24 21:55:58*
%MOMM*%
%LPD*%
G01*
G04 APERTURE LIST*
%ADD10C,0.100000*%
%ADD11C,0.200000*%
%ADD12C,0.040000*%
G04 APERTURE END LIST*
D10*
X11088000Y-6269000D02*
X14787000Y-6269000D01*
X14787000Y-8053000D01*
X11088000Y-8053000D01*
X11088000Y-6269000D01*
D11*
D12*
X12124000Y-7532000D02*
X12164000Y-7572000D01*
X12164000Y-7532000D02*
X12124000Y-7572000D01*
X13973000Y-7532000D02*
X14013000Y-7572000D01*
X14013000Y-7532000D02*
X13973000Y-7572000D01*
D10*
X11377000Y-6790000D02*
G75*
G03*
X11377000Y-6790000I-50000J0D01*
G01*
X11377000Y-7044000D02*
G75*
G03*
X11377000Y-7044000I-50000J0D01*
G01*
X11377000Y-7298000D02*
G75*
G03*
X11377000Y-7298000I-50000J0D01*
G01*
X11377000Y-7552000D02*
G75*
G03*
X11377000Y-7552000I-50000J0D01*
G01*
D11*
X11330619Y-8370524D02*
X11330619Y-8170524D01*
X11330619Y-8170524D02*
X11378238Y-8170524D01*
X11378238Y-8170524D02*
X11406809Y-8180048D01*
X11406809Y-8180048D02*
X11425857Y-8199095D01*
X11425857Y-8199095D02*
X11435381Y-8218143D01*
X11435381Y-8218143D02*
X11444905Y-8256238D01*
X11444905Y-8256238D02*
X11444905Y-8284809D01*
X11444905Y-8284809D02*
X11435381Y-8322905D01*
X11435381Y-8322905D02*
X11425857Y-8341952D01*
X11425857Y-8341952D02*
X11406809Y-8361000D01*
X11406809Y-8361000D02*
X11378238Y-8370524D01*
X11378238Y-8370524D02*
X11330619Y-8370524D01*
X11530619Y-8370524D02*
X11530619Y-8237190D01*
X11530619Y-8275286D02*
X11540143Y-8256238D01*
X11540143Y-8256238D02*
X11549667Y-8246714D01*
X11549667Y-8246714D02*
X11568714Y-8237190D01*
X11568714Y-8237190D02*
X11587762Y-8237190D01*
X11654428Y-8370524D02*
X11654428Y-8237190D01*
X11654428Y-8170524D02*
X11644905Y-8180048D01*
X11644905Y-8180048D02*
X11654428Y-8189571D01*
X11654428Y-8189571D02*
X11663952Y-8180048D01*
X11663952Y-8180048D02*
X11654428Y-8170524D01*
X11654428Y-8170524D02*
X11654428Y-8189571D01*
X11778238Y-8370524D02*
X11759190Y-8361000D01*
X11759190Y-8361000D02*
X11749667Y-8341952D01*
X11749667Y-8341952D02*
X11749667Y-8170524D01*
X11883000Y-8370524D02*
X11863952Y-8361000D01*
X11863952Y-8361000D02*
X11854428Y-8341952D01*
X11854428Y-8341952D02*
X11854428Y-8170524D01*
X12111571Y-8370524D02*
X12111571Y-8170524D01*
X12111571Y-8170524D02*
X12178238Y-8313381D01*
X12178238Y-8313381D02*
X12244905Y-8170524D01*
X12244905Y-8170524D02*
X12244905Y-8370524D01*
X12425857Y-8370524D02*
X12425857Y-8265762D01*
X12425857Y-8265762D02*
X12416333Y-8246714D01*
X12416333Y-8246714D02*
X12397286Y-8237190D01*
X12397286Y-8237190D02*
X12359190Y-8237190D01*
X12359190Y-8237190D02*
X12340143Y-8246714D01*
X12425857Y-8361000D02*
X12406809Y-8370524D01*
X12406809Y-8370524D02*
X12359190Y-8370524D01*
X12359190Y-8370524D02*
X12340143Y-8361000D01*
X12340143Y-8361000D02*
X12330619Y-8341952D01*
X12330619Y-8341952D02*
X12330619Y-8322905D01*
X12330619Y-8322905D02*
X12340143Y-8303857D01*
X12340143Y-8303857D02*
X12359190Y-8294333D01*
X12359190Y-8294333D02*
X12406809Y-8294333D01*
X12406809Y-8294333D02*
X12425857Y-8284809D01*
X12521095Y-8237190D02*
X12521095Y-8437190D01*
X12521095Y-8246714D02*
X12540143Y-8237190D01*
X12540143Y-8237190D02*
X12578238Y-8237190D01*
X12578238Y-8237190D02*
X12597286Y-8246714D01*
X12597286Y-8246714D02*
X12606809Y-8256238D01*
X12606809Y-8256238D02*
X12616333Y-8275286D01*
X12616333Y-8275286D02*
X12616333Y-8332428D01*
X12616333Y-8332428D02*
X12606809Y-8351476D01*
X12606809Y-8351476D02*
X12597286Y-8361000D01*
X12597286Y-8361000D02*
X12578238Y-8370524D01*
X12578238Y-8370524D02*
X12540143Y-8370524D01*
X12540143Y-8370524D02*
X12521095Y-8361000D01*
X12702048Y-8351476D02*
X12711571Y-8361000D01*
X12711571Y-8361000D02*
X12702048Y-8370524D01*
X12702048Y-8370524D02*
X12692524Y-8361000D01*
X12692524Y-8361000D02*
X12702048Y-8351476D01*
X12702048Y-8351476D02*
X12702048Y-8370524D01*
X12702048Y-8246714D02*
X12711571Y-8256238D01*
X12711571Y-8256238D02*
X12702048Y-8265762D01*
X12702048Y-8265762D02*
X12692524Y-8256238D01*
X12692524Y-8256238D02*
X12702048Y-8246714D01*
X12702048Y-8246714D02*
X12702048Y-8265762D01*
D12*
X11043000Y-8678000D02*
X11083000Y-8718000D01*
X11083000Y-8678000D02*
X11043000Y-8718000D01*
D11*
X11368714Y-8590524D02*
X11387762Y-8590524D01*
X11387762Y-8590524D02*
X11406809Y-8600048D01*
X11406809Y-8600048D02*
X11416333Y-8609571D01*
X11416333Y-8609571D02*
X11425857Y-8628619D01*
X11425857Y-8628619D02*
X11435381Y-8666714D01*
X11435381Y-8666714D02*
X11435381Y-8714333D01*
X11435381Y-8714333D02*
X11425857Y-8752429D01*
X11425857Y-8752429D02*
X11416333Y-8771476D01*
X11416333Y-8771476D02*
X11406809Y-8781000D01*
X11406809Y-8781000D02*
X11387762Y-8790524D01*
X11387762Y-8790524D02*
X11368714Y-8790524D01*
X11368714Y-8790524D02*
X11349667Y-8781000D01*
X11349667Y-8781000D02*
X11340143Y-8771476D01*
X11340143Y-8771476D02*
X11330619Y-8752429D01*
X11330619Y-8752429D02*
X11321095Y-8714333D01*
X11321095Y-8714333D02*
X11321095Y-8666714D01*
X11321095Y-8666714D02*
X11330619Y-8628619D01*
X11330619Y-8628619D02*
X11340143Y-8609571D01*
X11340143Y-8609571D02*
X11349667Y-8600048D01*
X11349667Y-8600048D02*
X11368714Y-8590524D01*
X11521095Y-8771476D02*
X11530619Y-8781000D01*
X11530619Y-8781000D02*
X11521095Y-8790524D01*
X11521095Y-8790524D02*
X11511571Y-8781000D01*
X11511571Y-8781000D02*
X11521095Y-8771476D01*
X11521095Y-8771476D02*
X11521095Y-8790524D01*
X11702048Y-8657190D02*
X11702048Y-8790524D01*
X11654428Y-8581000D02*
X11606809Y-8723857D01*
X11606809Y-8723857D02*
X11730619Y-8723857D01*
X11844905Y-8590524D02*
X11863952Y-8590524D01*
X11863952Y-8590524D02*
X11883000Y-8600048D01*
X11883000Y-8600048D02*
X11892524Y-8609571D01*
X11892524Y-8609571D02*
X11902048Y-8628619D01*
X11902048Y-8628619D02*
X11911571Y-8666714D01*
X11911571Y-8666714D02*
X11911571Y-8714333D01*
X11911571Y-8714333D02*
X11902048Y-8752429D01*
X11902048Y-8752429D02*
X11892524Y-8771476D01*
X11892524Y-8771476D02*
X11883000Y-8781000D01*
X11883000Y-8781000D02*
X11863952Y-8790524D01*
X11863952Y-8790524D02*
X11844905Y-8790524D01*
X11844905Y-8790524D02*
X11825857Y-8781000D01*
X11825857Y-8781000D02*
X11816333Y-8771476D01*
X11816333Y-8771476D02*
X11806809Y-8752429D01*
X11806809Y-8752429D02*
X11797286Y-8714333D01*
X11797286Y-8714333D02*
X11797286Y-8666714D01*
X11797286Y-8666714D02*
X11806809Y-8628619D01*
X11806809Y-8628619D02*
X11816333Y-8609571D01*
X11816333Y-8609571D02*
X11825857Y-8600048D01*
X11825857Y-8600048D02*
X11844905Y-8590524D01*
X12035381Y-8590524D02*
X12054429Y-8590524D01*
X12054429Y-8590524D02*
X12073476Y-8600048D01*
X12073476Y-8600048D02*
X12083000Y-8609571D01*
X12083000Y-8609571D02*
X12092524Y-8628619D01*
X12092524Y-8628619D02*
X12102048Y-8666714D01*
X12102048Y-8666714D02*
X12102048Y-8714333D01*
X12102048Y-8714333D02*
X12092524Y-8752429D01*
X12092524Y-8752429D02*
X12083000Y-8771476D01*
X12083000Y-8771476D02*
X12073476Y-8781000D01*
X12073476Y-8781000D02*
X12054429Y-8790524D01*
X12054429Y-8790524D02*
X12035381Y-8790524D01*
X12035381Y-8790524D02*
X12016333Y-8781000D01*
X12016333Y-8781000D02*
X12006809Y-8771476D01*
X12006809Y-8771476D02*
X11997286Y-8752429D01*
X11997286Y-8752429D02*
X11987762Y-8714333D01*
X11987762Y-8714333D02*
X11987762Y-8666714D01*
X11987762Y-8666714D02*
X11997286Y-8628619D01*
X11997286Y-8628619D02*
X12006809Y-8609571D01*
X12006809Y-8609571D02*
X12016333Y-8600048D01*
X12016333Y-8600048D02*
X12035381Y-8590524D01*
X12187762Y-8790524D02*
X12187762Y-8657190D01*
X12187762Y-8676238D02*
X12197286Y-8666714D01*
X12197286Y-8666714D02*
X12216333Y-8657190D01*
X12216333Y-8657190D02*
X12244905Y-8657190D01*
X12244905Y-8657190D02*
X12263952Y-8666714D01*
X12263952Y-8666714D02*
X12273476Y-8685762D01*
X12273476Y-8685762D02*
X12273476Y-8790524D01*
X12273476Y-8685762D02*
X12283000Y-8666714D01*
X12283000Y-8666714D02*
X12302048Y-8657190D01*
X12302048Y-8657190D02*
X12330619Y-8657190D01*
X12330619Y-8657190D02*
X12349667Y-8666714D01*
X12349667Y-8666714D02*
X12359190Y-8685762D01*
X12359190Y-8685762D02*
X12359190Y-8790524D01*
X12454429Y-8790524D02*
X12454429Y-8657190D01*
X12454429Y-8676238D02*
X12463952Y-8666714D01*
X12463952Y-8666714D02*
X12483000Y-8657190D01*
X12483000Y-8657190D02*
X12511571Y-8657190D01*
X12511571Y-8657190D02*
X12530619Y-8666714D01*
X12530619Y-8666714D02*
X12540143Y-8685762D01*
X12540143Y-8685762D02*
X12540143Y-8790524D01*
X12540143Y-8685762D02*
X12549667Y-8666714D01*
X12549667Y-8666714D02*
X12568714Y-8657190D01*
X12568714Y-8657190D02*
X12597286Y-8657190D01*
X12597286Y-8657190D02*
X12616333Y-8666714D01*
X12616333Y-8666714D02*
X12625857Y-8685762D01*
X12625857Y-8685762D02*
X12625857Y-8790524D01*
X13016333Y-8581000D02*
X12844905Y-8838143D01*
X13273476Y-8590524D02*
X13292524Y-8590524D01*
X13292524Y-8590524D02*
X13311572Y-8600048D01*
X13311572Y-8600048D02*
X13321095Y-8609571D01*
X13321095Y-8609571D02*
X13330619Y-8628619D01*
X13330619Y-8628619D02*
X13340143Y-8666714D01*
X13340143Y-8666714D02*
X13340143Y-8714333D01*
X13340143Y-8714333D02*
X13330619Y-8752429D01*
X13330619Y-8752429D02*
X13321095Y-8771476D01*
X13321095Y-8771476D02*
X13311572Y-8781000D01*
X13311572Y-8781000D02*
X13292524Y-8790524D01*
X13292524Y-8790524D02*
X13273476Y-8790524D01*
X13273476Y-8790524D02*
X13254429Y-8781000D01*
X13254429Y-8781000D02*
X13244905Y-8771476D01*
X13244905Y-8771476D02*
X13235381Y-8752429D01*
X13235381Y-8752429D02*
X13225857Y-8714333D01*
X13225857Y-8714333D02*
X13225857Y-8666714D01*
X13225857Y-8666714D02*
X13235381Y-8628619D01*
X13235381Y-8628619D02*
X13244905Y-8609571D01*
X13244905Y-8609571D02*
X13254429Y-8600048D01*
X13254429Y-8600048D02*
X13273476Y-8590524D01*
X13425857Y-8771476D02*
X13435381Y-8781000D01*
X13435381Y-8781000D02*
X13425857Y-8790524D01*
X13425857Y-8790524D02*
X13416333Y-8781000D01*
X13416333Y-8781000D02*
X13425857Y-8771476D01*
X13425857Y-8771476D02*
X13425857Y-8790524D01*
X13559191Y-8590524D02*
X13578238Y-8590524D01*
X13578238Y-8590524D02*
X13597286Y-8600048D01*
X13597286Y-8600048D02*
X13606810Y-8609571D01*
X13606810Y-8609571D02*
X13616333Y-8628619D01*
X13616333Y-8628619D02*
X13625857Y-8666714D01*
X13625857Y-8666714D02*
X13625857Y-8714333D01*
X13625857Y-8714333D02*
X13616333Y-8752429D01*
X13616333Y-8752429D02*
X13606810Y-8771476D01*
X13606810Y-8771476D02*
X13597286Y-8781000D01*
X13597286Y-8781000D02*
X13578238Y-8790524D01*
X13578238Y-8790524D02*
X13559191Y-8790524D01*
X13559191Y-8790524D02*
X13540143Y-8781000D01*
X13540143Y-8781000D02*
X13530619Y-8771476D01*
X13530619Y-8771476D02*
X13521095Y-8752429D01*
X13521095Y-8752429D02*
X13511572Y-8714333D01*
X13511572Y-8714333D02*
X13511572Y-8666714D01*
X13511572Y-8666714D02*
X13521095Y-8628619D01*
X13521095Y-8628619D02*
X13530619Y-8609571D01*
X13530619Y-8609571D02*
X13540143Y-8600048D01*
X13540143Y-8600048D02*
X13559191Y-8590524D01*
X13816333Y-8790524D02*
X13702048Y-8790524D01*
X13759191Y-8790524D02*
X13759191Y-8590524D01*
X13759191Y-8590524D02*
X13740143Y-8619095D01*
X13740143Y-8619095D02*
X13721095Y-8638143D01*
X13721095Y-8638143D02*
X13702048Y-8647667D01*
X13997286Y-8590524D02*
X13902048Y-8590524D01*
X13902048Y-8590524D02*
X13892524Y-8685762D01*
X13892524Y-8685762D02*
X13902048Y-8676238D01*
X13902048Y-8676238D02*
X13921095Y-8666714D01*
X13921095Y-8666714D02*
X13968714Y-8666714D01*
X13968714Y-8666714D02*
X13987762Y-8676238D01*
X13987762Y-8676238D02*
X13997286Y-8685762D01*
X13997286Y-8685762D02*
X14006810Y-8704810D01*
X14006810Y-8704810D02*
X14006810Y-8752429D01*
X14006810Y-8752429D02*
X13997286Y-8771476D01*
X13997286Y-8771476D02*
X13987762Y-8781000D01*
X13987762Y-8781000D02*
X13968714Y-8790524D01*
X13968714Y-8790524D02*
X13921095Y-8790524D01*
X13921095Y-8790524D02*
X13902048Y-8781000D01*
X13902048Y-8781000D02*
X13892524Y-8771476D01*
X14073476Y-8590524D02*
X14206810Y-8590524D01*
X14206810Y-8590524D02*
X14121095Y-8790524D01*
X14273476Y-8590524D02*
X14273476Y-8628619D01*
X14349667Y-8590524D02*
X14349667Y-8628619D01*
X14644905Y-8866714D02*
X14635381Y-8857190D01*
X14635381Y-8857190D02*
X14616334Y-8828619D01*
X14616334Y-8828619D02*
X14606810Y-8809571D01*
X14606810Y-8809571D02*
X14597286Y-8781000D01*
X14597286Y-8781000D02*
X14587762Y-8733381D01*
X14587762Y-8733381D02*
X14587762Y-8695286D01*
X14587762Y-8695286D02*
X14597286Y-8647667D01*
X14597286Y-8647667D02*
X14606810Y-8619095D01*
X14606810Y-8619095D02*
X14616334Y-8600048D01*
X14616334Y-8600048D02*
X14635381Y-8571476D01*
X14635381Y-8571476D02*
X14644905Y-8561952D01*
X14711572Y-8609571D02*
X14721095Y-8600048D01*
X14721095Y-8600048D02*
X14740143Y-8590524D01*
X14740143Y-8590524D02*
X14787762Y-8590524D01*
X14787762Y-8590524D02*
X14806810Y-8600048D01*
X14806810Y-8600048D02*
X14816334Y-8609571D01*
X14816334Y-8609571D02*
X14825857Y-8628619D01*
X14825857Y-8628619D02*
X14825857Y-8647667D01*
X14825857Y-8647667D02*
X14816334Y-8676238D01*
X14816334Y-8676238D02*
X14702048Y-8790524D01*
X14702048Y-8790524D02*
X14825857Y-8790524D01*
X15063953Y-8790524D02*
X15063953Y-8590524D01*
X15149667Y-8790524D02*
X15149667Y-8685762D01*
X15149667Y-8685762D02*
X15140143Y-8666714D01*
X15140143Y-8666714D02*
X15121096Y-8657190D01*
X15121096Y-8657190D02*
X15092524Y-8657190D01*
X15092524Y-8657190D02*
X15073476Y-8666714D01*
X15073476Y-8666714D02*
X15063953Y-8676238D01*
X15273476Y-8790524D02*
X15254429Y-8781000D01*
X15254429Y-8781000D02*
X15244905Y-8771476D01*
X15244905Y-8771476D02*
X15235381Y-8752429D01*
X15235381Y-8752429D02*
X15235381Y-8695286D01*
X15235381Y-8695286D02*
X15244905Y-8676238D01*
X15244905Y-8676238D02*
X15254429Y-8666714D01*
X15254429Y-8666714D02*
X15273476Y-8657190D01*
X15273476Y-8657190D02*
X15302048Y-8657190D01*
X15302048Y-8657190D02*
X15321096Y-8666714D01*
X15321096Y-8666714D02*
X15330619Y-8676238D01*
X15330619Y-8676238D02*
X15340143Y-8695286D01*
X15340143Y-8695286D02*
X15340143Y-8752429D01*
X15340143Y-8752429D02*
X15330619Y-8771476D01*
X15330619Y-8771476D02*
X15321096Y-8781000D01*
X15321096Y-8781000D02*
X15302048Y-8790524D01*
X15302048Y-8790524D02*
X15273476Y-8790524D01*
X15454429Y-8790524D02*
X15435381Y-8781000D01*
X15435381Y-8781000D02*
X15425857Y-8761952D01*
X15425857Y-8761952D02*
X15425857Y-8590524D01*
X15606810Y-8781000D02*
X15587762Y-8790524D01*
X15587762Y-8790524D02*
X15549667Y-8790524D01*
X15549667Y-8790524D02*
X15530619Y-8781000D01*
X15530619Y-8781000D02*
X15521096Y-8761952D01*
X15521096Y-8761952D02*
X15521096Y-8685762D01*
X15521096Y-8685762D02*
X15530619Y-8666714D01*
X15530619Y-8666714D02*
X15549667Y-8657190D01*
X15549667Y-8657190D02*
X15587762Y-8657190D01*
X15587762Y-8657190D02*
X15606810Y-8666714D01*
X15606810Y-8666714D02*
X15616334Y-8685762D01*
X15616334Y-8685762D02*
X15616334Y-8704810D01*
X15616334Y-8704810D02*
X15521096Y-8723857D01*
X15692524Y-8781000D02*
X15711572Y-8790524D01*
X15711572Y-8790524D02*
X15749667Y-8790524D01*
X15749667Y-8790524D02*
X15768715Y-8781000D01*
X15768715Y-8781000D02*
X15778238Y-8761952D01*
X15778238Y-8761952D02*
X15778238Y-8752429D01*
X15778238Y-8752429D02*
X15768715Y-8733381D01*
X15768715Y-8733381D02*
X15749667Y-8723857D01*
X15749667Y-8723857D02*
X15721096Y-8723857D01*
X15721096Y-8723857D02*
X15702048Y-8714333D01*
X15702048Y-8714333D02*
X15692524Y-8695286D01*
X15692524Y-8695286D02*
X15692524Y-8685762D01*
X15692524Y-8685762D02*
X15702048Y-8666714D01*
X15702048Y-8666714D02*
X15721096Y-8657190D01*
X15721096Y-8657190D02*
X15749667Y-8657190D01*
X15749667Y-8657190D02*
X15768715Y-8666714D01*
X15844905Y-8866714D02*
X15854429Y-8857190D01*
X15854429Y-8857190D02*
X15873477Y-8828619D01*
X15873477Y-8828619D02*
X15883000Y-8809571D01*
X15883000Y-8809571D02*
X15892524Y-8781000D01*
X15892524Y-8781000D02*
X15902048Y-8733381D01*
X15902048Y-8733381D02*
X15902048Y-8695286D01*
X15902048Y-8695286D02*
X15892524Y-8647667D01*
X15892524Y-8647667D02*
X15883000Y-8619095D01*
X15883000Y-8619095D02*
X15873477Y-8600048D01*
X15873477Y-8600048D02*
X15854429Y-8571476D01*
X15854429Y-8571476D02*
X15844905Y-8561952D01*
D10*
X11083000Y-8962000D02*
G75*
G03*
X11083000Y-8962000I-50000J0D01*
G01*
D11*
X11435381Y-9054524D02*
X11321095Y-9054524D01*
X11378238Y-9054524D02*
X11378238Y-8854524D01*
X11378238Y-8854524D02*
X11359190Y-8883095D01*
X11359190Y-8883095D02*
X11340143Y-8902143D01*
X11340143Y-8902143D02*
X11321095Y-8911667D01*
X11521095Y-9035476D02*
X11530619Y-9045000D01*
X11530619Y-9045000D02*
X11521095Y-9054524D01*
X11521095Y-9054524D02*
X11511571Y-9045000D01*
X11511571Y-9045000D02*
X11521095Y-9035476D01*
X11521095Y-9035476D02*
X11521095Y-9054524D01*
X11654428Y-8854524D02*
X11673476Y-8854524D01*
X11673476Y-8854524D02*
X11692524Y-8864048D01*
X11692524Y-8864048D02*
X11702048Y-8873571D01*
X11702048Y-8873571D02*
X11711571Y-8892619D01*
X11711571Y-8892619D02*
X11721095Y-8930714D01*
X11721095Y-8930714D02*
X11721095Y-8978333D01*
X11721095Y-8978333D02*
X11711571Y-9016429D01*
X11711571Y-9016429D02*
X11702048Y-9035476D01*
X11702048Y-9035476D02*
X11692524Y-9045000D01*
X11692524Y-9045000D02*
X11673476Y-9054524D01*
X11673476Y-9054524D02*
X11654428Y-9054524D01*
X11654428Y-9054524D02*
X11635381Y-9045000D01*
X11635381Y-9045000D02*
X11625857Y-9035476D01*
X11625857Y-9035476D02*
X11616333Y-9016429D01*
X11616333Y-9016429D02*
X11606809Y-8978333D01*
X11606809Y-8978333D02*
X11606809Y-8930714D01*
X11606809Y-8930714D02*
X11616333Y-8892619D01*
X11616333Y-8892619D02*
X11625857Y-8873571D01*
X11625857Y-8873571D02*
X11635381Y-8864048D01*
X11635381Y-8864048D02*
X11654428Y-8854524D01*
X11844905Y-8854524D02*
X11863952Y-8854524D01*
X11863952Y-8854524D02*
X11883000Y-8864048D01*
X11883000Y-8864048D02*
X11892524Y-8873571D01*
X11892524Y-8873571D02*
X11902048Y-8892619D01*
X11902048Y-8892619D02*
X11911571Y-8930714D01*
X11911571Y-8930714D02*
X11911571Y-8978333D01*
X11911571Y-8978333D02*
X11902048Y-9016429D01*
X11902048Y-9016429D02*
X11892524Y-9035476D01*
X11892524Y-9035476D02*
X11883000Y-9045000D01*
X11883000Y-9045000D02*
X11863952Y-9054524D01*
X11863952Y-9054524D02*
X11844905Y-9054524D01*
X11844905Y-9054524D02*
X11825857Y-9045000D01*
X11825857Y-9045000D02*
X11816333Y-9035476D01*
X11816333Y-9035476D02*
X11806809Y-9016429D01*
X11806809Y-9016429D02*
X11797286Y-8978333D01*
X11797286Y-8978333D02*
X11797286Y-8930714D01*
X11797286Y-8930714D02*
X11806809Y-8892619D01*
X11806809Y-8892619D02*
X11816333Y-8873571D01*
X11816333Y-8873571D02*
X11825857Y-8864048D01*
X11825857Y-8864048D02*
X11844905Y-8854524D01*
X12035381Y-8854524D02*
X12054429Y-8854524D01*
X12054429Y-8854524D02*
X12073476Y-8864048D01*
X12073476Y-8864048D02*
X12083000Y-8873571D01*
X12083000Y-8873571D02*
X12092524Y-8892619D01*
X12092524Y-8892619D02*
X12102048Y-8930714D01*
X12102048Y-8930714D02*
X12102048Y-8978333D01*
X12102048Y-8978333D02*
X12092524Y-9016429D01*
X12092524Y-9016429D02*
X12083000Y-9035476D01*
X12083000Y-9035476D02*
X12073476Y-9045000D01*
X12073476Y-9045000D02*
X12054429Y-9054524D01*
X12054429Y-9054524D02*
X12035381Y-9054524D01*
X12035381Y-9054524D02*
X12016333Y-9045000D01*
X12016333Y-9045000D02*
X12006809Y-9035476D01*
X12006809Y-9035476D02*
X11997286Y-9016429D01*
X11997286Y-9016429D02*
X11987762Y-8978333D01*
X11987762Y-8978333D02*
X11987762Y-8930714D01*
X11987762Y-8930714D02*
X11997286Y-8892619D01*
X11997286Y-8892619D02*
X12006809Y-8873571D01*
X12006809Y-8873571D02*
X12016333Y-8864048D01*
X12016333Y-8864048D02*
X12035381Y-8854524D01*
X12187762Y-9054524D02*
X12187762Y-8921190D01*
X12187762Y-8940238D02*
X12197286Y-8930714D01*
X12197286Y-8930714D02*
X12216333Y-8921190D01*
X12216333Y-8921190D02*
X12244905Y-8921190D01*
X12244905Y-8921190D02*
X12263952Y-8930714D01*
X12263952Y-8930714D02*
X12273476Y-8949762D01*
X12273476Y-8949762D02*
X12273476Y-9054524D01*
X12273476Y-8949762D02*
X12283000Y-8930714D01*
X12283000Y-8930714D02*
X12302048Y-8921190D01*
X12302048Y-8921190D02*
X12330619Y-8921190D01*
X12330619Y-8921190D02*
X12349667Y-8930714D01*
X12349667Y-8930714D02*
X12359190Y-8949762D01*
X12359190Y-8949762D02*
X12359190Y-9054524D01*
X12454429Y-9054524D02*
X12454429Y-8921190D01*
X12454429Y-8940238D02*
X12463952Y-8930714D01*
X12463952Y-8930714D02*
X12483000Y-8921190D01*
X12483000Y-8921190D02*
X12511571Y-8921190D01*
X12511571Y-8921190D02*
X12530619Y-8930714D01*
X12530619Y-8930714D02*
X12540143Y-8949762D01*
X12540143Y-8949762D02*
X12540143Y-9054524D01*
X12540143Y-8949762D02*
X12549667Y-8930714D01*
X12549667Y-8930714D02*
X12568714Y-8921190D01*
X12568714Y-8921190D02*
X12597286Y-8921190D01*
X12597286Y-8921190D02*
X12616333Y-8930714D01*
X12616333Y-8930714D02*
X12625857Y-8949762D01*
X12625857Y-8949762D02*
X12625857Y-9054524D01*
X13016333Y-8845000D02*
X12844905Y-9102143D01*
X13273476Y-8854524D02*
X13292524Y-8854524D01*
X13292524Y-8854524D02*
X13311572Y-8864048D01*
X13311572Y-8864048D02*
X13321095Y-8873571D01*
X13321095Y-8873571D02*
X13330619Y-8892619D01*
X13330619Y-8892619D02*
X13340143Y-8930714D01*
X13340143Y-8930714D02*
X13340143Y-8978333D01*
X13340143Y-8978333D02*
X13330619Y-9016429D01*
X13330619Y-9016429D02*
X13321095Y-9035476D01*
X13321095Y-9035476D02*
X13311572Y-9045000D01*
X13311572Y-9045000D02*
X13292524Y-9054524D01*
X13292524Y-9054524D02*
X13273476Y-9054524D01*
X13273476Y-9054524D02*
X13254429Y-9045000D01*
X13254429Y-9045000D02*
X13244905Y-9035476D01*
X13244905Y-9035476D02*
X13235381Y-9016429D01*
X13235381Y-9016429D02*
X13225857Y-8978333D01*
X13225857Y-8978333D02*
X13225857Y-8930714D01*
X13225857Y-8930714D02*
X13235381Y-8892619D01*
X13235381Y-8892619D02*
X13244905Y-8873571D01*
X13244905Y-8873571D02*
X13254429Y-8864048D01*
X13254429Y-8864048D02*
X13273476Y-8854524D01*
X13425857Y-9035476D02*
X13435381Y-9045000D01*
X13435381Y-9045000D02*
X13425857Y-9054524D01*
X13425857Y-9054524D02*
X13416333Y-9045000D01*
X13416333Y-9045000D02*
X13425857Y-9035476D01*
X13425857Y-9035476D02*
X13425857Y-9054524D01*
X13559191Y-8854524D02*
X13578238Y-8854524D01*
X13578238Y-8854524D02*
X13597286Y-8864048D01*
X13597286Y-8864048D02*
X13606810Y-8873571D01*
X13606810Y-8873571D02*
X13616333Y-8892619D01*
X13616333Y-8892619D02*
X13625857Y-8930714D01*
X13625857Y-8930714D02*
X13625857Y-8978333D01*
X13625857Y-8978333D02*
X13616333Y-9016429D01*
X13616333Y-9016429D02*
X13606810Y-9035476D01*
X13606810Y-9035476D02*
X13597286Y-9045000D01*
X13597286Y-9045000D02*
X13578238Y-9054524D01*
X13578238Y-9054524D02*
X13559191Y-9054524D01*
X13559191Y-9054524D02*
X13540143Y-9045000D01*
X13540143Y-9045000D02*
X13530619Y-9035476D01*
X13530619Y-9035476D02*
X13521095Y-9016429D01*
X13521095Y-9016429D02*
X13511572Y-8978333D01*
X13511572Y-8978333D02*
X13511572Y-8930714D01*
X13511572Y-8930714D02*
X13521095Y-8892619D01*
X13521095Y-8892619D02*
X13530619Y-8873571D01*
X13530619Y-8873571D02*
X13540143Y-8864048D01*
X13540143Y-8864048D02*
X13559191Y-8854524D01*
X13692524Y-8854524D02*
X13816333Y-8854524D01*
X13816333Y-8854524D02*
X13749667Y-8930714D01*
X13749667Y-8930714D02*
X13778238Y-8930714D01*
X13778238Y-8930714D02*
X13797286Y-8940238D01*
X13797286Y-8940238D02*
X13806810Y-8949762D01*
X13806810Y-8949762D02*
X13816333Y-8968810D01*
X13816333Y-8968810D02*
X13816333Y-9016429D01*
X13816333Y-9016429D02*
X13806810Y-9035476D01*
X13806810Y-9035476D02*
X13797286Y-9045000D01*
X13797286Y-9045000D02*
X13778238Y-9054524D01*
X13778238Y-9054524D02*
X13721095Y-9054524D01*
X13721095Y-9054524D02*
X13702048Y-9045000D01*
X13702048Y-9045000D02*
X13692524Y-9035476D01*
X13911572Y-9054524D02*
X13949667Y-9054524D01*
X13949667Y-9054524D02*
X13968714Y-9045000D01*
X13968714Y-9045000D02*
X13978238Y-9035476D01*
X13978238Y-9035476D02*
X13997286Y-9006905D01*
X13997286Y-9006905D02*
X14006810Y-8968810D01*
X14006810Y-8968810D02*
X14006810Y-8892619D01*
X14006810Y-8892619D02*
X13997286Y-8873571D01*
X13997286Y-8873571D02*
X13987762Y-8864048D01*
X13987762Y-8864048D02*
X13968714Y-8854524D01*
X13968714Y-8854524D02*
X13930619Y-8854524D01*
X13930619Y-8854524D02*
X13911572Y-8864048D01*
X13911572Y-8864048D02*
X13902048Y-8873571D01*
X13902048Y-8873571D02*
X13892524Y-8892619D01*
X13892524Y-8892619D02*
X13892524Y-8940238D01*
X13892524Y-8940238D02*
X13902048Y-8959286D01*
X13902048Y-8959286D02*
X13911572Y-8968810D01*
X13911572Y-8968810D02*
X13930619Y-8978333D01*
X13930619Y-8978333D02*
X13968714Y-8978333D01*
X13968714Y-8978333D02*
X13987762Y-8968810D01*
X13987762Y-8968810D02*
X13997286Y-8959286D01*
X13997286Y-8959286D02*
X14006810Y-8940238D01*
X14178238Y-8921190D02*
X14178238Y-9054524D01*
X14130619Y-8845000D02*
X14083000Y-8987857D01*
X14083000Y-8987857D02*
X14206810Y-8987857D01*
X14273476Y-8854524D02*
X14273476Y-8892619D01*
X14349667Y-8854524D02*
X14349667Y-8892619D01*
X14644905Y-9130714D02*
X14635381Y-9121190D01*
X14635381Y-9121190D02*
X14616334Y-9092619D01*
X14616334Y-9092619D02*
X14606810Y-9073571D01*
X14606810Y-9073571D02*
X14597286Y-9045000D01*
X14597286Y-9045000D02*
X14587762Y-8997381D01*
X14587762Y-8997381D02*
X14587762Y-8959286D01*
X14587762Y-8959286D02*
X14597286Y-8911667D01*
X14597286Y-8911667D02*
X14606810Y-8883095D01*
X14606810Y-8883095D02*
X14616334Y-8864048D01*
X14616334Y-8864048D02*
X14635381Y-8835476D01*
X14635381Y-8835476D02*
X14644905Y-8825952D01*
X14806810Y-8921190D02*
X14806810Y-9054524D01*
X14759191Y-8845000D02*
X14711572Y-8987857D01*
X14711572Y-8987857D02*
X14835381Y-8987857D01*
X15063953Y-9054524D02*
X15063953Y-8854524D01*
X15149667Y-9054524D02*
X15149667Y-8949762D01*
X15149667Y-8949762D02*
X15140143Y-8930714D01*
X15140143Y-8930714D02*
X15121096Y-8921190D01*
X15121096Y-8921190D02*
X15092524Y-8921190D01*
X15092524Y-8921190D02*
X15073476Y-8930714D01*
X15073476Y-8930714D02*
X15063953Y-8940238D01*
X15273476Y-9054524D02*
X15254429Y-9045000D01*
X15254429Y-9045000D02*
X15244905Y-9035476D01*
X15244905Y-9035476D02*
X15235381Y-9016429D01*
X15235381Y-9016429D02*
X15235381Y-8959286D01*
X15235381Y-8959286D02*
X15244905Y-8940238D01*
X15244905Y-8940238D02*
X15254429Y-8930714D01*
X15254429Y-8930714D02*
X15273476Y-8921190D01*
X15273476Y-8921190D02*
X15302048Y-8921190D01*
X15302048Y-8921190D02*
X15321096Y-8930714D01*
X15321096Y-8930714D02*
X15330619Y-8940238D01*
X15330619Y-8940238D02*
X15340143Y-8959286D01*
X15340143Y-8959286D02*
X15340143Y-9016429D01*
X15340143Y-9016429D02*
X15330619Y-9035476D01*
X15330619Y-9035476D02*
X15321096Y-9045000D01*
X15321096Y-9045000D02*
X15302048Y-9054524D01*
X15302048Y-9054524D02*
X15273476Y-9054524D01*
X15454429Y-9054524D02*
X15435381Y-9045000D01*
X15435381Y-9045000D02*
X15425857Y-9025952D01*
X15425857Y-9025952D02*
X15425857Y-8854524D01*
X15606810Y-9045000D02*
X15587762Y-9054524D01*
X15587762Y-9054524D02*
X15549667Y-9054524D01*
X15549667Y-9054524D02*
X15530619Y-9045000D01*
X15530619Y-9045000D02*
X15521096Y-9025952D01*
X15521096Y-9025952D02*
X15521096Y-8949762D01*
X15521096Y-8949762D02*
X15530619Y-8930714D01*
X15530619Y-8930714D02*
X15549667Y-8921190D01*
X15549667Y-8921190D02*
X15587762Y-8921190D01*
X15587762Y-8921190D02*
X15606810Y-8930714D01*
X15606810Y-8930714D02*
X15616334Y-8949762D01*
X15616334Y-8949762D02*
X15616334Y-8968810D01*
X15616334Y-8968810D02*
X15521096Y-8987857D01*
X15692524Y-9045000D02*
X15711572Y-9054524D01*
X15711572Y-9054524D02*
X15749667Y-9054524D01*
X15749667Y-9054524D02*
X15768715Y-9045000D01*
X15768715Y-9045000D02*
X15778238Y-9025952D01*
X15778238Y-9025952D02*
X15778238Y-9016429D01*
X15778238Y-9016429D02*
X15768715Y-8997381D01*
X15768715Y-8997381D02*
X15749667Y-8987857D01*
X15749667Y-8987857D02*
X15721096Y-8987857D01*
X15721096Y-8987857D02*
X15702048Y-8978333D01*
X15702048Y-8978333D02*
X15692524Y-8959286D01*
X15692524Y-8959286D02*
X15692524Y-8949762D01*
X15692524Y-8949762D02*
X15702048Y-8930714D01*
X15702048Y-8930714D02*
X15721096Y-8921190D01*
X15721096Y-8921190D02*
X15749667Y-8921190D01*
X15749667Y-8921190D02*
X15768715Y-8930714D01*
X15844905Y-9130714D02*
X15854429Y-9121190D01*
X15854429Y-9121190D02*
X15873477Y-9092619D01*
X15873477Y-9092619D02*
X15883000Y-9073571D01*
X15883000Y-9073571D02*
X15892524Y-9045000D01*
X15892524Y-9045000D02*
X15902048Y-8997381D01*
X15902048Y-8997381D02*
X15902048Y-8959286D01*
X15902048Y-8959286D02*
X15892524Y-8911667D01*
X15892524Y-8911667D02*
X15883000Y-8883095D01*
X15883000Y-8883095D02*
X15873477Y-8864048D01*
X15873477Y-8864048D02*
X15854429Y-8835476D01*
X15854429Y-8835476D02*
X15844905Y-8825952D01*
M02*
