%TF.GenerationSoftware,KiCad,Pcbnew,7.0.2*%
%TF.CreationDate,2023-10-25T06:34:29-04:00*%
%TF.ProjectId,MacroPad Base,4d616372-6f50-4616-9420-426173652e6b,rev?*%
%TF.SameCoordinates,Original*%
%TF.FileFunction,Drillmap*%
%TF.FilePolarity,Positive*%
%FSLAX45Y45*%
G04 Gerber Fmt 4.5, Leading zero omitted, Abs format (unit mm)*
G04 Created by KiCad (PCBNEW 7.0.2) date 2023-10-25 06:34:29*
%MOMM*%
%LPD*%
G01*
G04 APERTURE LIST*
%ADD10C,0.100000*%
%ADD11C,0.200000*%
%ADD12C,0.170180*%
%ADD13C,0.398780*%
G04 APERTURE END LIST*
D10*
X4212350Y-2032900D02*
X11516450Y-2032900D01*
X11516450Y-13298300D01*
X4212350Y-13298300D01*
X4212350Y-2032900D01*
D11*
D12*
X5503710Y-3158110D02*
X5673890Y-3328290D01*
X5673890Y-3158110D02*
X5503710Y-3328290D01*
X5503710Y-4174110D02*
X5673890Y-4344290D01*
X5673890Y-4174110D02*
X5503710Y-4344290D01*
X5503710Y-5743110D02*
X5673890Y-5913290D01*
X5673890Y-5743110D02*
X5503710Y-5913290D01*
X5503710Y-6759110D02*
X5673890Y-6929290D01*
X5673890Y-6759110D02*
X5503710Y-6929290D01*
X5503710Y-8328110D02*
X5673890Y-8498290D01*
X5673890Y-8328110D02*
X5503710Y-8498290D01*
X5503710Y-9344110D02*
X5673890Y-9514290D01*
X5673890Y-9344110D02*
X5503710Y-9514290D01*
X5503710Y-10913110D02*
X5673890Y-11083290D01*
X5673890Y-10913110D02*
X5503710Y-11083290D01*
X5503710Y-11929110D02*
X5673890Y-12099290D01*
X5673890Y-11929110D02*
X5503710Y-12099290D01*
X10003710Y-3158110D02*
X10173890Y-3328290D01*
X10173890Y-3158110D02*
X10003710Y-3328290D01*
X10003710Y-4174110D02*
X10173890Y-4344290D01*
X10173890Y-4174110D02*
X10003710Y-4344290D01*
X10003710Y-5743110D02*
X10173890Y-5913290D01*
X10173890Y-5743110D02*
X10003710Y-5913290D01*
X10003710Y-6759110D02*
X10173890Y-6929290D01*
X10173890Y-6759110D02*
X10003710Y-6929290D01*
X10003710Y-8328110D02*
X10173890Y-8498290D01*
X10173890Y-8328110D02*
X10003710Y-8498290D01*
X10003710Y-9344110D02*
X10173890Y-9514290D01*
X10173890Y-9344110D02*
X10003710Y-9514290D01*
X10003710Y-10913110D02*
X10173890Y-11083290D01*
X10173890Y-10913110D02*
X10003710Y-11083290D01*
X10003710Y-11929110D02*
X10173890Y-12099290D01*
X10173890Y-11929110D02*
X10003710Y-12099290D01*
D13*
X5788190Y-3751200D02*
G75*
G03*
X5788190Y-3751200I-199390J0D01*
G01*
X5788190Y-6336200D02*
G75*
G03*
X5788190Y-6336200I-199390J0D01*
G01*
X5788190Y-8921200D02*
G75*
G03*
X5788190Y-8921200I-199390J0D01*
G01*
X5788190Y-11506200D02*
G75*
G03*
X5788190Y-11506200I-199390J0D01*
G01*
X10288190Y-3751200D02*
G75*
G03*
X10288190Y-3751200I-199390J0D01*
G01*
X10288190Y-6336200D02*
G75*
G03*
X10288190Y-6336200I-199390J0D01*
G01*
X10288190Y-8921200D02*
G75*
G03*
X10288190Y-8921200I-199390J0D01*
G01*
X10288190Y-11506200D02*
G75*
G03*
X10288190Y-11506200I-199390J0D01*
G01*
D11*
X4454969Y-13615824D02*
X4454969Y-13415824D01*
X4454969Y-13415824D02*
X4502588Y-13415824D01*
X4502588Y-13415824D02*
X4531160Y-13425348D01*
X4531160Y-13425348D02*
X4550207Y-13444395D01*
X4550207Y-13444395D02*
X4559731Y-13463443D01*
X4559731Y-13463443D02*
X4569255Y-13501538D01*
X4569255Y-13501538D02*
X4569255Y-13530109D01*
X4569255Y-13530109D02*
X4559731Y-13568205D01*
X4559731Y-13568205D02*
X4550207Y-13587252D01*
X4550207Y-13587252D02*
X4531160Y-13606300D01*
X4531160Y-13606300D02*
X4502588Y-13615824D01*
X4502588Y-13615824D02*
X4454969Y-13615824D01*
X4654969Y-13615824D02*
X4654969Y-13482490D01*
X4654969Y-13520586D02*
X4664493Y-13501538D01*
X4664493Y-13501538D02*
X4674017Y-13492014D01*
X4674017Y-13492014D02*
X4693064Y-13482490D01*
X4693064Y-13482490D02*
X4712112Y-13482490D01*
X4778779Y-13615824D02*
X4778779Y-13482490D01*
X4778779Y-13415824D02*
X4769255Y-13425348D01*
X4769255Y-13425348D02*
X4778779Y-13434871D01*
X4778779Y-13434871D02*
X4788302Y-13425348D01*
X4788302Y-13425348D02*
X4778779Y-13415824D01*
X4778779Y-13415824D02*
X4778779Y-13434871D01*
X4902588Y-13615824D02*
X4883540Y-13606300D01*
X4883540Y-13606300D02*
X4874017Y-13587252D01*
X4874017Y-13587252D02*
X4874017Y-13415824D01*
X5007350Y-13615824D02*
X4988302Y-13606300D01*
X4988302Y-13606300D02*
X4978779Y-13587252D01*
X4978779Y-13587252D02*
X4978779Y-13415824D01*
X5235921Y-13615824D02*
X5235921Y-13415824D01*
X5235921Y-13415824D02*
X5302588Y-13558681D01*
X5302588Y-13558681D02*
X5369255Y-13415824D01*
X5369255Y-13415824D02*
X5369255Y-13615824D01*
X5550207Y-13615824D02*
X5550207Y-13511062D01*
X5550207Y-13511062D02*
X5540683Y-13492014D01*
X5540683Y-13492014D02*
X5521636Y-13482490D01*
X5521636Y-13482490D02*
X5483540Y-13482490D01*
X5483540Y-13482490D02*
X5464493Y-13492014D01*
X5550207Y-13606300D02*
X5531160Y-13615824D01*
X5531160Y-13615824D02*
X5483540Y-13615824D01*
X5483540Y-13615824D02*
X5464493Y-13606300D01*
X5464493Y-13606300D02*
X5454969Y-13587252D01*
X5454969Y-13587252D02*
X5454969Y-13568205D01*
X5454969Y-13568205D02*
X5464493Y-13549157D01*
X5464493Y-13549157D02*
X5483540Y-13539633D01*
X5483540Y-13539633D02*
X5531160Y-13539633D01*
X5531160Y-13539633D02*
X5550207Y-13530109D01*
X5645445Y-13482490D02*
X5645445Y-13682490D01*
X5645445Y-13492014D02*
X5664493Y-13482490D01*
X5664493Y-13482490D02*
X5702588Y-13482490D01*
X5702588Y-13482490D02*
X5721636Y-13492014D01*
X5721636Y-13492014D02*
X5731159Y-13501538D01*
X5731159Y-13501538D02*
X5740683Y-13520586D01*
X5740683Y-13520586D02*
X5740683Y-13577728D01*
X5740683Y-13577728D02*
X5731159Y-13596776D01*
X5731159Y-13596776D02*
X5721636Y-13606300D01*
X5721636Y-13606300D02*
X5702588Y-13615824D01*
X5702588Y-13615824D02*
X5664493Y-13615824D01*
X5664493Y-13615824D02*
X5645445Y-13606300D01*
X5826398Y-13596776D02*
X5835921Y-13606300D01*
X5835921Y-13606300D02*
X5826398Y-13615824D01*
X5826398Y-13615824D02*
X5816874Y-13606300D01*
X5816874Y-13606300D02*
X5826398Y-13596776D01*
X5826398Y-13596776D02*
X5826398Y-13615824D01*
X5826398Y-13492014D02*
X5835921Y-13501538D01*
X5835921Y-13501538D02*
X5826398Y-13511062D01*
X5826398Y-13511062D02*
X5816874Y-13501538D01*
X5816874Y-13501538D02*
X5826398Y-13492014D01*
X5826398Y-13492014D02*
X5826398Y-13511062D01*
D12*
X4037170Y-13858210D02*
X4207350Y-14028390D01*
X4207350Y-13858210D02*
X4037170Y-14028390D01*
D11*
X4559731Y-14035824D02*
X4445445Y-14035824D01*
X4502588Y-14035824D02*
X4502588Y-13835824D01*
X4502588Y-13835824D02*
X4483540Y-13864395D01*
X4483540Y-13864395D02*
X4464493Y-13883443D01*
X4464493Y-13883443D02*
X4445445Y-13892967D01*
X4645445Y-14016776D02*
X4654969Y-14026300D01*
X4654969Y-14026300D02*
X4645445Y-14035824D01*
X4645445Y-14035824D02*
X4635921Y-14026300D01*
X4635921Y-14026300D02*
X4645445Y-14016776D01*
X4645445Y-14016776D02*
X4645445Y-14035824D01*
X4721636Y-13835824D02*
X4854969Y-13835824D01*
X4854969Y-13835824D02*
X4769255Y-14035824D01*
X4969255Y-13835824D02*
X4988302Y-13835824D01*
X4988302Y-13835824D02*
X5007350Y-13845348D01*
X5007350Y-13845348D02*
X5016874Y-13854871D01*
X5016874Y-13854871D02*
X5026398Y-13873919D01*
X5026398Y-13873919D02*
X5035921Y-13912014D01*
X5035921Y-13912014D02*
X5035921Y-13959633D01*
X5035921Y-13959633D02*
X5026398Y-13997728D01*
X5026398Y-13997728D02*
X5016874Y-14016776D01*
X5016874Y-14016776D02*
X5007350Y-14026300D01*
X5007350Y-14026300D02*
X4988302Y-14035824D01*
X4988302Y-14035824D02*
X4969255Y-14035824D01*
X4969255Y-14035824D02*
X4950207Y-14026300D01*
X4950207Y-14026300D02*
X4940683Y-14016776D01*
X4940683Y-14016776D02*
X4931160Y-13997728D01*
X4931160Y-13997728D02*
X4921636Y-13959633D01*
X4921636Y-13959633D02*
X4921636Y-13912014D01*
X4921636Y-13912014D02*
X4931160Y-13873919D01*
X4931160Y-13873919D02*
X4940683Y-13854871D01*
X4940683Y-13854871D02*
X4950207Y-13845348D01*
X4950207Y-13845348D02*
X4969255Y-13835824D01*
X5112112Y-13854871D02*
X5121636Y-13845348D01*
X5121636Y-13845348D02*
X5140683Y-13835824D01*
X5140683Y-13835824D02*
X5188302Y-13835824D01*
X5188302Y-13835824D02*
X5207350Y-13845348D01*
X5207350Y-13845348D02*
X5216874Y-13854871D01*
X5216874Y-13854871D02*
X5226398Y-13873919D01*
X5226398Y-13873919D02*
X5226398Y-13892967D01*
X5226398Y-13892967D02*
X5216874Y-13921538D01*
X5216874Y-13921538D02*
X5102588Y-14035824D01*
X5102588Y-14035824D02*
X5226398Y-14035824D01*
X5312112Y-14035824D02*
X5312112Y-13902490D01*
X5312112Y-13921538D02*
X5321636Y-13912014D01*
X5321636Y-13912014D02*
X5340683Y-13902490D01*
X5340683Y-13902490D02*
X5369255Y-13902490D01*
X5369255Y-13902490D02*
X5388302Y-13912014D01*
X5388302Y-13912014D02*
X5397826Y-13931062D01*
X5397826Y-13931062D02*
X5397826Y-14035824D01*
X5397826Y-13931062D02*
X5407350Y-13912014D01*
X5407350Y-13912014D02*
X5426398Y-13902490D01*
X5426398Y-13902490D02*
X5454969Y-13902490D01*
X5454969Y-13902490D02*
X5474017Y-13912014D01*
X5474017Y-13912014D02*
X5483541Y-13931062D01*
X5483541Y-13931062D02*
X5483541Y-14035824D01*
X5578779Y-14035824D02*
X5578779Y-13902490D01*
X5578779Y-13921538D02*
X5588302Y-13912014D01*
X5588302Y-13912014D02*
X5607350Y-13902490D01*
X5607350Y-13902490D02*
X5635921Y-13902490D01*
X5635921Y-13902490D02*
X5654969Y-13912014D01*
X5654969Y-13912014D02*
X5664493Y-13931062D01*
X5664493Y-13931062D02*
X5664493Y-14035824D01*
X5664493Y-13931062D02*
X5674017Y-13912014D01*
X5674017Y-13912014D02*
X5693064Y-13902490D01*
X5693064Y-13902490D02*
X5721636Y-13902490D01*
X5721636Y-13902490D02*
X5740683Y-13912014D01*
X5740683Y-13912014D02*
X5750207Y-13931062D01*
X5750207Y-13931062D02*
X5750207Y-14035824D01*
X6140683Y-13826300D02*
X5969255Y-14083443D01*
X6397826Y-13835824D02*
X6416874Y-13835824D01*
X6416874Y-13835824D02*
X6435922Y-13845348D01*
X6435922Y-13845348D02*
X6445445Y-13854871D01*
X6445445Y-13854871D02*
X6454969Y-13873919D01*
X6454969Y-13873919D02*
X6464493Y-13912014D01*
X6464493Y-13912014D02*
X6464493Y-13959633D01*
X6464493Y-13959633D02*
X6454969Y-13997728D01*
X6454969Y-13997728D02*
X6445445Y-14016776D01*
X6445445Y-14016776D02*
X6435922Y-14026300D01*
X6435922Y-14026300D02*
X6416874Y-14035824D01*
X6416874Y-14035824D02*
X6397826Y-14035824D01*
X6397826Y-14035824D02*
X6378779Y-14026300D01*
X6378779Y-14026300D02*
X6369255Y-14016776D01*
X6369255Y-14016776D02*
X6359731Y-13997728D01*
X6359731Y-13997728D02*
X6350207Y-13959633D01*
X6350207Y-13959633D02*
X6350207Y-13912014D01*
X6350207Y-13912014D02*
X6359731Y-13873919D01*
X6359731Y-13873919D02*
X6369255Y-13854871D01*
X6369255Y-13854871D02*
X6378779Y-13845348D01*
X6378779Y-13845348D02*
X6397826Y-13835824D01*
X6550207Y-14016776D02*
X6559731Y-14026300D01*
X6559731Y-14026300D02*
X6550207Y-14035824D01*
X6550207Y-14035824D02*
X6540683Y-14026300D01*
X6540683Y-14026300D02*
X6550207Y-14016776D01*
X6550207Y-14016776D02*
X6550207Y-14035824D01*
X6683541Y-13835824D02*
X6702588Y-13835824D01*
X6702588Y-13835824D02*
X6721636Y-13845348D01*
X6721636Y-13845348D02*
X6731160Y-13854871D01*
X6731160Y-13854871D02*
X6740683Y-13873919D01*
X6740683Y-13873919D02*
X6750207Y-13912014D01*
X6750207Y-13912014D02*
X6750207Y-13959633D01*
X6750207Y-13959633D02*
X6740683Y-13997728D01*
X6740683Y-13997728D02*
X6731160Y-14016776D01*
X6731160Y-14016776D02*
X6721636Y-14026300D01*
X6721636Y-14026300D02*
X6702588Y-14035824D01*
X6702588Y-14035824D02*
X6683541Y-14035824D01*
X6683541Y-14035824D02*
X6664493Y-14026300D01*
X6664493Y-14026300D02*
X6654969Y-14016776D01*
X6654969Y-14016776D02*
X6645445Y-13997728D01*
X6645445Y-13997728D02*
X6635922Y-13959633D01*
X6635922Y-13959633D02*
X6635922Y-13912014D01*
X6635922Y-13912014D02*
X6645445Y-13873919D01*
X6645445Y-13873919D02*
X6654969Y-13854871D01*
X6654969Y-13854871D02*
X6664493Y-13845348D01*
X6664493Y-13845348D02*
X6683541Y-13835824D01*
X6921636Y-13835824D02*
X6883541Y-13835824D01*
X6883541Y-13835824D02*
X6864493Y-13845348D01*
X6864493Y-13845348D02*
X6854969Y-13854871D01*
X6854969Y-13854871D02*
X6835922Y-13883443D01*
X6835922Y-13883443D02*
X6826398Y-13921538D01*
X6826398Y-13921538D02*
X6826398Y-13997728D01*
X6826398Y-13997728D02*
X6835922Y-14016776D01*
X6835922Y-14016776D02*
X6845445Y-14026300D01*
X6845445Y-14026300D02*
X6864493Y-14035824D01*
X6864493Y-14035824D02*
X6902588Y-14035824D01*
X6902588Y-14035824D02*
X6921636Y-14026300D01*
X6921636Y-14026300D02*
X6931160Y-14016776D01*
X6931160Y-14016776D02*
X6940683Y-13997728D01*
X6940683Y-13997728D02*
X6940683Y-13950109D01*
X6940683Y-13950109D02*
X6931160Y-13931062D01*
X6931160Y-13931062D02*
X6921636Y-13921538D01*
X6921636Y-13921538D02*
X6902588Y-13912014D01*
X6902588Y-13912014D02*
X6864493Y-13912014D01*
X6864493Y-13912014D02*
X6845445Y-13921538D01*
X6845445Y-13921538D02*
X6835922Y-13931062D01*
X6835922Y-13931062D02*
X6826398Y-13950109D01*
X7007350Y-13835824D02*
X7140683Y-13835824D01*
X7140683Y-13835824D02*
X7054969Y-14035824D01*
X7254969Y-13835824D02*
X7274017Y-13835824D01*
X7274017Y-13835824D02*
X7293064Y-13845348D01*
X7293064Y-13845348D02*
X7302588Y-13854871D01*
X7302588Y-13854871D02*
X7312112Y-13873919D01*
X7312112Y-13873919D02*
X7321636Y-13912014D01*
X7321636Y-13912014D02*
X7321636Y-13959633D01*
X7321636Y-13959633D02*
X7312112Y-13997728D01*
X7312112Y-13997728D02*
X7302588Y-14016776D01*
X7302588Y-14016776D02*
X7293064Y-14026300D01*
X7293064Y-14026300D02*
X7274017Y-14035824D01*
X7274017Y-14035824D02*
X7254969Y-14035824D01*
X7254969Y-14035824D02*
X7235922Y-14026300D01*
X7235922Y-14026300D02*
X7226398Y-14016776D01*
X7226398Y-14016776D02*
X7216874Y-13997728D01*
X7216874Y-13997728D02*
X7207350Y-13959633D01*
X7207350Y-13959633D02*
X7207350Y-13912014D01*
X7207350Y-13912014D02*
X7216874Y-13873919D01*
X7216874Y-13873919D02*
X7226398Y-13854871D01*
X7226398Y-13854871D02*
X7235922Y-13845348D01*
X7235922Y-13845348D02*
X7254969Y-13835824D01*
X7397826Y-13835824D02*
X7397826Y-13873919D01*
X7474017Y-13835824D02*
X7474017Y-13873919D01*
X7769255Y-14112014D02*
X7759731Y-14102490D01*
X7759731Y-14102490D02*
X7740684Y-14073919D01*
X7740684Y-14073919D02*
X7731160Y-14054871D01*
X7731160Y-14054871D02*
X7721636Y-14026300D01*
X7721636Y-14026300D02*
X7712112Y-13978681D01*
X7712112Y-13978681D02*
X7712112Y-13940586D01*
X7712112Y-13940586D02*
X7721636Y-13892967D01*
X7721636Y-13892967D02*
X7731160Y-13864395D01*
X7731160Y-13864395D02*
X7740684Y-13845348D01*
X7740684Y-13845348D02*
X7759731Y-13816776D01*
X7759731Y-13816776D02*
X7769255Y-13807252D01*
X7950207Y-14035824D02*
X7835922Y-14035824D01*
X7893064Y-14035824D02*
X7893064Y-13835824D01*
X7893064Y-13835824D02*
X7874017Y-13864395D01*
X7874017Y-13864395D02*
X7854969Y-13883443D01*
X7854969Y-13883443D02*
X7835922Y-13892967D01*
X8121636Y-13835824D02*
X8083541Y-13835824D01*
X8083541Y-13835824D02*
X8064493Y-13845348D01*
X8064493Y-13845348D02*
X8054969Y-13854871D01*
X8054969Y-13854871D02*
X8035922Y-13883443D01*
X8035922Y-13883443D02*
X8026398Y-13921538D01*
X8026398Y-13921538D02*
X8026398Y-13997728D01*
X8026398Y-13997728D02*
X8035922Y-14016776D01*
X8035922Y-14016776D02*
X8045445Y-14026300D01*
X8045445Y-14026300D02*
X8064493Y-14035824D01*
X8064493Y-14035824D02*
X8102588Y-14035824D01*
X8102588Y-14035824D02*
X8121636Y-14026300D01*
X8121636Y-14026300D02*
X8131160Y-14016776D01*
X8131160Y-14016776D02*
X8140684Y-13997728D01*
X8140684Y-13997728D02*
X8140684Y-13950109D01*
X8140684Y-13950109D02*
X8131160Y-13931062D01*
X8131160Y-13931062D02*
X8121636Y-13921538D01*
X8121636Y-13921538D02*
X8102588Y-13912014D01*
X8102588Y-13912014D02*
X8064493Y-13912014D01*
X8064493Y-13912014D02*
X8045445Y-13921538D01*
X8045445Y-13921538D02*
X8035922Y-13931062D01*
X8035922Y-13931062D02*
X8026398Y-13950109D01*
X8378779Y-14035824D02*
X8378779Y-13835824D01*
X8464493Y-14035824D02*
X8464493Y-13931062D01*
X8464493Y-13931062D02*
X8454969Y-13912014D01*
X8454969Y-13912014D02*
X8435922Y-13902490D01*
X8435922Y-13902490D02*
X8407350Y-13902490D01*
X8407350Y-13902490D02*
X8388303Y-13912014D01*
X8388303Y-13912014D02*
X8378779Y-13921538D01*
X8588303Y-14035824D02*
X8569255Y-14026300D01*
X8569255Y-14026300D02*
X8559731Y-14016776D01*
X8559731Y-14016776D02*
X8550208Y-13997728D01*
X8550208Y-13997728D02*
X8550208Y-13940586D01*
X8550208Y-13940586D02*
X8559731Y-13921538D01*
X8559731Y-13921538D02*
X8569255Y-13912014D01*
X8569255Y-13912014D02*
X8588303Y-13902490D01*
X8588303Y-13902490D02*
X8616874Y-13902490D01*
X8616874Y-13902490D02*
X8635922Y-13912014D01*
X8635922Y-13912014D02*
X8645446Y-13921538D01*
X8645446Y-13921538D02*
X8654969Y-13940586D01*
X8654969Y-13940586D02*
X8654969Y-13997728D01*
X8654969Y-13997728D02*
X8645446Y-14016776D01*
X8645446Y-14016776D02*
X8635922Y-14026300D01*
X8635922Y-14026300D02*
X8616874Y-14035824D01*
X8616874Y-14035824D02*
X8588303Y-14035824D01*
X8769255Y-14035824D02*
X8750208Y-14026300D01*
X8750208Y-14026300D02*
X8740684Y-14007252D01*
X8740684Y-14007252D02*
X8740684Y-13835824D01*
X8921636Y-14026300D02*
X8902589Y-14035824D01*
X8902589Y-14035824D02*
X8864493Y-14035824D01*
X8864493Y-14035824D02*
X8845446Y-14026300D01*
X8845446Y-14026300D02*
X8835922Y-14007252D01*
X8835922Y-14007252D02*
X8835922Y-13931062D01*
X8835922Y-13931062D02*
X8845446Y-13912014D01*
X8845446Y-13912014D02*
X8864493Y-13902490D01*
X8864493Y-13902490D02*
X8902589Y-13902490D01*
X8902589Y-13902490D02*
X8921636Y-13912014D01*
X8921636Y-13912014D02*
X8931160Y-13931062D01*
X8931160Y-13931062D02*
X8931160Y-13950109D01*
X8931160Y-13950109D02*
X8835922Y-13969157D01*
X9007350Y-14026300D02*
X9026398Y-14035824D01*
X9026398Y-14035824D02*
X9064493Y-14035824D01*
X9064493Y-14035824D02*
X9083541Y-14026300D01*
X9083541Y-14026300D02*
X9093065Y-14007252D01*
X9093065Y-14007252D02*
X9093065Y-13997728D01*
X9093065Y-13997728D02*
X9083541Y-13978681D01*
X9083541Y-13978681D02*
X9064493Y-13969157D01*
X9064493Y-13969157D02*
X9035922Y-13969157D01*
X9035922Y-13969157D02*
X9016874Y-13959633D01*
X9016874Y-13959633D02*
X9007350Y-13940586D01*
X9007350Y-13940586D02*
X9007350Y-13931062D01*
X9007350Y-13931062D02*
X9016874Y-13912014D01*
X9016874Y-13912014D02*
X9035922Y-13902490D01*
X9035922Y-13902490D02*
X9064493Y-13902490D01*
X9064493Y-13902490D02*
X9083541Y-13912014D01*
X9159731Y-14112014D02*
X9169255Y-14102490D01*
X9169255Y-14102490D02*
X9188303Y-14073919D01*
X9188303Y-14073919D02*
X9197827Y-14054871D01*
X9197827Y-14054871D02*
X9207350Y-14026300D01*
X9207350Y-14026300D02*
X9216874Y-13978681D01*
X9216874Y-13978681D02*
X9216874Y-13940586D01*
X9216874Y-13940586D02*
X9207350Y-13892967D01*
X9207350Y-13892967D02*
X9197827Y-13864395D01*
X9197827Y-13864395D02*
X9188303Y-13845348D01*
X9188303Y-13845348D02*
X9169255Y-13816776D01*
X9169255Y-13816776D02*
X9159731Y-13807252D01*
X9521636Y-14112014D02*
X9512112Y-14102490D01*
X9512112Y-14102490D02*
X9493065Y-14073919D01*
X9493065Y-14073919D02*
X9483541Y-14054871D01*
X9483541Y-14054871D02*
X9474017Y-14026300D01*
X9474017Y-14026300D02*
X9464493Y-13978681D01*
X9464493Y-13978681D02*
X9464493Y-13940586D01*
X9464493Y-13940586D02*
X9474017Y-13892967D01*
X9474017Y-13892967D02*
X9483541Y-13864395D01*
X9483541Y-13864395D02*
X9493065Y-13845348D01*
X9493065Y-13845348D02*
X9512112Y-13816776D01*
X9512112Y-13816776D02*
X9521636Y-13807252D01*
X9597827Y-13902490D02*
X9597827Y-14035824D01*
X9597827Y-13921538D02*
X9607350Y-13912014D01*
X9607350Y-13912014D02*
X9626398Y-13902490D01*
X9626398Y-13902490D02*
X9654970Y-13902490D01*
X9654970Y-13902490D02*
X9674017Y-13912014D01*
X9674017Y-13912014D02*
X9683541Y-13931062D01*
X9683541Y-13931062D02*
X9683541Y-14035824D01*
X9807350Y-14035824D02*
X9788303Y-14026300D01*
X9788303Y-14026300D02*
X9778779Y-14016776D01*
X9778779Y-14016776D02*
X9769255Y-13997728D01*
X9769255Y-13997728D02*
X9769255Y-13940586D01*
X9769255Y-13940586D02*
X9778779Y-13921538D01*
X9778779Y-13921538D02*
X9788303Y-13912014D01*
X9788303Y-13912014D02*
X9807350Y-13902490D01*
X9807350Y-13902490D02*
X9835922Y-13902490D01*
X9835922Y-13902490D02*
X9854970Y-13912014D01*
X9854970Y-13912014D02*
X9864493Y-13921538D01*
X9864493Y-13921538D02*
X9874017Y-13940586D01*
X9874017Y-13940586D02*
X9874017Y-13997728D01*
X9874017Y-13997728D02*
X9864493Y-14016776D01*
X9864493Y-14016776D02*
X9854970Y-14026300D01*
X9854970Y-14026300D02*
X9835922Y-14035824D01*
X9835922Y-14035824D02*
X9807350Y-14035824D01*
X9931160Y-13902490D02*
X10007350Y-13902490D01*
X9959731Y-13835824D02*
X9959731Y-14007252D01*
X9959731Y-14007252D02*
X9969255Y-14026300D01*
X9969255Y-14026300D02*
X9988303Y-14035824D01*
X9988303Y-14035824D02*
X10007350Y-14035824D01*
X10226398Y-13902490D02*
X10226398Y-14102490D01*
X10226398Y-13912014D02*
X10245446Y-13902490D01*
X10245446Y-13902490D02*
X10283541Y-13902490D01*
X10283541Y-13902490D02*
X10302589Y-13912014D01*
X10302589Y-13912014D02*
X10312112Y-13921538D01*
X10312112Y-13921538D02*
X10321636Y-13940586D01*
X10321636Y-13940586D02*
X10321636Y-13997728D01*
X10321636Y-13997728D02*
X10312112Y-14016776D01*
X10312112Y-14016776D02*
X10302589Y-14026300D01*
X10302589Y-14026300D02*
X10283541Y-14035824D01*
X10283541Y-14035824D02*
X10245446Y-14035824D01*
X10245446Y-14035824D02*
X10226398Y-14026300D01*
X10435922Y-14035824D02*
X10416874Y-14026300D01*
X10416874Y-14026300D02*
X10407351Y-14007252D01*
X10407351Y-14007252D02*
X10407351Y-13835824D01*
X10597827Y-14035824D02*
X10597827Y-13931062D01*
X10597827Y-13931062D02*
X10588303Y-13912014D01*
X10588303Y-13912014D02*
X10569255Y-13902490D01*
X10569255Y-13902490D02*
X10531160Y-13902490D01*
X10531160Y-13902490D02*
X10512112Y-13912014D01*
X10597827Y-14026300D02*
X10578779Y-14035824D01*
X10578779Y-14035824D02*
X10531160Y-14035824D01*
X10531160Y-14035824D02*
X10512112Y-14026300D01*
X10512112Y-14026300D02*
X10502589Y-14007252D01*
X10502589Y-14007252D02*
X10502589Y-13988205D01*
X10502589Y-13988205D02*
X10512112Y-13969157D01*
X10512112Y-13969157D02*
X10531160Y-13959633D01*
X10531160Y-13959633D02*
X10578779Y-13959633D01*
X10578779Y-13959633D02*
X10597827Y-13950109D01*
X10664493Y-13902490D02*
X10740684Y-13902490D01*
X10693065Y-13835824D02*
X10693065Y-14007252D01*
X10693065Y-14007252D02*
X10702589Y-14026300D01*
X10702589Y-14026300D02*
X10721636Y-14035824D01*
X10721636Y-14035824D02*
X10740684Y-14035824D01*
X10883541Y-14026300D02*
X10864493Y-14035824D01*
X10864493Y-14035824D02*
X10826398Y-14035824D01*
X10826398Y-14035824D02*
X10807351Y-14026300D01*
X10807351Y-14026300D02*
X10797827Y-14007252D01*
X10797827Y-14007252D02*
X10797827Y-13931062D01*
X10797827Y-13931062D02*
X10807351Y-13912014D01*
X10807351Y-13912014D02*
X10826398Y-13902490D01*
X10826398Y-13902490D02*
X10864493Y-13902490D01*
X10864493Y-13902490D02*
X10883541Y-13912014D01*
X10883541Y-13912014D02*
X10893065Y-13931062D01*
X10893065Y-13931062D02*
X10893065Y-13950109D01*
X10893065Y-13950109D02*
X10797827Y-13969157D01*
X11064493Y-14035824D02*
X11064493Y-13835824D01*
X11064493Y-14026300D02*
X11045446Y-14035824D01*
X11045446Y-14035824D02*
X11007351Y-14035824D01*
X11007351Y-14035824D02*
X10988303Y-14026300D01*
X10988303Y-14026300D02*
X10978779Y-14016776D01*
X10978779Y-14016776D02*
X10969255Y-13997728D01*
X10969255Y-13997728D02*
X10969255Y-13940586D01*
X10969255Y-13940586D02*
X10978779Y-13921538D01*
X10978779Y-13921538D02*
X10988303Y-13912014D01*
X10988303Y-13912014D02*
X11007351Y-13902490D01*
X11007351Y-13902490D02*
X11045446Y-13902490D01*
X11045446Y-13902490D02*
X11064493Y-13912014D01*
X11140684Y-14112014D02*
X11150208Y-14102490D01*
X11150208Y-14102490D02*
X11169255Y-14073919D01*
X11169255Y-14073919D02*
X11178779Y-14054871D01*
X11178779Y-14054871D02*
X11188303Y-14026300D01*
X11188303Y-14026300D02*
X11197827Y-13978681D01*
X11197827Y-13978681D02*
X11197827Y-13940586D01*
X11197827Y-13940586D02*
X11188303Y-13892967D01*
X11188303Y-13892967D02*
X11178779Y-13864395D01*
X11178779Y-13864395D02*
X11169255Y-13845348D01*
X11169255Y-13845348D02*
X11150208Y-13816776D01*
X11150208Y-13816776D02*
X11140684Y-13807252D01*
X4207350Y-14233480D02*
G75*
G03*
X4207350Y-14233480I-100000J0D01*
G01*
X4435921Y-14126004D02*
X4559731Y-14126004D01*
X4559731Y-14126004D02*
X4493064Y-14202194D01*
X4493064Y-14202194D02*
X4521636Y-14202194D01*
X4521636Y-14202194D02*
X4540683Y-14211718D01*
X4540683Y-14211718D02*
X4550207Y-14221242D01*
X4550207Y-14221242D02*
X4559731Y-14240289D01*
X4559731Y-14240289D02*
X4559731Y-14287908D01*
X4559731Y-14287908D02*
X4550207Y-14306956D01*
X4550207Y-14306956D02*
X4540683Y-14316480D01*
X4540683Y-14316480D02*
X4521636Y-14326004D01*
X4521636Y-14326004D02*
X4464493Y-14326004D01*
X4464493Y-14326004D02*
X4445445Y-14316480D01*
X4445445Y-14316480D02*
X4435921Y-14306956D01*
X4645445Y-14306956D02*
X4654969Y-14316480D01*
X4654969Y-14316480D02*
X4645445Y-14326004D01*
X4645445Y-14326004D02*
X4635921Y-14316480D01*
X4635921Y-14316480D02*
X4645445Y-14306956D01*
X4645445Y-14306956D02*
X4645445Y-14326004D01*
X4750207Y-14326004D02*
X4788302Y-14326004D01*
X4788302Y-14326004D02*
X4807350Y-14316480D01*
X4807350Y-14316480D02*
X4816874Y-14306956D01*
X4816874Y-14306956D02*
X4835921Y-14278385D01*
X4835921Y-14278385D02*
X4845445Y-14240289D01*
X4845445Y-14240289D02*
X4845445Y-14164099D01*
X4845445Y-14164099D02*
X4835921Y-14145051D01*
X4835921Y-14145051D02*
X4826398Y-14135528D01*
X4826398Y-14135528D02*
X4807350Y-14126004D01*
X4807350Y-14126004D02*
X4769255Y-14126004D01*
X4769255Y-14126004D02*
X4750207Y-14135528D01*
X4750207Y-14135528D02*
X4740683Y-14145051D01*
X4740683Y-14145051D02*
X4731160Y-14164099D01*
X4731160Y-14164099D02*
X4731160Y-14211718D01*
X4731160Y-14211718D02*
X4740683Y-14230766D01*
X4740683Y-14230766D02*
X4750207Y-14240289D01*
X4750207Y-14240289D02*
X4769255Y-14249813D01*
X4769255Y-14249813D02*
X4807350Y-14249813D01*
X4807350Y-14249813D02*
X4826398Y-14240289D01*
X4826398Y-14240289D02*
X4835921Y-14230766D01*
X4835921Y-14230766D02*
X4845445Y-14211718D01*
X4959731Y-14211718D02*
X4940683Y-14202194D01*
X4940683Y-14202194D02*
X4931160Y-14192670D01*
X4931160Y-14192670D02*
X4921636Y-14173623D01*
X4921636Y-14173623D02*
X4921636Y-14164099D01*
X4921636Y-14164099D02*
X4931160Y-14145051D01*
X4931160Y-14145051D02*
X4940683Y-14135528D01*
X4940683Y-14135528D02*
X4959731Y-14126004D01*
X4959731Y-14126004D02*
X4997826Y-14126004D01*
X4997826Y-14126004D02*
X5016874Y-14135528D01*
X5016874Y-14135528D02*
X5026398Y-14145051D01*
X5026398Y-14145051D02*
X5035921Y-14164099D01*
X5035921Y-14164099D02*
X5035921Y-14173623D01*
X5035921Y-14173623D02*
X5026398Y-14192670D01*
X5026398Y-14192670D02*
X5016874Y-14202194D01*
X5016874Y-14202194D02*
X4997826Y-14211718D01*
X4997826Y-14211718D02*
X4959731Y-14211718D01*
X4959731Y-14211718D02*
X4940683Y-14221242D01*
X4940683Y-14221242D02*
X4931160Y-14230766D01*
X4931160Y-14230766D02*
X4921636Y-14249813D01*
X4921636Y-14249813D02*
X4921636Y-14287908D01*
X4921636Y-14287908D02*
X4931160Y-14306956D01*
X4931160Y-14306956D02*
X4940683Y-14316480D01*
X4940683Y-14316480D02*
X4959731Y-14326004D01*
X4959731Y-14326004D02*
X4997826Y-14326004D01*
X4997826Y-14326004D02*
X5016874Y-14316480D01*
X5016874Y-14316480D02*
X5026398Y-14306956D01*
X5026398Y-14306956D02*
X5035921Y-14287908D01*
X5035921Y-14287908D02*
X5035921Y-14249813D01*
X5035921Y-14249813D02*
X5026398Y-14230766D01*
X5026398Y-14230766D02*
X5016874Y-14221242D01*
X5016874Y-14221242D02*
X4997826Y-14211718D01*
X5150207Y-14211718D02*
X5131160Y-14202194D01*
X5131160Y-14202194D02*
X5121636Y-14192670D01*
X5121636Y-14192670D02*
X5112112Y-14173623D01*
X5112112Y-14173623D02*
X5112112Y-14164099D01*
X5112112Y-14164099D02*
X5121636Y-14145051D01*
X5121636Y-14145051D02*
X5131160Y-14135528D01*
X5131160Y-14135528D02*
X5150207Y-14126004D01*
X5150207Y-14126004D02*
X5188302Y-14126004D01*
X5188302Y-14126004D02*
X5207350Y-14135528D01*
X5207350Y-14135528D02*
X5216874Y-14145051D01*
X5216874Y-14145051D02*
X5226398Y-14164099D01*
X5226398Y-14164099D02*
X5226398Y-14173623D01*
X5226398Y-14173623D02*
X5216874Y-14192670D01*
X5216874Y-14192670D02*
X5207350Y-14202194D01*
X5207350Y-14202194D02*
X5188302Y-14211718D01*
X5188302Y-14211718D02*
X5150207Y-14211718D01*
X5150207Y-14211718D02*
X5131160Y-14221242D01*
X5131160Y-14221242D02*
X5121636Y-14230766D01*
X5121636Y-14230766D02*
X5112112Y-14249813D01*
X5112112Y-14249813D02*
X5112112Y-14287908D01*
X5112112Y-14287908D02*
X5121636Y-14306956D01*
X5121636Y-14306956D02*
X5131160Y-14316480D01*
X5131160Y-14316480D02*
X5150207Y-14326004D01*
X5150207Y-14326004D02*
X5188302Y-14326004D01*
X5188302Y-14326004D02*
X5207350Y-14316480D01*
X5207350Y-14316480D02*
X5216874Y-14306956D01*
X5216874Y-14306956D02*
X5226398Y-14287908D01*
X5226398Y-14287908D02*
X5226398Y-14249813D01*
X5226398Y-14249813D02*
X5216874Y-14230766D01*
X5216874Y-14230766D02*
X5207350Y-14221242D01*
X5207350Y-14221242D02*
X5188302Y-14211718D01*
X5312112Y-14326004D02*
X5312112Y-14192670D01*
X5312112Y-14211718D02*
X5321636Y-14202194D01*
X5321636Y-14202194D02*
X5340683Y-14192670D01*
X5340683Y-14192670D02*
X5369255Y-14192670D01*
X5369255Y-14192670D02*
X5388302Y-14202194D01*
X5388302Y-14202194D02*
X5397826Y-14221242D01*
X5397826Y-14221242D02*
X5397826Y-14326004D01*
X5397826Y-14221242D02*
X5407350Y-14202194D01*
X5407350Y-14202194D02*
X5426398Y-14192670D01*
X5426398Y-14192670D02*
X5454969Y-14192670D01*
X5454969Y-14192670D02*
X5474017Y-14202194D01*
X5474017Y-14202194D02*
X5483541Y-14221242D01*
X5483541Y-14221242D02*
X5483541Y-14326004D01*
X5578779Y-14326004D02*
X5578779Y-14192670D01*
X5578779Y-14211718D02*
X5588302Y-14202194D01*
X5588302Y-14202194D02*
X5607350Y-14192670D01*
X5607350Y-14192670D02*
X5635921Y-14192670D01*
X5635921Y-14192670D02*
X5654969Y-14202194D01*
X5654969Y-14202194D02*
X5664493Y-14221242D01*
X5664493Y-14221242D02*
X5664493Y-14326004D01*
X5664493Y-14221242D02*
X5674017Y-14202194D01*
X5674017Y-14202194D02*
X5693064Y-14192670D01*
X5693064Y-14192670D02*
X5721636Y-14192670D01*
X5721636Y-14192670D02*
X5740683Y-14202194D01*
X5740683Y-14202194D02*
X5750207Y-14221242D01*
X5750207Y-14221242D02*
X5750207Y-14326004D01*
X6140683Y-14116480D02*
X5969255Y-14373623D01*
X6397826Y-14126004D02*
X6416874Y-14126004D01*
X6416874Y-14126004D02*
X6435922Y-14135528D01*
X6435922Y-14135528D02*
X6445445Y-14145051D01*
X6445445Y-14145051D02*
X6454969Y-14164099D01*
X6454969Y-14164099D02*
X6464493Y-14202194D01*
X6464493Y-14202194D02*
X6464493Y-14249813D01*
X6464493Y-14249813D02*
X6454969Y-14287908D01*
X6454969Y-14287908D02*
X6445445Y-14306956D01*
X6445445Y-14306956D02*
X6435922Y-14316480D01*
X6435922Y-14316480D02*
X6416874Y-14326004D01*
X6416874Y-14326004D02*
X6397826Y-14326004D01*
X6397826Y-14326004D02*
X6378779Y-14316480D01*
X6378779Y-14316480D02*
X6369255Y-14306956D01*
X6369255Y-14306956D02*
X6359731Y-14287908D01*
X6359731Y-14287908D02*
X6350207Y-14249813D01*
X6350207Y-14249813D02*
X6350207Y-14202194D01*
X6350207Y-14202194D02*
X6359731Y-14164099D01*
X6359731Y-14164099D02*
X6369255Y-14145051D01*
X6369255Y-14145051D02*
X6378779Y-14135528D01*
X6378779Y-14135528D02*
X6397826Y-14126004D01*
X6550207Y-14306956D02*
X6559731Y-14316480D01*
X6559731Y-14316480D02*
X6550207Y-14326004D01*
X6550207Y-14326004D02*
X6540683Y-14316480D01*
X6540683Y-14316480D02*
X6550207Y-14306956D01*
X6550207Y-14306956D02*
X6550207Y-14326004D01*
X6750207Y-14326004D02*
X6635922Y-14326004D01*
X6693064Y-14326004D02*
X6693064Y-14126004D01*
X6693064Y-14126004D02*
X6674017Y-14154575D01*
X6674017Y-14154575D02*
X6654969Y-14173623D01*
X6654969Y-14173623D02*
X6635922Y-14183147D01*
X6931160Y-14126004D02*
X6835922Y-14126004D01*
X6835922Y-14126004D02*
X6826398Y-14221242D01*
X6826398Y-14221242D02*
X6835922Y-14211718D01*
X6835922Y-14211718D02*
X6854969Y-14202194D01*
X6854969Y-14202194D02*
X6902588Y-14202194D01*
X6902588Y-14202194D02*
X6921636Y-14211718D01*
X6921636Y-14211718D02*
X6931160Y-14221242D01*
X6931160Y-14221242D02*
X6940683Y-14240289D01*
X6940683Y-14240289D02*
X6940683Y-14287908D01*
X6940683Y-14287908D02*
X6931160Y-14306956D01*
X6931160Y-14306956D02*
X6921636Y-14316480D01*
X6921636Y-14316480D02*
X6902588Y-14326004D01*
X6902588Y-14326004D02*
X6854969Y-14326004D01*
X6854969Y-14326004D02*
X6835922Y-14316480D01*
X6835922Y-14316480D02*
X6826398Y-14306956D01*
X7007350Y-14126004D02*
X7140683Y-14126004D01*
X7140683Y-14126004D02*
X7054969Y-14326004D01*
X7254969Y-14126004D02*
X7274017Y-14126004D01*
X7274017Y-14126004D02*
X7293064Y-14135528D01*
X7293064Y-14135528D02*
X7302588Y-14145051D01*
X7302588Y-14145051D02*
X7312112Y-14164099D01*
X7312112Y-14164099D02*
X7321636Y-14202194D01*
X7321636Y-14202194D02*
X7321636Y-14249813D01*
X7321636Y-14249813D02*
X7312112Y-14287908D01*
X7312112Y-14287908D02*
X7302588Y-14306956D01*
X7302588Y-14306956D02*
X7293064Y-14316480D01*
X7293064Y-14316480D02*
X7274017Y-14326004D01*
X7274017Y-14326004D02*
X7254969Y-14326004D01*
X7254969Y-14326004D02*
X7235922Y-14316480D01*
X7235922Y-14316480D02*
X7226398Y-14306956D01*
X7226398Y-14306956D02*
X7216874Y-14287908D01*
X7216874Y-14287908D02*
X7207350Y-14249813D01*
X7207350Y-14249813D02*
X7207350Y-14202194D01*
X7207350Y-14202194D02*
X7216874Y-14164099D01*
X7216874Y-14164099D02*
X7226398Y-14145051D01*
X7226398Y-14145051D02*
X7235922Y-14135528D01*
X7235922Y-14135528D02*
X7254969Y-14126004D01*
X7397826Y-14126004D02*
X7397826Y-14164099D01*
X7474017Y-14126004D02*
X7474017Y-14164099D01*
X7769255Y-14402194D02*
X7759731Y-14392670D01*
X7759731Y-14392670D02*
X7740684Y-14364099D01*
X7740684Y-14364099D02*
X7731160Y-14345051D01*
X7731160Y-14345051D02*
X7721636Y-14316480D01*
X7721636Y-14316480D02*
X7712112Y-14268861D01*
X7712112Y-14268861D02*
X7712112Y-14230766D01*
X7712112Y-14230766D02*
X7721636Y-14183147D01*
X7721636Y-14183147D02*
X7731160Y-14154575D01*
X7731160Y-14154575D02*
X7740684Y-14135528D01*
X7740684Y-14135528D02*
X7759731Y-14106956D01*
X7759731Y-14106956D02*
X7769255Y-14097432D01*
X7874017Y-14211718D02*
X7854969Y-14202194D01*
X7854969Y-14202194D02*
X7845445Y-14192670D01*
X7845445Y-14192670D02*
X7835922Y-14173623D01*
X7835922Y-14173623D02*
X7835922Y-14164099D01*
X7835922Y-14164099D02*
X7845445Y-14145051D01*
X7845445Y-14145051D02*
X7854969Y-14135528D01*
X7854969Y-14135528D02*
X7874017Y-14126004D01*
X7874017Y-14126004D02*
X7912112Y-14126004D01*
X7912112Y-14126004D02*
X7931160Y-14135528D01*
X7931160Y-14135528D02*
X7940684Y-14145051D01*
X7940684Y-14145051D02*
X7950207Y-14164099D01*
X7950207Y-14164099D02*
X7950207Y-14173623D01*
X7950207Y-14173623D02*
X7940684Y-14192670D01*
X7940684Y-14192670D02*
X7931160Y-14202194D01*
X7931160Y-14202194D02*
X7912112Y-14211718D01*
X7912112Y-14211718D02*
X7874017Y-14211718D01*
X7874017Y-14211718D02*
X7854969Y-14221242D01*
X7854969Y-14221242D02*
X7845445Y-14230766D01*
X7845445Y-14230766D02*
X7835922Y-14249813D01*
X7835922Y-14249813D02*
X7835922Y-14287908D01*
X7835922Y-14287908D02*
X7845445Y-14306956D01*
X7845445Y-14306956D02*
X7854969Y-14316480D01*
X7854969Y-14316480D02*
X7874017Y-14326004D01*
X7874017Y-14326004D02*
X7912112Y-14326004D01*
X7912112Y-14326004D02*
X7931160Y-14316480D01*
X7931160Y-14316480D02*
X7940684Y-14306956D01*
X7940684Y-14306956D02*
X7950207Y-14287908D01*
X7950207Y-14287908D02*
X7950207Y-14249813D01*
X7950207Y-14249813D02*
X7940684Y-14230766D01*
X7940684Y-14230766D02*
X7931160Y-14221242D01*
X7931160Y-14221242D02*
X7912112Y-14211718D01*
X8188303Y-14326004D02*
X8188303Y-14126004D01*
X8274017Y-14326004D02*
X8274017Y-14221242D01*
X8274017Y-14221242D02*
X8264493Y-14202194D01*
X8264493Y-14202194D02*
X8245446Y-14192670D01*
X8245446Y-14192670D02*
X8216874Y-14192670D01*
X8216874Y-14192670D02*
X8197826Y-14202194D01*
X8197826Y-14202194D02*
X8188303Y-14211718D01*
X8397827Y-14326004D02*
X8378779Y-14316480D01*
X8378779Y-14316480D02*
X8369255Y-14306956D01*
X8369255Y-14306956D02*
X8359731Y-14287908D01*
X8359731Y-14287908D02*
X8359731Y-14230766D01*
X8359731Y-14230766D02*
X8369255Y-14211718D01*
X8369255Y-14211718D02*
X8378779Y-14202194D01*
X8378779Y-14202194D02*
X8397827Y-14192670D01*
X8397827Y-14192670D02*
X8426398Y-14192670D01*
X8426398Y-14192670D02*
X8445446Y-14202194D01*
X8445446Y-14202194D02*
X8454969Y-14211718D01*
X8454969Y-14211718D02*
X8464493Y-14230766D01*
X8464493Y-14230766D02*
X8464493Y-14287908D01*
X8464493Y-14287908D02*
X8454969Y-14306956D01*
X8454969Y-14306956D02*
X8445446Y-14316480D01*
X8445446Y-14316480D02*
X8426398Y-14326004D01*
X8426398Y-14326004D02*
X8397827Y-14326004D01*
X8578779Y-14326004D02*
X8559731Y-14316480D01*
X8559731Y-14316480D02*
X8550208Y-14297432D01*
X8550208Y-14297432D02*
X8550208Y-14126004D01*
X8731160Y-14316480D02*
X8712112Y-14326004D01*
X8712112Y-14326004D02*
X8674017Y-14326004D01*
X8674017Y-14326004D02*
X8654969Y-14316480D01*
X8654969Y-14316480D02*
X8645446Y-14297432D01*
X8645446Y-14297432D02*
X8645446Y-14221242D01*
X8645446Y-14221242D02*
X8654969Y-14202194D01*
X8654969Y-14202194D02*
X8674017Y-14192670D01*
X8674017Y-14192670D02*
X8712112Y-14192670D01*
X8712112Y-14192670D02*
X8731160Y-14202194D01*
X8731160Y-14202194D02*
X8740684Y-14221242D01*
X8740684Y-14221242D02*
X8740684Y-14240289D01*
X8740684Y-14240289D02*
X8645446Y-14259337D01*
X8816874Y-14316480D02*
X8835922Y-14326004D01*
X8835922Y-14326004D02*
X8874017Y-14326004D01*
X8874017Y-14326004D02*
X8893065Y-14316480D01*
X8893065Y-14316480D02*
X8902589Y-14297432D01*
X8902589Y-14297432D02*
X8902589Y-14287908D01*
X8902589Y-14287908D02*
X8893065Y-14268861D01*
X8893065Y-14268861D02*
X8874017Y-14259337D01*
X8874017Y-14259337D02*
X8845446Y-14259337D01*
X8845446Y-14259337D02*
X8826398Y-14249813D01*
X8826398Y-14249813D02*
X8816874Y-14230766D01*
X8816874Y-14230766D02*
X8816874Y-14221242D01*
X8816874Y-14221242D02*
X8826398Y-14202194D01*
X8826398Y-14202194D02*
X8845446Y-14192670D01*
X8845446Y-14192670D02*
X8874017Y-14192670D01*
X8874017Y-14192670D02*
X8893065Y-14202194D01*
X8969255Y-14402194D02*
X8978779Y-14392670D01*
X8978779Y-14392670D02*
X8997827Y-14364099D01*
X8997827Y-14364099D02*
X9007350Y-14345051D01*
X9007350Y-14345051D02*
X9016874Y-14316480D01*
X9016874Y-14316480D02*
X9026398Y-14268861D01*
X9026398Y-14268861D02*
X9026398Y-14230766D01*
X9026398Y-14230766D02*
X9016874Y-14183147D01*
X9016874Y-14183147D02*
X9007350Y-14154575D01*
X9007350Y-14154575D02*
X8997827Y-14135528D01*
X8997827Y-14135528D02*
X8978779Y-14106956D01*
X8978779Y-14106956D02*
X8969255Y-14097432D01*
X9331160Y-14402194D02*
X9321636Y-14392670D01*
X9321636Y-14392670D02*
X9302589Y-14364099D01*
X9302589Y-14364099D02*
X9293065Y-14345051D01*
X9293065Y-14345051D02*
X9283541Y-14316480D01*
X9283541Y-14316480D02*
X9274017Y-14268861D01*
X9274017Y-14268861D02*
X9274017Y-14230766D01*
X9274017Y-14230766D02*
X9283541Y-14183147D01*
X9283541Y-14183147D02*
X9293065Y-14154575D01*
X9293065Y-14154575D02*
X9302589Y-14135528D01*
X9302589Y-14135528D02*
X9321636Y-14106956D01*
X9321636Y-14106956D02*
X9331160Y-14097432D01*
X9407350Y-14192670D02*
X9407350Y-14326004D01*
X9407350Y-14211718D02*
X9416874Y-14202194D01*
X9416874Y-14202194D02*
X9435922Y-14192670D01*
X9435922Y-14192670D02*
X9464493Y-14192670D01*
X9464493Y-14192670D02*
X9483541Y-14202194D01*
X9483541Y-14202194D02*
X9493065Y-14221242D01*
X9493065Y-14221242D02*
X9493065Y-14326004D01*
X9616874Y-14326004D02*
X9597827Y-14316480D01*
X9597827Y-14316480D02*
X9588303Y-14306956D01*
X9588303Y-14306956D02*
X9578779Y-14287908D01*
X9578779Y-14287908D02*
X9578779Y-14230766D01*
X9578779Y-14230766D02*
X9588303Y-14211718D01*
X9588303Y-14211718D02*
X9597827Y-14202194D01*
X9597827Y-14202194D02*
X9616874Y-14192670D01*
X9616874Y-14192670D02*
X9645446Y-14192670D01*
X9645446Y-14192670D02*
X9664493Y-14202194D01*
X9664493Y-14202194D02*
X9674017Y-14211718D01*
X9674017Y-14211718D02*
X9683541Y-14230766D01*
X9683541Y-14230766D02*
X9683541Y-14287908D01*
X9683541Y-14287908D02*
X9674017Y-14306956D01*
X9674017Y-14306956D02*
X9664493Y-14316480D01*
X9664493Y-14316480D02*
X9645446Y-14326004D01*
X9645446Y-14326004D02*
X9616874Y-14326004D01*
X9740684Y-14192670D02*
X9816874Y-14192670D01*
X9769255Y-14126004D02*
X9769255Y-14297432D01*
X9769255Y-14297432D02*
X9778779Y-14316480D01*
X9778779Y-14316480D02*
X9797827Y-14326004D01*
X9797827Y-14326004D02*
X9816874Y-14326004D01*
X10035922Y-14192670D02*
X10035922Y-14392670D01*
X10035922Y-14202194D02*
X10054970Y-14192670D01*
X10054970Y-14192670D02*
X10093065Y-14192670D01*
X10093065Y-14192670D02*
X10112112Y-14202194D01*
X10112112Y-14202194D02*
X10121636Y-14211718D01*
X10121636Y-14211718D02*
X10131160Y-14230766D01*
X10131160Y-14230766D02*
X10131160Y-14287908D01*
X10131160Y-14287908D02*
X10121636Y-14306956D01*
X10121636Y-14306956D02*
X10112112Y-14316480D01*
X10112112Y-14316480D02*
X10093065Y-14326004D01*
X10093065Y-14326004D02*
X10054970Y-14326004D01*
X10054970Y-14326004D02*
X10035922Y-14316480D01*
X10245446Y-14326004D02*
X10226398Y-14316480D01*
X10226398Y-14316480D02*
X10216874Y-14297432D01*
X10216874Y-14297432D02*
X10216874Y-14126004D01*
X10407351Y-14326004D02*
X10407351Y-14221242D01*
X10407351Y-14221242D02*
X10397827Y-14202194D01*
X10397827Y-14202194D02*
X10378779Y-14192670D01*
X10378779Y-14192670D02*
X10340684Y-14192670D01*
X10340684Y-14192670D02*
X10321636Y-14202194D01*
X10407351Y-14316480D02*
X10388303Y-14326004D01*
X10388303Y-14326004D02*
X10340684Y-14326004D01*
X10340684Y-14326004D02*
X10321636Y-14316480D01*
X10321636Y-14316480D02*
X10312112Y-14297432D01*
X10312112Y-14297432D02*
X10312112Y-14278385D01*
X10312112Y-14278385D02*
X10321636Y-14259337D01*
X10321636Y-14259337D02*
X10340684Y-14249813D01*
X10340684Y-14249813D02*
X10388303Y-14249813D01*
X10388303Y-14249813D02*
X10407351Y-14240289D01*
X10474017Y-14192670D02*
X10550208Y-14192670D01*
X10502589Y-14126004D02*
X10502589Y-14297432D01*
X10502589Y-14297432D02*
X10512112Y-14316480D01*
X10512112Y-14316480D02*
X10531160Y-14326004D01*
X10531160Y-14326004D02*
X10550208Y-14326004D01*
X10693065Y-14316480D02*
X10674017Y-14326004D01*
X10674017Y-14326004D02*
X10635922Y-14326004D01*
X10635922Y-14326004D02*
X10616874Y-14316480D01*
X10616874Y-14316480D02*
X10607351Y-14297432D01*
X10607351Y-14297432D02*
X10607351Y-14221242D01*
X10607351Y-14221242D02*
X10616874Y-14202194D01*
X10616874Y-14202194D02*
X10635922Y-14192670D01*
X10635922Y-14192670D02*
X10674017Y-14192670D01*
X10674017Y-14192670D02*
X10693065Y-14202194D01*
X10693065Y-14202194D02*
X10702589Y-14221242D01*
X10702589Y-14221242D02*
X10702589Y-14240289D01*
X10702589Y-14240289D02*
X10607351Y-14259337D01*
X10874017Y-14326004D02*
X10874017Y-14126004D01*
X10874017Y-14316480D02*
X10854970Y-14326004D01*
X10854970Y-14326004D02*
X10816874Y-14326004D01*
X10816874Y-14326004D02*
X10797827Y-14316480D01*
X10797827Y-14316480D02*
X10788303Y-14306956D01*
X10788303Y-14306956D02*
X10778779Y-14287908D01*
X10778779Y-14287908D02*
X10778779Y-14230766D01*
X10778779Y-14230766D02*
X10788303Y-14211718D01*
X10788303Y-14211718D02*
X10797827Y-14202194D01*
X10797827Y-14202194D02*
X10816874Y-14192670D01*
X10816874Y-14192670D02*
X10854970Y-14192670D01*
X10854970Y-14192670D02*
X10874017Y-14202194D01*
X10950208Y-14402194D02*
X10959732Y-14392670D01*
X10959732Y-14392670D02*
X10978779Y-14364099D01*
X10978779Y-14364099D02*
X10988303Y-14345051D01*
X10988303Y-14345051D02*
X10997827Y-14316480D01*
X10997827Y-14316480D02*
X11007351Y-14268861D01*
X11007351Y-14268861D02*
X11007351Y-14230766D01*
X11007351Y-14230766D02*
X10997827Y-14183147D01*
X10997827Y-14183147D02*
X10988303Y-14154575D01*
X10988303Y-14154575D02*
X10978779Y-14135528D01*
X10978779Y-14135528D02*
X10959732Y-14106956D01*
X10959732Y-14106956D02*
X10950208Y-14097432D01*
M02*
