M48
; DRILL file {KiCad 7.0.2} date Wed Oct 25 06:34:27 2023
; FORMAT={-:-/ absolute / metric / decimal}
; #@! TF.CreationDate,2023-10-25T06:34:27-04:00
; #@! TF.GenerationSoftware,Kicad,Pcbnew,7.0.2
; #@! TF.FileFunction,Plated,1,2,PTH
FMAT,2
METRIC
; #@! TA.AperFunction,Plated,PTH,ViaDrill
T1C0.400
; #@! TA.AperFunction,Plated,PTH,ComponentDrill
T2C0.760
; #@! TA.AperFunction,Plated,PTH,ComponentDrill
T3C0.800
; #@! TA.AperFunction,Plated,PTH,ComponentDrill
T4C1.000
; #@! TA.AperFunction,Plated,PTH,ComponentDrill
T5C1.397
; #@! TA.AperFunction,Plated,PTH,ComponentDrill
T6C1.575
%
G90
G05
T1
X71.113Y-125.868
X88.096Y-125.868
T2
X71.109Y-92.398
X71.109Y-94.938
X71.109Y-97.478
X71.109Y-100.018
X71.109Y-102.558
X71.109Y-105.098
X71.109Y-107.638
X71.109Y-110.178
X71.109Y-112.718
X71.109Y-115.258
X71.109Y-117.798
X71.109Y-120.338
X86.529Y-92.398
X86.529Y-94.938
X86.529Y-97.478
X86.529Y-100.018
X86.529Y-102.558
X86.529Y-105.098
X86.529Y-107.638
X86.529Y-110.178
X86.529Y-112.718
X86.529Y-115.258
X86.529Y-117.798
X86.529Y-120.338
T3
X70.812Y-24.387
X70.812Y-26.927
X70.812Y-29.467
X70.812Y-32.007
X70.812Y-34.547
X70.812Y-37.087
X70.812Y-39.627
X70.812Y-42.167
X70.812Y-44.707
X70.812Y-47.247
X70.812Y-49.787
X70.812Y-52.327
X86.052Y-24.387
X86.052Y-26.927
X86.052Y-29.467
X86.052Y-32.007
X86.052Y-34.547
X86.052Y-37.087
X86.052Y-39.627
X86.052Y-42.167
X86.052Y-44.707
X86.052Y-47.247
X86.052Y-49.787
X86.052Y-52.327
T4
X45.058Y-33.597
X45.058Y-36.137
X45.058Y-38.677
X45.058Y-41.217
X45.058Y-59.447
X45.058Y-61.987
X45.058Y-64.527
X45.058Y-67.067
X45.058Y-85.297
X45.058Y-87.837
X45.058Y-90.377
X45.058Y-92.917
X45.058Y-111.147
X45.058Y-113.687
X45.058Y-116.227
X45.058Y-118.767
X112.378Y-33.933
X112.378Y-36.473
X112.378Y-39.013
X112.378Y-41.553
X112.378Y-59.783
X112.378Y-62.323
X112.378Y-64.863
X112.378Y-67.403
X112.378Y-85.633
X112.378Y-88.173
X112.378Y-90.713
X112.378Y-93.253
X112.378Y-111.483
X112.378Y-114.023
X112.378Y-116.563
X112.378Y-119.103
T5
X52.091Y-37.512
X52.091Y-63.362
X52.091Y-89.212
X52.091Y-115.062
X60.092Y-37.512
X60.092Y-63.362
X60.092Y-89.212
X60.092Y-115.062
X97.091Y-37.512
X97.091Y-63.362
X97.091Y-89.212
X97.091Y-115.062
X105.092Y-37.512
X105.092Y-63.362
X105.092Y-89.212
X105.092Y-115.062
T6
X58.428Y-33.702
X58.428Y-59.552
X58.428Y-85.402
X58.428Y-111.252
X60.968Y-40.052
X60.968Y-65.902
X60.968Y-91.752
X60.968Y-117.602
X103.428Y-33.702
X103.428Y-59.552
X103.428Y-85.402
X103.428Y-111.252
X105.968Y-40.052
X105.968Y-65.902
X105.968Y-91.752
X105.968Y-117.602
T0
M30
