G04 #@! TF.GenerationSoftware,KiCad,Pcbnew,7.0.2*
G04 #@! TF.CreationDate,2023-10-25T06:33:52-04:00*
G04 #@! TF.ProjectId,MacroPad Base,4d616372-6f50-4616-9420-426173652e6b,rev?*
G04 #@! TF.SameCoordinates,Original*
G04 #@! TF.FileFunction,Soldermask,Bot*
G04 #@! TF.FilePolarity,Negative*
%FSLAX46Y46*%
G04 Gerber Fmt 4.6, Leading zero omitted, Abs format (unit mm)*
G04 Created by KiCad (PCBNEW 7.0.2) date 2023-10-25 06:33:52*
%MOMM*%
%LPD*%
G01*
G04 APERTURE LIST*
G04 Aperture macros list*
%AMFreePoly0*
4,1,42,0.305846,1.074936,0.498157,1.000434,0.673504,0.891864,0.825916,0.752922,0.950203,0.588341,1.017866,0.452453,2.579378,1.070874,2.641060,1.074761,2.693245,1.041650,2.716002,0.984188,2.700638,0.924325,2.653021,0.884926,1.082219,0.262826,1.098571,0.205358,1.117600,0.000000,1.098571,-0.205358,1.042131,-0.403724,0.950203,-0.588341,0.825916,-0.752922,0.673504,-0.891864,
0.498157,-1.000434,0.305846,-1.074936,0.103119,-1.112833,-0.103119,-1.112833,-0.305846,-1.074936,-0.498157,-1.000434,-0.673504,-0.891864,-0.825916,-0.752922,-0.950203,-0.588341,-1.042131,-0.403724,-1.098571,-0.205358,-1.117600,0.000000,-1.098571,0.205358,-1.042131,0.403724,-0.950203,0.588341,-0.825916,0.752922,-0.673504,0.891864,-0.498157,1.000434,-0.305846,1.074936,-0.103119,1.112833,
0.103119,1.112833,0.305846,1.074936,0.305846,1.074936,$1*%
%AMFreePoly1*
4,1,50,0.305846,1.074936,0.498157,1.000434,0.673504,0.891864,0.825916,0.752922,0.950203,0.588341,1.042131,0.403724,1.098571,0.205358,1.117600,0.000000,1.098571,-0.205358,1.042131,-0.403724,0.950203,-0.588341,0.825916,-0.752922,0.673504,-0.891864,0.498157,-1.000434,0.354352,-1.056144,1.029360,-3.956856,3.897994,-6.259313,3.931880,-6.311000,3.928913,-6.372732,3.890227,-6.420930,
3.830599,-6.437185,3.772805,-6.415287,0.877205,-4.091187,0.876130,-4.089547,0.874325,-4.088785,0.859283,-4.063850,0.843320,-4.039500,0.843414,-4.037542,0.842402,-4.035865,0.159736,-1.102249,0.103119,-1.112833,-0.103119,-1.112833,-0.305846,-1.074936,-0.498157,-1.000434,-0.673504,-0.891864,-0.825916,-0.752922,-0.950203,-0.588341,-1.042131,-0.403724,-1.098571,-0.205358,-1.117600,0.000000,
-1.098571,0.205358,-1.042131,0.403724,-0.950203,0.588341,-0.825916,0.752922,-0.673504,0.891864,-0.498157,1.000434,-0.305846,1.074936,-0.103119,1.112833,0.103119,1.112833,0.305846,1.074936,0.305846,1.074936,$1*%
G04 Aperture macros list end*
%ADD10C,1.701800*%
%ADD11C,3.987800*%
%ADD12FreePoly0,270.000000*%
%ADD13C,2.235200*%
%ADD14FreePoly1,270.000000*%
%ADD15R,1.700000X1.700000*%
%ADD16O,1.700000X1.700000*%
%ADD17R,1.160000X1.160000*%
%ADD18C,1.160000*%
%ADD19R,1.600000X1.600000*%
%ADD20O,1.600000X1.600000*%
G04 APERTURE END LIST*
D10*
X100888000Y-84132000D03*
D11*
X100888000Y-89212000D03*
D10*
X100888000Y-94292000D03*
D12*
X105091700Y-89212000D03*
D13*
X105968000Y-91752000D03*
D14*
X103428000Y-85402000D03*
D13*
X97090700Y-89212000D03*
D15*
X112378000Y-111483000D03*
D16*
X112378000Y-114023000D03*
X112378000Y-116563000D03*
X112378000Y-119103000D03*
D15*
X45058000Y-111147000D03*
D16*
X45058000Y-113687000D03*
X45058000Y-116227000D03*
X45058000Y-118767000D03*
D10*
X55888000Y-58282000D03*
D11*
X55888000Y-63362000D03*
D10*
X55888000Y-68442000D03*
D12*
X60091700Y-63362000D03*
D13*
X60968000Y-65902000D03*
D14*
X58428000Y-59552000D03*
D13*
X52090700Y-63362000D03*
D15*
X112378000Y-59783000D03*
D16*
X112378000Y-62323000D03*
X112378000Y-64863000D03*
X112378000Y-67403000D03*
D10*
X100888000Y-32432000D03*
D11*
X100888000Y-37512000D03*
D10*
X100888000Y-42592000D03*
D12*
X105091700Y-37512000D03*
D13*
X105968000Y-40052000D03*
D14*
X103428000Y-33702000D03*
D13*
X97090700Y-37512000D03*
D15*
X45058000Y-33597000D03*
D16*
X45058000Y-36137000D03*
X45058000Y-38677000D03*
X45058000Y-41217000D03*
D10*
X55888000Y-109982000D03*
D11*
X55888000Y-115062000D03*
D10*
X55888000Y-120142000D03*
D12*
X60091700Y-115062000D03*
D13*
X60968000Y-117602000D03*
D14*
X58428000Y-111252000D03*
D13*
X52090700Y-115062000D03*
D17*
X71109000Y-92398000D03*
D18*
X71109000Y-94938000D03*
X71109000Y-97478000D03*
X71109000Y-100018000D03*
X71109000Y-102558000D03*
X71109000Y-105098000D03*
X71109000Y-107638000D03*
X71109000Y-110178000D03*
X71109000Y-112718000D03*
X71109000Y-115258000D03*
X71109000Y-117798000D03*
X71109000Y-120338000D03*
X86529000Y-120338000D03*
X86529000Y-117798000D03*
X86529000Y-115258000D03*
X86529000Y-112718000D03*
X86529000Y-110178000D03*
X86529000Y-107638000D03*
X86529000Y-105098000D03*
X86529000Y-102558000D03*
X86529000Y-100018000D03*
X86529000Y-97478000D03*
X86529000Y-94938000D03*
X86529000Y-92398000D03*
D10*
X100888000Y-58282000D03*
D11*
X100888000Y-63362000D03*
D10*
X100888000Y-68442000D03*
D12*
X105091700Y-63362000D03*
D13*
X105968000Y-65902000D03*
D14*
X103428000Y-59552000D03*
D13*
X97090700Y-63362000D03*
D15*
X45058000Y-85297000D03*
D16*
X45058000Y-87837000D03*
X45058000Y-90377000D03*
X45058000Y-92917000D03*
D15*
X112378000Y-85633000D03*
D16*
X112378000Y-88173000D03*
X112378000Y-90713000D03*
X112378000Y-93253000D03*
D15*
X112378000Y-33933000D03*
D16*
X112378000Y-36473000D03*
X112378000Y-39013000D03*
X112378000Y-41553000D03*
D19*
X70812000Y-24387000D03*
D20*
X70812000Y-26927000D03*
X70812000Y-29467000D03*
X70812000Y-32007000D03*
X70812000Y-34547000D03*
X70812000Y-37087000D03*
X70812000Y-39627000D03*
X70812000Y-42167000D03*
X70812000Y-44707000D03*
X70812000Y-47247000D03*
X70812000Y-49787000D03*
X70812000Y-52327000D03*
X86052000Y-52327000D03*
X86052000Y-49787000D03*
X86052000Y-47247000D03*
X86052000Y-44707000D03*
X86052000Y-42167000D03*
X86052000Y-39627000D03*
X86052000Y-37087000D03*
X86052000Y-34547000D03*
X86052000Y-32007000D03*
X86052000Y-29467000D03*
X86052000Y-26927000D03*
X86052000Y-24387000D03*
D10*
X55888000Y-84132000D03*
D11*
X55888000Y-89212000D03*
D10*
X55888000Y-94292000D03*
D12*
X60091700Y-89212000D03*
D13*
X60968000Y-91752000D03*
D14*
X58428000Y-85402000D03*
D13*
X52090700Y-89212000D03*
D10*
X55888000Y-32432000D03*
D11*
X55888000Y-37512000D03*
D10*
X55888000Y-42592000D03*
D12*
X60091700Y-37512000D03*
D13*
X60968000Y-40052000D03*
D14*
X58428000Y-33702000D03*
D13*
X52090700Y-37512000D03*
D10*
X100888000Y-109982000D03*
D11*
X100888000Y-115062000D03*
D10*
X100888000Y-120142000D03*
D12*
X105091700Y-115062000D03*
D13*
X105968000Y-117602000D03*
D14*
X103428000Y-111252000D03*
D13*
X97090700Y-115062000D03*
D15*
X45058000Y-59447000D03*
D16*
X45058000Y-61987000D03*
X45058000Y-64527000D03*
X45058000Y-67067000D03*
M02*
