G04 #@! TF.GenerationSoftware,KiCad,Pcbnew,7.0.2*
G04 #@! TF.CreationDate,2023-10-25T06:33:51-04:00*
G04 #@! TF.ProjectId,MacroPad Base,4d616372-6f50-4616-9420-426173652e6b,rev?*
G04 #@! TF.SameCoordinates,Original*
G04 #@! TF.FileFunction,Legend,Top*
G04 #@! TF.FilePolarity,Positive*
%FSLAX46Y46*%
G04 Gerber Fmt 4.6, Leading zero omitted, Abs format (unit mm)*
G04 Created by KiCad (PCBNEW 7.0.2) date 2023-10-25 06:33:51*
%MOMM*%
%LPD*%
G01*
G04 APERTURE LIST*
G04 Aperture macros list*
%AMFreePoly0*
4,1,42,0.305846,1.074936,0.498157,1.000434,0.673504,0.891864,0.825916,0.752922,0.950203,0.588341,1.017866,0.452453,2.579378,1.070874,2.641060,1.074761,2.693245,1.041650,2.716002,0.984188,2.700638,0.924325,2.653021,0.884926,1.082219,0.262826,1.098571,0.205358,1.117600,0.000000,1.098571,-0.205358,1.042131,-0.403724,0.950203,-0.588341,0.825916,-0.752922,0.673504,-0.891864,
0.498157,-1.000434,0.305846,-1.074936,0.103119,-1.112833,-0.103119,-1.112833,-0.305846,-1.074936,-0.498157,-1.000434,-0.673504,-0.891864,-0.825916,-0.752922,-0.950203,-0.588341,-1.042131,-0.403724,-1.098571,-0.205358,-1.117600,0.000000,-1.098571,0.205358,-1.042131,0.403724,-0.950203,0.588341,-0.825916,0.752922,-0.673504,0.891864,-0.498157,1.000434,-0.305846,1.074936,-0.103119,1.112833,
0.103119,1.112833,0.305846,1.074936,0.305846,1.074936,$1*%
%AMFreePoly1*
4,1,50,0.305846,1.074936,0.498157,1.000434,0.673504,0.891864,0.825916,0.752922,0.950203,0.588341,1.042131,0.403724,1.098571,0.205358,1.117600,0.000000,1.098571,-0.205358,1.042131,-0.403724,0.950203,-0.588341,0.825916,-0.752922,0.673504,-0.891864,0.498157,-1.000434,0.354352,-1.056144,1.029360,-3.956856,3.897994,-6.259313,3.931880,-6.311000,3.928913,-6.372732,3.890227,-6.420930,
3.830599,-6.437185,3.772805,-6.415287,0.877205,-4.091187,0.876130,-4.089547,0.874325,-4.088785,0.859283,-4.063850,0.843320,-4.039500,0.843414,-4.037542,0.842402,-4.035865,0.159736,-1.102249,0.103119,-1.112833,-0.103119,-1.112833,-0.305846,-1.074936,-0.498157,-1.000434,-0.673504,-0.891864,-0.825916,-0.752922,-0.950203,-0.588341,-1.042131,-0.403724,-1.098571,-0.205358,-1.117600,0.000000,
-1.098571,0.205358,-1.042131,0.403724,-0.950203,0.588341,-0.825916,0.752922,-0.673504,0.891864,-0.498157,1.000434,-0.305846,1.074936,-0.103119,1.112833,0.103119,1.112833,0.305846,1.074936,0.305846,1.074936,$1*%
G04 Aperture macros list end*
%ADD10C,0.200000*%
%ADD11C,0.254000*%
%ADD12C,0.120000*%
%ADD13C,1.701800*%
%ADD14C,3.987800*%
%ADD15FreePoly0,270.000000*%
%ADD16C,2.235200*%
%ADD17FreePoly1,270.000000*%
%ADD18R,1.700000X1.700000*%
%ADD19O,1.700000X1.700000*%
%ADD20R,1.160000X1.160000*%
%ADD21C,1.160000*%
%ADD22R,1.600000X1.600000*%
%ADD23O,1.600000X1.600000*%
G04 APERTURE END LIST*
D10*
X44261190Y-23289238D02*
X44261190Y-21289238D01*
X44261190Y-21289238D02*
X44927857Y-22717809D01*
X44927857Y-22717809D02*
X45594523Y-21289238D01*
X45594523Y-21289238D02*
X45594523Y-23289238D01*
X47404047Y-23289238D02*
X47404047Y-22241619D01*
X47404047Y-22241619D02*
X47308809Y-22051142D01*
X47308809Y-22051142D02*
X47118333Y-21955904D01*
X47118333Y-21955904D02*
X46737380Y-21955904D01*
X46737380Y-21955904D02*
X46546904Y-22051142D01*
X47404047Y-23194000D02*
X47213571Y-23289238D01*
X47213571Y-23289238D02*
X46737380Y-23289238D01*
X46737380Y-23289238D02*
X46546904Y-23194000D01*
X46546904Y-23194000D02*
X46451666Y-23003523D01*
X46451666Y-23003523D02*
X46451666Y-22813047D01*
X46451666Y-22813047D02*
X46546904Y-22622571D01*
X46546904Y-22622571D02*
X46737380Y-22527333D01*
X46737380Y-22527333D02*
X47213571Y-22527333D01*
X47213571Y-22527333D02*
X47404047Y-22432095D01*
X49213571Y-23194000D02*
X49023095Y-23289238D01*
X49023095Y-23289238D02*
X48642142Y-23289238D01*
X48642142Y-23289238D02*
X48451666Y-23194000D01*
X48451666Y-23194000D02*
X48356428Y-23098761D01*
X48356428Y-23098761D02*
X48261190Y-22908285D01*
X48261190Y-22908285D02*
X48261190Y-22336857D01*
X48261190Y-22336857D02*
X48356428Y-22146380D01*
X48356428Y-22146380D02*
X48451666Y-22051142D01*
X48451666Y-22051142D02*
X48642142Y-21955904D01*
X48642142Y-21955904D02*
X49023095Y-21955904D01*
X49023095Y-21955904D02*
X49213571Y-22051142D01*
X50070714Y-23289238D02*
X50070714Y-21955904D01*
X50070714Y-22336857D02*
X50165952Y-22146380D01*
X50165952Y-22146380D02*
X50261190Y-22051142D01*
X50261190Y-22051142D02*
X50451666Y-21955904D01*
X50451666Y-21955904D02*
X50642143Y-21955904D01*
X51594523Y-23289238D02*
X51404047Y-23194000D01*
X51404047Y-23194000D02*
X51308809Y-23098761D01*
X51308809Y-23098761D02*
X51213571Y-22908285D01*
X51213571Y-22908285D02*
X51213571Y-22336857D01*
X51213571Y-22336857D02*
X51308809Y-22146380D01*
X51308809Y-22146380D02*
X51404047Y-22051142D01*
X51404047Y-22051142D02*
X51594523Y-21955904D01*
X51594523Y-21955904D02*
X51880238Y-21955904D01*
X51880238Y-21955904D02*
X52070714Y-22051142D01*
X52070714Y-22051142D02*
X52165952Y-22146380D01*
X52165952Y-22146380D02*
X52261190Y-22336857D01*
X52261190Y-22336857D02*
X52261190Y-22908285D01*
X52261190Y-22908285D02*
X52165952Y-23098761D01*
X52165952Y-23098761D02*
X52070714Y-23194000D01*
X52070714Y-23194000D02*
X51880238Y-23289238D01*
X51880238Y-23289238D02*
X51594523Y-23289238D01*
X53118333Y-23289238D02*
X53118333Y-21289238D01*
X53118333Y-21289238D02*
X53880238Y-21289238D01*
X53880238Y-21289238D02*
X54070714Y-21384476D01*
X54070714Y-21384476D02*
X54165952Y-21479714D01*
X54165952Y-21479714D02*
X54261190Y-21670190D01*
X54261190Y-21670190D02*
X54261190Y-21955904D01*
X54261190Y-21955904D02*
X54165952Y-22146380D01*
X54165952Y-22146380D02*
X54070714Y-22241619D01*
X54070714Y-22241619D02*
X53880238Y-22336857D01*
X53880238Y-22336857D02*
X53118333Y-22336857D01*
X55975476Y-23289238D02*
X55975476Y-22241619D01*
X55975476Y-22241619D02*
X55880238Y-22051142D01*
X55880238Y-22051142D02*
X55689762Y-21955904D01*
X55689762Y-21955904D02*
X55308809Y-21955904D01*
X55308809Y-21955904D02*
X55118333Y-22051142D01*
X55975476Y-23194000D02*
X55785000Y-23289238D01*
X55785000Y-23289238D02*
X55308809Y-23289238D01*
X55308809Y-23289238D02*
X55118333Y-23194000D01*
X55118333Y-23194000D02*
X55023095Y-23003523D01*
X55023095Y-23003523D02*
X55023095Y-22813047D01*
X55023095Y-22813047D02*
X55118333Y-22622571D01*
X55118333Y-22622571D02*
X55308809Y-22527333D01*
X55308809Y-22527333D02*
X55785000Y-22527333D01*
X55785000Y-22527333D02*
X55975476Y-22432095D01*
X57785000Y-23289238D02*
X57785000Y-21289238D01*
X57785000Y-23194000D02*
X57594524Y-23289238D01*
X57594524Y-23289238D02*
X57213571Y-23289238D01*
X57213571Y-23289238D02*
X57023095Y-23194000D01*
X57023095Y-23194000D02*
X56927857Y-23098761D01*
X56927857Y-23098761D02*
X56832619Y-22908285D01*
X56832619Y-22908285D02*
X56832619Y-22336857D01*
X56832619Y-22336857D02*
X56927857Y-22146380D01*
X56927857Y-22146380D02*
X57023095Y-22051142D01*
X57023095Y-22051142D02*
X57213571Y-21955904D01*
X57213571Y-21955904D02*
X57594524Y-21955904D01*
X57594524Y-21955904D02*
X57785000Y-22051142D01*
X60070715Y-21289238D02*
X60546905Y-23289238D01*
X60546905Y-23289238D02*
X60927858Y-21860666D01*
X60927858Y-21860666D02*
X61308810Y-23289238D01*
X61308810Y-23289238D02*
X61785001Y-21289238D01*
X62546905Y-23289238D02*
X62546905Y-21955904D01*
X62546905Y-21289238D02*
X62451667Y-21384476D01*
X62451667Y-21384476D02*
X62546905Y-21479714D01*
X62546905Y-21479714D02*
X62642143Y-21384476D01*
X62642143Y-21384476D02*
X62546905Y-21289238D01*
X62546905Y-21289238D02*
X62546905Y-21479714D01*
X63213572Y-21955904D02*
X63975476Y-21955904D01*
X63499286Y-21289238D02*
X63499286Y-23003523D01*
X63499286Y-23003523D02*
X63594524Y-23194000D01*
X63594524Y-23194000D02*
X63785000Y-23289238D01*
X63785000Y-23289238D02*
X63975476Y-23289238D01*
X64642143Y-23289238D02*
X64642143Y-21289238D01*
X65499286Y-23289238D02*
X65499286Y-22241619D01*
X65499286Y-22241619D02*
X65404048Y-22051142D01*
X65404048Y-22051142D02*
X65213572Y-21955904D01*
X65213572Y-21955904D02*
X64927857Y-21955904D01*
X64927857Y-21955904D02*
X64737381Y-22051142D01*
X64737381Y-22051142D02*
X64642143Y-22146380D01*
X43975476Y-24529238D02*
X45118333Y-24529238D01*
X44546904Y-26529238D02*
X44546904Y-24529238D01*
X45785000Y-26529238D02*
X45785000Y-25195904D01*
X45785000Y-24529238D02*
X45689762Y-24624476D01*
X45689762Y-24624476D02*
X45785000Y-24719714D01*
X45785000Y-24719714D02*
X45880238Y-24624476D01*
X45880238Y-24624476D02*
X45785000Y-24529238D01*
X45785000Y-24529238D02*
X45785000Y-24719714D01*
X47023095Y-26529238D02*
X46832619Y-26434000D01*
X46832619Y-26434000D02*
X46737381Y-26243523D01*
X46737381Y-26243523D02*
X46737381Y-24529238D01*
X48546905Y-26434000D02*
X48356429Y-26529238D01*
X48356429Y-26529238D02*
X47975476Y-26529238D01*
X47975476Y-26529238D02*
X47785000Y-26434000D01*
X47785000Y-26434000D02*
X47689762Y-26243523D01*
X47689762Y-26243523D02*
X47689762Y-25481619D01*
X47689762Y-25481619D02*
X47785000Y-25291142D01*
X47785000Y-25291142D02*
X47975476Y-25195904D01*
X47975476Y-25195904D02*
X48356429Y-25195904D01*
X48356429Y-25195904D02*
X48546905Y-25291142D01*
X48546905Y-25291142D02*
X48642143Y-25481619D01*
X48642143Y-25481619D02*
X48642143Y-25672095D01*
X48642143Y-25672095D02*
X47689762Y-25862571D01*
X51689763Y-25481619D02*
X51975477Y-25576857D01*
X51975477Y-25576857D02*
X52070715Y-25672095D01*
X52070715Y-25672095D02*
X52165953Y-25862571D01*
X52165953Y-25862571D02*
X52165953Y-26148285D01*
X52165953Y-26148285D02*
X52070715Y-26338761D01*
X52070715Y-26338761D02*
X51975477Y-26434000D01*
X51975477Y-26434000D02*
X51785001Y-26529238D01*
X51785001Y-26529238D02*
X51023096Y-26529238D01*
X51023096Y-26529238D02*
X51023096Y-24529238D01*
X51023096Y-24529238D02*
X51689763Y-24529238D01*
X51689763Y-24529238D02*
X51880239Y-24624476D01*
X51880239Y-24624476D02*
X51975477Y-24719714D01*
X51975477Y-24719714D02*
X52070715Y-24910190D01*
X52070715Y-24910190D02*
X52070715Y-25100666D01*
X52070715Y-25100666D02*
X51975477Y-25291142D01*
X51975477Y-25291142D02*
X51880239Y-25386380D01*
X51880239Y-25386380D02*
X51689763Y-25481619D01*
X51689763Y-25481619D02*
X51023096Y-25481619D01*
X53880239Y-25195904D02*
X53880239Y-26529238D01*
X53023096Y-25195904D02*
X53023096Y-26243523D01*
X53023096Y-26243523D02*
X53118334Y-26434000D01*
X53118334Y-26434000D02*
X53308810Y-26529238D01*
X53308810Y-26529238D02*
X53594525Y-26529238D01*
X53594525Y-26529238D02*
X53785001Y-26434000D01*
X53785001Y-26434000D02*
X53880239Y-26338761D01*
X54546906Y-25195904D02*
X55308810Y-25195904D01*
X54832620Y-24529238D02*
X54832620Y-26243523D01*
X54832620Y-26243523D02*
X54927858Y-26434000D01*
X54927858Y-26434000D02*
X55118334Y-26529238D01*
X55118334Y-26529238D02*
X55308810Y-26529238D01*
X55689763Y-25195904D02*
X56451667Y-25195904D01*
X55975477Y-24529238D02*
X55975477Y-26243523D01*
X55975477Y-26243523D02*
X56070715Y-26434000D01*
X56070715Y-26434000D02*
X56261191Y-26529238D01*
X56261191Y-26529238D02*
X56451667Y-26529238D01*
X57404048Y-26529238D02*
X57213572Y-26434000D01*
X57213572Y-26434000D02*
X57118334Y-26338761D01*
X57118334Y-26338761D02*
X57023096Y-26148285D01*
X57023096Y-26148285D02*
X57023096Y-25576857D01*
X57023096Y-25576857D02*
X57118334Y-25386380D01*
X57118334Y-25386380D02*
X57213572Y-25291142D01*
X57213572Y-25291142D02*
X57404048Y-25195904D01*
X57404048Y-25195904D02*
X57689763Y-25195904D01*
X57689763Y-25195904D02*
X57880239Y-25291142D01*
X57880239Y-25291142D02*
X57975477Y-25386380D01*
X57975477Y-25386380D02*
X58070715Y-25576857D01*
X58070715Y-25576857D02*
X58070715Y-26148285D01*
X58070715Y-26148285D02*
X57975477Y-26338761D01*
X57975477Y-26338761D02*
X57880239Y-26434000D01*
X57880239Y-26434000D02*
X57689763Y-26529238D01*
X57689763Y-26529238D02*
X57404048Y-26529238D01*
X58927858Y-25195904D02*
X58927858Y-26529238D01*
X58927858Y-25386380D02*
X59023096Y-25291142D01*
X59023096Y-25291142D02*
X59213572Y-25195904D01*
X59213572Y-25195904D02*
X59499287Y-25195904D01*
X59499287Y-25195904D02*
X59689763Y-25291142D01*
X59689763Y-25291142D02*
X59785001Y-25481619D01*
X59785001Y-25481619D02*
X59785001Y-26529238D01*
X60642144Y-26434000D02*
X60832620Y-26529238D01*
X60832620Y-26529238D02*
X61213572Y-26529238D01*
X61213572Y-26529238D02*
X61404049Y-26434000D01*
X61404049Y-26434000D02*
X61499287Y-26243523D01*
X61499287Y-26243523D02*
X61499287Y-26148285D01*
X61499287Y-26148285D02*
X61404049Y-25957809D01*
X61404049Y-25957809D02*
X61213572Y-25862571D01*
X61213572Y-25862571D02*
X60927858Y-25862571D01*
X60927858Y-25862571D02*
X60737382Y-25767333D01*
X60737382Y-25767333D02*
X60642144Y-25576857D01*
X60642144Y-25576857D02*
X60642144Y-25481619D01*
X60642144Y-25481619D02*
X60737382Y-25291142D01*
X60737382Y-25291142D02*
X60927858Y-25195904D01*
X60927858Y-25195904D02*
X61213572Y-25195904D01*
X61213572Y-25195904D02*
X61404049Y-25291142D01*
D11*
X77579237Y-106955526D02*
X77579237Y-105685526D01*
X78909714Y-106834573D02*
X78849238Y-106895050D01*
X78849238Y-106895050D02*
X78667809Y-106955526D01*
X78667809Y-106955526D02*
X78546857Y-106955526D01*
X78546857Y-106955526D02*
X78365428Y-106895050D01*
X78365428Y-106895050D02*
X78244476Y-106774097D01*
X78244476Y-106774097D02*
X78183999Y-106653145D01*
X78183999Y-106653145D02*
X78123523Y-106411240D01*
X78123523Y-106411240D02*
X78123523Y-106229811D01*
X78123523Y-106229811D02*
X78183999Y-105987907D01*
X78183999Y-105987907D02*
X78244476Y-105866954D01*
X78244476Y-105866954D02*
X78365428Y-105746002D01*
X78365428Y-105746002D02*
X78546857Y-105685526D01*
X78546857Y-105685526D02*
X78667809Y-105685526D01*
X78667809Y-105685526D02*
X78849238Y-105746002D01*
X78849238Y-105746002D02*
X78909714Y-105806478D01*
X80119238Y-106955526D02*
X79393523Y-106955526D01*
X79756380Y-106955526D02*
X79756380Y-105685526D01*
X79756380Y-105685526D02*
X79635428Y-105866954D01*
X79635428Y-105866954D02*
X79514476Y-105987907D01*
X79514476Y-105987907D02*
X79393523Y-106048383D01*
X69405047Y-55884669D02*
X70009809Y-55884669D01*
X69284095Y-56247526D02*
X69707428Y-54977526D01*
X69707428Y-54977526D02*
X70130762Y-56247526D01*
X70554094Y-56247526D02*
X70554094Y-55400859D01*
X70554094Y-55642764D02*
X70614571Y-55521811D01*
X70614571Y-55521811D02*
X70675047Y-55461335D01*
X70675047Y-55461335D02*
X70795999Y-55400859D01*
X70795999Y-55400859D02*
X70916952Y-55400859D01*
X71884570Y-56247526D02*
X71884570Y-54977526D01*
X71884570Y-56187050D02*
X71763618Y-56247526D01*
X71763618Y-56247526D02*
X71521713Y-56247526D01*
X71521713Y-56247526D02*
X71400761Y-56187050D01*
X71400761Y-56187050D02*
X71340284Y-56126573D01*
X71340284Y-56126573D02*
X71279808Y-56005621D01*
X71279808Y-56005621D02*
X71279808Y-55642764D01*
X71279808Y-55642764D02*
X71340284Y-55521811D01*
X71340284Y-55521811D02*
X71400761Y-55461335D01*
X71400761Y-55461335D02*
X71521713Y-55400859D01*
X71521713Y-55400859D02*
X71763618Y-55400859D01*
X71763618Y-55400859D02*
X71884570Y-55461335D01*
X73033618Y-55400859D02*
X73033618Y-56247526D01*
X72489332Y-55400859D02*
X72489332Y-56066097D01*
X72489332Y-56066097D02*
X72549809Y-56187050D01*
X72549809Y-56187050D02*
X72670761Y-56247526D01*
X72670761Y-56247526D02*
X72852190Y-56247526D01*
X72852190Y-56247526D02*
X72973142Y-56187050D01*
X72973142Y-56187050D02*
X73033618Y-56126573D01*
X73638380Y-56247526D02*
X73638380Y-55400859D01*
X73638380Y-54977526D02*
X73577904Y-55038002D01*
X73577904Y-55038002D02*
X73638380Y-55098478D01*
X73638380Y-55098478D02*
X73698857Y-55038002D01*
X73698857Y-55038002D02*
X73638380Y-54977526D01*
X73638380Y-54977526D02*
X73638380Y-55098478D01*
X74243142Y-55400859D02*
X74243142Y-56247526D01*
X74243142Y-55521811D02*
X74303619Y-55461335D01*
X74303619Y-55461335D02*
X74424571Y-55400859D01*
X74424571Y-55400859D02*
X74606000Y-55400859D01*
X74606000Y-55400859D02*
X74726952Y-55461335D01*
X74726952Y-55461335D02*
X74787428Y-55582288D01*
X74787428Y-55582288D02*
X74787428Y-56247526D01*
X75573619Y-56247526D02*
X75452667Y-56187050D01*
X75452667Y-56187050D02*
X75392190Y-56126573D01*
X75392190Y-56126573D02*
X75331714Y-56005621D01*
X75331714Y-56005621D02*
X75331714Y-55642764D01*
X75331714Y-55642764D02*
X75392190Y-55521811D01*
X75392190Y-55521811D02*
X75452667Y-55461335D01*
X75452667Y-55461335D02*
X75573619Y-55400859D01*
X75573619Y-55400859D02*
X75755048Y-55400859D01*
X75755048Y-55400859D02*
X75876000Y-55461335D01*
X75876000Y-55461335D02*
X75936476Y-55521811D01*
X75936476Y-55521811D02*
X75996952Y-55642764D01*
X75996952Y-55642764D02*
X75996952Y-56005621D01*
X75996952Y-56005621D02*
X75936476Y-56126573D01*
X75936476Y-56126573D02*
X75876000Y-56187050D01*
X75876000Y-56187050D02*
X75755048Y-56247526D01*
X75755048Y-56247526D02*
X75573619Y-56247526D01*
X77508857Y-56247526D02*
X77508857Y-54977526D01*
X77508857Y-54977526D02*
X77992667Y-54977526D01*
X77992667Y-54977526D02*
X78113619Y-55038002D01*
X78113619Y-55038002D02*
X78174096Y-55098478D01*
X78174096Y-55098478D02*
X78234572Y-55219430D01*
X78234572Y-55219430D02*
X78234572Y-55400859D01*
X78234572Y-55400859D02*
X78174096Y-55521811D01*
X78174096Y-55521811D02*
X78113619Y-55582288D01*
X78113619Y-55582288D02*
X77992667Y-55642764D01*
X77992667Y-55642764D02*
X77508857Y-55642764D01*
X78778857Y-56247526D02*
X78778857Y-55400859D01*
X78778857Y-55642764D02*
X78839334Y-55521811D01*
X78839334Y-55521811D02*
X78899810Y-55461335D01*
X78899810Y-55461335D02*
X79020762Y-55400859D01*
X79020762Y-55400859D02*
X79141715Y-55400859D01*
X79746476Y-56247526D02*
X79625524Y-56187050D01*
X79625524Y-56187050D02*
X79565047Y-56126573D01*
X79565047Y-56126573D02*
X79504571Y-56005621D01*
X79504571Y-56005621D02*
X79504571Y-55642764D01*
X79504571Y-55642764D02*
X79565047Y-55521811D01*
X79565047Y-55521811D02*
X79625524Y-55461335D01*
X79625524Y-55461335D02*
X79746476Y-55400859D01*
X79746476Y-55400859D02*
X79927905Y-55400859D01*
X79927905Y-55400859D02*
X80048857Y-55461335D01*
X80048857Y-55461335D02*
X80109333Y-55521811D01*
X80109333Y-55521811D02*
X80169809Y-55642764D01*
X80169809Y-55642764D02*
X80169809Y-56005621D01*
X80169809Y-56005621D02*
X80109333Y-56126573D01*
X80109333Y-56126573D02*
X80048857Y-56187050D01*
X80048857Y-56187050D02*
X79927905Y-56247526D01*
X79927905Y-56247526D02*
X79746476Y-56247526D01*
X81681714Y-56247526D02*
X81681714Y-54977526D01*
X81681714Y-54977526D02*
X82105048Y-55884669D01*
X82105048Y-55884669D02*
X82528381Y-54977526D01*
X82528381Y-54977526D02*
X82528381Y-56247526D01*
X83133143Y-56247526D02*
X83133143Y-55400859D01*
X83133143Y-54977526D02*
X83072667Y-55038002D01*
X83072667Y-55038002D02*
X83133143Y-55098478D01*
X83133143Y-55098478D02*
X83193620Y-55038002D01*
X83193620Y-55038002D02*
X83133143Y-54977526D01*
X83133143Y-54977526D02*
X83133143Y-55098478D01*
X84282191Y-56187050D02*
X84161239Y-56247526D01*
X84161239Y-56247526D02*
X83919334Y-56247526D01*
X83919334Y-56247526D02*
X83798382Y-56187050D01*
X83798382Y-56187050D02*
X83737905Y-56126573D01*
X83737905Y-56126573D02*
X83677429Y-56005621D01*
X83677429Y-56005621D02*
X83677429Y-55642764D01*
X83677429Y-55642764D02*
X83737905Y-55521811D01*
X83737905Y-55521811D02*
X83798382Y-55461335D01*
X83798382Y-55461335D02*
X83919334Y-55400859D01*
X83919334Y-55400859D02*
X84161239Y-55400859D01*
X84161239Y-55400859D02*
X84282191Y-55461335D01*
X84826476Y-56247526D02*
X84826476Y-55400859D01*
X84826476Y-55642764D02*
X84886953Y-55521811D01*
X84886953Y-55521811D02*
X84947429Y-55461335D01*
X84947429Y-55461335D02*
X85068381Y-55400859D01*
X85068381Y-55400859D02*
X85189334Y-55400859D01*
X85794095Y-56247526D02*
X85673143Y-56187050D01*
X85673143Y-56187050D02*
X85612666Y-56126573D01*
X85612666Y-56126573D02*
X85552190Y-56005621D01*
X85552190Y-56005621D02*
X85552190Y-55642764D01*
X85552190Y-55642764D02*
X85612666Y-55521811D01*
X85612666Y-55521811D02*
X85673143Y-55461335D01*
X85673143Y-55461335D02*
X85794095Y-55400859D01*
X85794095Y-55400859D02*
X85975524Y-55400859D01*
X85975524Y-55400859D02*
X86096476Y-55461335D01*
X86096476Y-55461335D02*
X86156952Y-55521811D01*
X86156952Y-55521811D02*
X86217428Y-55642764D01*
X86217428Y-55642764D02*
X86217428Y-56005621D01*
X86217428Y-56005621D02*
X86156952Y-56126573D01*
X86156952Y-56126573D02*
X86096476Y-56187050D01*
X86096476Y-56187050D02*
X85975524Y-56247526D01*
X85975524Y-56247526D02*
X85794095Y-56247526D01*
X87426953Y-56247526D02*
X86701238Y-56247526D01*
X87064095Y-56247526D02*
X87064095Y-54977526D01*
X87064095Y-54977526D02*
X86943143Y-55158954D01*
X86943143Y-55158954D02*
X86822191Y-55279907D01*
X86822191Y-55279907D02*
X86701238Y-55340383D01*
D12*
X111048000Y-110153000D02*
X112378000Y-110153000D01*
X111048000Y-111483000D02*
X111048000Y-110153000D01*
X111048000Y-112753000D02*
X111048000Y-120433000D01*
X111048000Y-112753000D02*
X113708000Y-112753000D01*
X111048000Y-120433000D02*
X113708000Y-120433000D01*
X113708000Y-112753000D02*
X113708000Y-120433000D01*
X43728000Y-109817000D02*
X45058000Y-109817000D01*
X43728000Y-111147000D02*
X43728000Y-109817000D01*
X43728000Y-112417000D02*
X43728000Y-120097000D01*
X43728000Y-112417000D02*
X46388000Y-112417000D01*
X43728000Y-120097000D02*
X46388000Y-120097000D01*
X46388000Y-112417000D02*
X46388000Y-120097000D01*
X111048000Y-58453000D02*
X112378000Y-58453000D01*
X111048000Y-59783000D02*
X111048000Y-58453000D01*
X111048000Y-61053000D02*
X111048000Y-68733000D01*
X111048000Y-61053000D02*
X113708000Y-61053000D01*
X111048000Y-68733000D02*
X113708000Y-68733000D01*
X113708000Y-61053000D02*
X113708000Y-68733000D01*
X43728000Y-32267000D02*
X45058000Y-32267000D01*
X43728000Y-33597000D02*
X43728000Y-32267000D01*
X43728000Y-34867000D02*
X43728000Y-42547000D01*
X43728000Y-34867000D02*
X46388000Y-34867000D01*
X43728000Y-42547000D02*
X46388000Y-42547000D01*
X46388000Y-34867000D02*
X46388000Y-42547000D01*
D10*
X70529000Y-90303000D02*
X85689000Y-90303000D01*
X71949000Y-122433000D02*
X85689000Y-122433000D01*
D12*
X43728000Y-83967000D02*
X45058000Y-83967000D01*
X43728000Y-85297000D02*
X43728000Y-83967000D01*
X43728000Y-86567000D02*
X43728000Y-94247000D01*
X43728000Y-86567000D02*
X46388000Y-86567000D01*
X43728000Y-94247000D02*
X46388000Y-94247000D01*
X46388000Y-86567000D02*
X46388000Y-94247000D01*
X111048000Y-84303000D02*
X112378000Y-84303000D01*
X111048000Y-85633000D02*
X111048000Y-84303000D01*
X111048000Y-86903000D02*
X111048000Y-94583000D01*
X111048000Y-86903000D02*
X113708000Y-86903000D01*
X111048000Y-94583000D02*
X113708000Y-94583000D01*
X113708000Y-86903000D02*
X113708000Y-94583000D01*
X111048000Y-32603000D02*
X112378000Y-32603000D01*
X111048000Y-33933000D02*
X111048000Y-32603000D01*
X111048000Y-35203000D02*
X111048000Y-42883000D01*
X111048000Y-35203000D02*
X113708000Y-35203000D01*
X111048000Y-42883000D02*
X113708000Y-42883000D01*
X113708000Y-35203000D02*
X113708000Y-42883000D01*
X71972000Y-23057000D02*
X71972000Y-53657000D01*
X71972000Y-53657000D02*
X84892000Y-53657000D01*
X77432000Y-23057000D02*
X71972000Y-23057000D01*
X84892000Y-23057000D02*
X79432000Y-23057000D01*
X84892000Y-53657000D02*
X84892000Y-23057000D01*
X77432000Y-23057000D02*
G75*
G03*
X79432000Y-23057000I1000000J0D01*
G01*
X43728000Y-58117000D02*
X45058000Y-58117000D01*
X43728000Y-59447000D02*
X43728000Y-58117000D01*
X43728000Y-60717000D02*
X43728000Y-68397000D01*
X43728000Y-60717000D02*
X46388000Y-60717000D01*
X43728000Y-68397000D02*
X46388000Y-68397000D01*
X46388000Y-60717000D02*
X46388000Y-68397000D01*
%LPC*%
D13*
X100888000Y-84132000D03*
D14*
X100888000Y-89212000D03*
D13*
X100888000Y-94292000D03*
D15*
X105091700Y-89212000D03*
D16*
X105968000Y-91752000D03*
D17*
X103428000Y-85402000D03*
D16*
X97090700Y-89212000D03*
D18*
X112378000Y-111483000D03*
D19*
X112378000Y-114023000D03*
X112378000Y-116563000D03*
X112378000Y-119103000D03*
D18*
X45058000Y-111147000D03*
D19*
X45058000Y-113687000D03*
X45058000Y-116227000D03*
X45058000Y-118767000D03*
D13*
X55888000Y-58282000D03*
D14*
X55888000Y-63362000D03*
D13*
X55888000Y-68442000D03*
D15*
X60091700Y-63362000D03*
D16*
X60968000Y-65902000D03*
D17*
X58428000Y-59552000D03*
D16*
X52090700Y-63362000D03*
D18*
X112378000Y-59783000D03*
D19*
X112378000Y-62323000D03*
X112378000Y-64863000D03*
X112378000Y-67403000D03*
D13*
X100888000Y-32432000D03*
D14*
X100888000Y-37512000D03*
D13*
X100888000Y-42592000D03*
D15*
X105091700Y-37512000D03*
D16*
X105968000Y-40052000D03*
D17*
X103428000Y-33702000D03*
D16*
X97090700Y-37512000D03*
D18*
X45058000Y-33597000D03*
D19*
X45058000Y-36137000D03*
X45058000Y-38677000D03*
X45058000Y-41217000D03*
D13*
X55888000Y-109982000D03*
D14*
X55888000Y-115062000D03*
D13*
X55888000Y-120142000D03*
D15*
X60091700Y-115062000D03*
D16*
X60968000Y-117602000D03*
D17*
X58428000Y-111252000D03*
D16*
X52090700Y-115062000D03*
D20*
X71109000Y-92398000D03*
D21*
X71109000Y-94938000D03*
X71109000Y-97478000D03*
X71109000Y-100018000D03*
X71109000Y-102558000D03*
X71109000Y-105098000D03*
X71109000Y-107638000D03*
X71109000Y-110178000D03*
X71109000Y-112718000D03*
X71109000Y-115258000D03*
X71109000Y-117798000D03*
X71109000Y-120338000D03*
X86529000Y-120338000D03*
X86529000Y-117798000D03*
X86529000Y-115258000D03*
X86529000Y-112718000D03*
X86529000Y-110178000D03*
X86529000Y-107638000D03*
X86529000Y-105098000D03*
X86529000Y-102558000D03*
X86529000Y-100018000D03*
X86529000Y-97478000D03*
X86529000Y-94938000D03*
X86529000Y-92398000D03*
D13*
X100888000Y-58282000D03*
D14*
X100888000Y-63362000D03*
D13*
X100888000Y-68442000D03*
D15*
X105091700Y-63362000D03*
D16*
X105968000Y-65902000D03*
D17*
X103428000Y-59552000D03*
D16*
X97090700Y-63362000D03*
D18*
X45058000Y-85297000D03*
D19*
X45058000Y-87837000D03*
X45058000Y-90377000D03*
X45058000Y-92917000D03*
D18*
X112378000Y-85633000D03*
D19*
X112378000Y-88173000D03*
X112378000Y-90713000D03*
X112378000Y-93253000D03*
D18*
X112378000Y-33933000D03*
D19*
X112378000Y-36473000D03*
X112378000Y-39013000D03*
X112378000Y-41553000D03*
D22*
X70812000Y-24387000D03*
D23*
X70812000Y-26927000D03*
X70812000Y-29467000D03*
X70812000Y-32007000D03*
X70812000Y-34547000D03*
X70812000Y-37087000D03*
X70812000Y-39627000D03*
X70812000Y-42167000D03*
X70812000Y-44707000D03*
X70812000Y-47247000D03*
X70812000Y-49787000D03*
X70812000Y-52327000D03*
X86052000Y-52327000D03*
X86052000Y-49787000D03*
X86052000Y-47247000D03*
X86052000Y-44707000D03*
X86052000Y-42167000D03*
X86052000Y-39627000D03*
X86052000Y-37087000D03*
X86052000Y-34547000D03*
X86052000Y-32007000D03*
X86052000Y-29467000D03*
X86052000Y-26927000D03*
X86052000Y-24387000D03*
D13*
X55888000Y-84132000D03*
D14*
X55888000Y-89212000D03*
D13*
X55888000Y-94292000D03*
D15*
X60091700Y-89212000D03*
D16*
X60968000Y-91752000D03*
D17*
X58428000Y-85402000D03*
D16*
X52090700Y-89212000D03*
D13*
X55888000Y-32432000D03*
D14*
X55888000Y-37512000D03*
D13*
X55888000Y-42592000D03*
D15*
X60091700Y-37512000D03*
D16*
X60968000Y-40052000D03*
D17*
X58428000Y-33702000D03*
D16*
X52090700Y-37512000D03*
D13*
X100888000Y-109982000D03*
D14*
X100888000Y-115062000D03*
D13*
X100888000Y-120142000D03*
D15*
X105091700Y-115062000D03*
D16*
X105968000Y-117602000D03*
D17*
X103428000Y-111252000D03*
D16*
X97090700Y-115062000D03*
D18*
X45058000Y-59447000D03*
D19*
X45058000Y-61987000D03*
X45058000Y-64527000D03*
X45058000Y-67067000D03*
%LPD*%
M02*
