M48
; DRILL file {KiCad 7.0.2} date Wed Oct 25 06:34:27 2023
; FORMAT={-:-/ absolute / metric / decimal}
; #@! TF.CreationDate,2023-10-25T06:34:27-04:00
; #@! TF.GenerationSoftware,Kicad,Pcbnew,7.0.2
; #@! TF.FileFunction,NonPlated,1,2,NPTH
FMAT,2
METRIC
; #@! TA.AperFunction,NonPlated,NPTH,ComponentDrill
T1C1.702
; #@! TA.AperFunction,NonPlated,NPTH,ComponentDrill
T2C3.988
%
G90
G05
T1
X55.888Y-32.432
X55.888Y-42.592
X55.888Y-58.282
X55.888Y-68.442
X55.888Y-84.132
X55.888Y-94.292
X55.888Y-109.982
X55.888Y-120.142
X100.888Y-32.432
X100.888Y-42.592
X100.888Y-58.282
X100.888Y-68.442
X100.888Y-84.132
X100.888Y-94.292
X100.888Y-109.982
X100.888Y-120.142
T2
X55.888Y-37.512
X55.888Y-63.362
X55.888Y-89.212
X55.888Y-115.062
X100.888Y-37.512
X100.888Y-63.362
X100.888Y-89.212
X100.888Y-115.062
T0
M30
