%TF.GenerationSoftware,KiCad,Pcbnew,7.0.2*%
%TF.CreationDate,2023-10-25T06:34:29-04:00*%
%TF.ProjectId,MacroPad Base,4d616372-6f50-4616-9420-426173652e6b,rev?*%
%TF.SameCoordinates,Original*%
%TF.FileFunction,Drillmap*%
%TF.FilePolarity,Positive*%
%FSLAX45Y45*%
G04 Gerber Fmt 4.5, Leading zero omitted, Abs format (unit mm)*
G04 Created by KiCad (PCBNEW 7.0.2) date 2023-10-25 06:34:29*
%MOMM*%
%LPD*%
G01*
G04 APERTURE LIST*
%ADD10C,0.100000*%
%ADD11C,0.200000*%
%ADD12C,0.040000*%
%ADD13C,0.076000*%
%ADD14C,0.080000*%
%ADD15C,0.139700*%
%ADD16C,0.157480*%
G04 APERTURE END LIST*
D10*
X4212350Y-2032900D02*
X11516450Y-2032900D01*
X11516450Y-13298300D01*
X4212350Y-13298300D01*
X4212350Y-2032900D01*
D11*
D12*
X7091300Y-12566800D02*
X7131300Y-12606800D01*
X7131300Y-12566800D02*
X7091300Y-12606800D01*
X8789600Y-12566800D02*
X8829600Y-12606800D01*
X8829600Y-12566800D02*
X8789600Y-12606800D01*
D13*
X7148900Y-9239800D02*
G75*
G03*
X7148900Y-9239800I-38000J0D01*
G01*
X7148900Y-9493800D02*
G75*
G03*
X7148900Y-9493800I-38000J0D01*
G01*
X7148900Y-9747800D02*
G75*
G03*
X7148900Y-9747800I-38000J0D01*
G01*
X7148900Y-10001800D02*
G75*
G03*
X7148900Y-10001800I-38000J0D01*
G01*
X7148900Y-10255800D02*
G75*
G03*
X7148900Y-10255800I-38000J0D01*
G01*
X7148900Y-10509800D02*
G75*
G03*
X7148900Y-10509800I-38000J0D01*
G01*
X7148900Y-10763800D02*
G75*
G03*
X7148900Y-10763800I-38000J0D01*
G01*
X7148900Y-11017800D02*
G75*
G03*
X7148900Y-11017800I-38000J0D01*
G01*
X7148900Y-11271800D02*
G75*
G03*
X7148900Y-11271800I-38000J0D01*
G01*
X7148900Y-11525800D02*
G75*
G03*
X7148900Y-11525800I-38000J0D01*
G01*
X7148900Y-11779800D02*
G75*
G03*
X7148900Y-11779800I-38000J0D01*
G01*
X7148900Y-12033800D02*
G75*
G03*
X7148900Y-12033800I-38000J0D01*
G01*
X8690900Y-9239800D02*
G75*
G03*
X8690900Y-9239800I-38000J0D01*
G01*
X8690900Y-9493800D02*
G75*
G03*
X8690900Y-9493800I-38000J0D01*
G01*
X8690900Y-9747800D02*
G75*
G03*
X8690900Y-9747800I-38000J0D01*
G01*
X8690900Y-10001800D02*
G75*
G03*
X8690900Y-10001800I-38000J0D01*
G01*
X8690900Y-10255800D02*
G75*
G03*
X8690900Y-10255800I-38000J0D01*
G01*
X8690900Y-10509800D02*
G75*
G03*
X8690900Y-10509800I-38000J0D01*
G01*
X8690900Y-10763800D02*
G75*
G03*
X8690900Y-10763800I-38000J0D01*
G01*
X8690900Y-11017800D02*
G75*
G03*
X8690900Y-11017800I-38000J0D01*
G01*
X8690900Y-11271800D02*
G75*
G03*
X8690900Y-11271800I-38000J0D01*
G01*
X8690900Y-11525800D02*
G75*
G03*
X8690900Y-11525800I-38000J0D01*
G01*
X8690900Y-11779800D02*
G75*
G03*
X8690900Y-11779800I-38000J0D01*
G01*
X8690900Y-12033800D02*
G75*
G03*
X8690900Y-12033800I-38000J0D01*
G01*
D14*
X7081200Y-2398700D02*
X7081200Y-2478700D01*
X7041200Y-2438700D02*
X7121200Y-2438700D01*
X7081200Y-2652700D02*
X7081200Y-2732700D01*
X7041200Y-2692700D02*
X7121200Y-2692700D01*
X7081200Y-2906700D02*
X7081200Y-2986700D01*
X7041200Y-2946700D02*
X7121200Y-2946700D01*
X7081200Y-3160700D02*
X7081200Y-3240700D01*
X7041200Y-3200700D02*
X7121200Y-3200700D01*
X7081200Y-3414700D02*
X7081200Y-3494700D01*
X7041200Y-3454700D02*
X7121200Y-3454700D01*
X7081200Y-3668700D02*
X7081200Y-3748700D01*
X7041200Y-3708700D02*
X7121200Y-3708700D01*
X7081200Y-3922700D02*
X7081200Y-4002700D01*
X7041200Y-3962700D02*
X7121200Y-3962700D01*
X7081200Y-4176700D02*
X7081200Y-4256700D01*
X7041200Y-4216700D02*
X7121200Y-4216700D01*
X7081200Y-4430700D02*
X7081200Y-4510700D01*
X7041200Y-4470700D02*
X7121200Y-4470700D01*
X7081200Y-4684700D02*
X7081200Y-4764700D01*
X7041200Y-4724700D02*
X7121200Y-4724700D01*
X7081200Y-4938700D02*
X7081200Y-5018700D01*
X7041200Y-4978700D02*
X7121200Y-4978700D01*
X7081200Y-5192700D02*
X7081200Y-5272700D01*
X7041200Y-5232700D02*
X7121200Y-5232700D01*
X8605200Y-2398700D02*
X8605200Y-2478700D01*
X8565200Y-2438700D02*
X8645200Y-2438700D01*
X8605200Y-2652700D02*
X8605200Y-2732700D01*
X8565200Y-2692700D02*
X8645200Y-2692700D01*
X8605200Y-2906700D02*
X8605200Y-2986700D01*
X8565200Y-2946700D02*
X8645200Y-2946700D01*
X8605200Y-3160700D02*
X8605200Y-3240700D01*
X8565200Y-3200700D02*
X8645200Y-3200700D01*
X8605200Y-3414700D02*
X8605200Y-3494700D01*
X8565200Y-3454700D02*
X8645200Y-3454700D01*
X8605200Y-3668700D02*
X8605200Y-3748700D01*
X8565200Y-3708700D02*
X8645200Y-3708700D01*
X8605200Y-3922700D02*
X8605200Y-4002700D01*
X8565200Y-3962700D02*
X8645200Y-3962700D01*
X8605200Y-4176700D02*
X8605200Y-4256700D01*
X8565200Y-4216700D02*
X8645200Y-4216700D01*
X8605200Y-4430700D02*
X8605200Y-4510700D01*
X8565200Y-4470700D02*
X8645200Y-4470700D01*
X8605200Y-4684700D02*
X8605200Y-4764700D01*
X8565200Y-4724700D02*
X8645200Y-4724700D01*
X8605200Y-4938700D02*
X8605200Y-5018700D01*
X8565200Y-4978700D02*
X8645200Y-4978700D01*
X8605200Y-5192700D02*
X8605200Y-5272700D01*
X8565200Y-5232700D02*
X8645200Y-5232700D01*
D10*
X4541156Y-3395056D02*
X4541156Y-3324344D01*
X4470444Y-3324344D01*
X4470444Y-3395056D01*
X4541156Y-3395056D01*
X4541156Y-3649056D02*
X4541156Y-3578344D01*
X4470444Y-3578344D01*
X4470444Y-3649056D01*
X4541156Y-3649056D01*
X4541156Y-3903056D02*
X4541156Y-3832344D01*
X4470444Y-3832344D01*
X4470444Y-3903056D01*
X4541156Y-3903056D01*
X4541156Y-4157056D02*
X4541156Y-4086344D01*
X4470444Y-4086344D01*
X4470444Y-4157056D01*
X4541156Y-4157056D01*
X4541156Y-5980056D02*
X4541156Y-5909344D01*
X4470444Y-5909344D01*
X4470444Y-5980056D01*
X4541156Y-5980056D01*
X4541156Y-6234056D02*
X4541156Y-6163344D01*
X4470444Y-6163344D01*
X4470444Y-6234056D01*
X4541156Y-6234056D01*
X4541156Y-6488056D02*
X4541156Y-6417344D01*
X4470444Y-6417344D01*
X4470444Y-6488056D01*
X4541156Y-6488056D01*
X4541156Y-6742056D02*
X4541156Y-6671344D01*
X4470444Y-6671344D01*
X4470444Y-6742056D01*
X4541156Y-6742056D01*
X4541156Y-8565056D02*
X4541156Y-8494344D01*
X4470444Y-8494344D01*
X4470444Y-8565056D01*
X4541156Y-8565056D01*
X4541156Y-8819056D02*
X4541156Y-8748344D01*
X4470444Y-8748344D01*
X4470444Y-8819056D01*
X4541156Y-8819056D01*
X4541156Y-9073056D02*
X4541156Y-9002344D01*
X4470444Y-9002344D01*
X4470444Y-9073056D01*
X4541156Y-9073056D01*
X4541156Y-9327056D02*
X4541156Y-9256344D01*
X4470444Y-9256344D01*
X4470444Y-9327056D01*
X4541156Y-9327056D01*
X4541156Y-11150056D02*
X4541156Y-11079344D01*
X4470444Y-11079344D01*
X4470444Y-11150056D01*
X4541156Y-11150056D01*
X4541156Y-11404056D02*
X4541156Y-11333344D01*
X4470444Y-11333344D01*
X4470444Y-11404056D01*
X4541156Y-11404056D01*
X4541156Y-11658056D02*
X4541156Y-11587344D01*
X4470444Y-11587344D01*
X4470444Y-11658056D01*
X4541156Y-11658056D01*
X4541156Y-11912056D02*
X4541156Y-11841344D01*
X4470444Y-11841344D01*
X4470444Y-11912056D01*
X4541156Y-11912056D01*
X11273156Y-3428656D02*
X11273156Y-3357944D01*
X11202444Y-3357944D01*
X11202444Y-3428656D01*
X11273156Y-3428656D01*
X11273156Y-3682656D02*
X11273156Y-3611944D01*
X11202444Y-3611944D01*
X11202444Y-3682656D01*
X11273156Y-3682656D01*
X11273156Y-3936656D02*
X11273156Y-3865944D01*
X11202444Y-3865944D01*
X11202444Y-3936656D01*
X11273156Y-3936656D01*
X11273156Y-4190656D02*
X11273156Y-4119944D01*
X11202444Y-4119944D01*
X11202444Y-4190656D01*
X11273156Y-4190656D01*
X11273156Y-6013656D02*
X11273156Y-5942944D01*
X11202444Y-5942944D01*
X11202444Y-6013656D01*
X11273156Y-6013656D01*
X11273156Y-6267656D02*
X11273156Y-6196944D01*
X11202444Y-6196944D01*
X11202444Y-6267656D01*
X11273156Y-6267656D01*
X11273156Y-6521656D02*
X11273156Y-6450944D01*
X11202444Y-6450944D01*
X11202444Y-6521656D01*
X11273156Y-6521656D01*
X11273156Y-6775656D02*
X11273156Y-6704944D01*
X11202444Y-6704944D01*
X11202444Y-6775656D01*
X11273156Y-6775656D01*
X11273156Y-8598656D02*
X11273156Y-8527944D01*
X11202444Y-8527944D01*
X11202444Y-8598656D01*
X11273156Y-8598656D01*
X11273156Y-8852656D02*
X11273156Y-8781944D01*
X11202444Y-8781944D01*
X11202444Y-8852656D01*
X11273156Y-8852656D01*
X11273156Y-9106656D02*
X11273156Y-9035944D01*
X11202444Y-9035944D01*
X11202444Y-9106656D01*
X11273156Y-9106656D01*
X11273156Y-9360656D02*
X11273156Y-9289944D01*
X11202444Y-9289944D01*
X11202444Y-9360656D01*
X11273156Y-9360656D01*
X11273156Y-11183656D02*
X11273156Y-11112944D01*
X11202444Y-11112944D01*
X11202444Y-11183656D01*
X11273156Y-11183656D01*
X11273156Y-11437656D02*
X11273156Y-11366944D01*
X11202444Y-11366944D01*
X11202444Y-11437656D01*
X11273156Y-11437656D01*
X11273156Y-11691656D02*
X11273156Y-11620944D01*
X11202444Y-11620944D01*
X11202444Y-11691656D01*
X11273156Y-11691656D01*
X11273156Y-11945656D02*
X11273156Y-11874944D01*
X11202444Y-11874944D01*
X11202444Y-11945656D01*
X11273156Y-11945656D01*
D15*
X5209070Y-3821050D02*
X5278920Y-3751200D01*
X5209070Y-3681350D01*
X5139220Y-3751200D01*
X5209070Y-3821050D01*
X5209070Y-6406050D02*
X5278920Y-6336200D01*
X5209070Y-6266350D01*
X5139220Y-6336200D01*
X5209070Y-6406050D01*
X5209070Y-8991050D02*
X5278920Y-8921200D01*
X5209070Y-8851350D01*
X5139220Y-8921200D01*
X5209070Y-8991050D01*
X5209070Y-11576050D02*
X5278920Y-11506200D01*
X5209070Y-11436350D01*
X5139220Y-11506200D01*
X5209070Y-11576050D01*
X6009170Y-3821050D02*
X6079020Y-3751200D01*
X6009170Y-3681350D01*
X5939320Y-3751200D01*
X6009170Y-3821050D01*
X6009170Y-6406050D02*
X6079020Y-6336200D01*
X6009170Y-6266350D01*
X5939320Y-6336200D01*
X6009170Y-6406050D01*
X6009170Y-8991050D02*
X6079020Y-8921200D01*
X6009170Y-8851350D01*
X5939320Y-8921200D01*
X6009170Y-8991050D01*
X6009170Y-11576050D02*
X6079020Y-11506200D01*
X6009170Y-11436350D01*
X5939320Y-11506200D01*
X6009170Y-11576050D01*
X9709070Y-3821050D02*
X9778920Y-3751200D01*
X9709070Y-3681350D01*
X9639220Y-3751200D01*
X9709070Y-3821050D01*
X9709070Y-6406050D02*
X9778920Y-6336200D01*
X9709070Y-6266350D01*
X9639220Y-6336200D01*
X9709070Y-6406050D01*
X9709070Y-8991050D02*
X9778920Y-8921200D01*
X9709070Y-8851350D01*
X9639220Y-8921200D01*
X9709070Y-8991050D01*
X9709070Y-11576050D02*
X9778920Y-11506200D01*
X9709070Y-11436350D01*
X9639220Y-11506200D01*
X9709070Y-11576050D01*
X10509170Y-3821050D02*
X10579020Y-3751200D01*
X10509170Y-3681350D01*
X10439320Y-3751200D01*
X10509170Y-3821050D01*
X10509170Y-6406050D02*
X10579020Y-6336200D01*
X10509170Y-6266350D01*
X10439320Y-6336200D01*
X10509170Y-6406050D01*
X10509170Y-8991050D02*
X10579020Y-8921200D01*
X10509170Y-8851350D01*
X10439320Y-8921200D01*
X10509170Y-8991050D01*
X10509170Y-11576050D02*
X10579020Y-11506200D01*
X10509170Y-11436350D01*
X10439320Y-11506200D01*
X10509170Y-11576050D01*
D16*
X5764060Y-3291460D02*
X5921540Y-3448940D01*
X5921540Y-3291460D02*
X5764060Y-3448940D01*
X5921540Y-3370200D02*
G75*
G03*
X5921540Y-3370200I-78740J0D01*
G01*
X5764060Y-5876460D02*
X5921540Y-6033940D01*
X5921540Y-5876460D02*
X5764060Y-6033940D01*
X5921540Y-5955200D02*
G75*
G03*
X5921540Y-5955200I-78740J0D01*
G01*
X5764060Y-8461460D02*
X5921540Y-8618940D01*
X5921540Y-8461460D02*
X5764060Y-8618940D01*
X5921540Y-8540200D02*
G75*
G03*
X5921540Y-8540200I-78740J0D01*
G01*
X5764060Y-11046460D02*
X5921540Y-11203940D01*
X5921540Y-11046460D02*
X5764060Y-11203940D01*
X5921540Y-11125200D02*
G75*
G03*
X5921540Y-11125200I-78740J0D01*
G01*
X6018060Y-3926460D02*
X6175540Y-4083940D01*
X6175540Y-3926460D02*
X6018060Y-4083940D01*
X6175540Y-4005200D02*
G75*
G03*
X6175540Y-4005200I-78740J0D01*
G01*
X6018060Y-6511460D02*
X6175540Y-6668940D01*
X6175540Y-6511460D02*
X6018060Y-6668940D01*
X6175540Y-6590200D02*
G75*
G03*
X6175540Y-6590200I-78740J0D01*
G01*
X6018060Y-9096460D02*
X6175540Y-9253940D01*
X6175540Y-9096460D02*
X6018060Y-9253940D01*
X6175540Y-9175200D02*
G75*
G03*
X6175540Y-9175200I-78740J0D01*
G01*
X6018060Y-11681460D02*
X6175540Y-11838940D01*
X6175540Y-11681460D02*
X6018060Y-11838940D01*
X6175540Y-11760200D02*
G75*
G03*
X6175540Y-11760200I-78740J0D01*
G01*
X10264060Y-3291460D02*
X10421540Y-3448940D01*
X10421540Y-3291460D02*
X10264060Y-3448940D01*
X10421540Y-3370200D02*
G75*
G03*
X10421540Y-3370200I-78740J0D01*
G01*
X10264060Y-5876460D02*
X10421540Y-6033940D01*
X10421540Y-5876460D02*
X10264060Y-6033940D01*
X10421540Y-5955200D02*
G75*
G03*
X10421540Y-5955200I-78740J0D01*
G01*
X10264060Y-8461460D02*
X10421540Y-8618940D01*
X10421540Y-8461460D02*
X10264060Y-8618940D01*
X10421540Y-8540200D02*
G75*
G03*
X10421540Y-8540200I-78740J0D01*
G01*
X10264060Y-11046460D02*
X10421540Y-11203940D01*
X10421540Y-11046460D02*
X10264060Y-11203940D01*
X10421540Y-11125200D02*
G75*
G03*
X10421540Y-11125200I-78740J0D01*
G01*
X10518060Y-3926460D02*
X10675540Y-4083940D01*
X10675540Y-3926460D02*
X10518060Y-4083940D01*
X10675540Y-4005200D02*
G75*
G03*
X10675540Y-4005200I-78740J0D01*
G01*
X10518060Y-6511460D02*
X10675540Y-6668940D01*
X10675540Y-6511460D02*
X10518060Y-6668940D01*
X10675540Y-6590200D02*
G75*
G03*
X10675540Y-6590200I-78740J0D01*
G01*
X10518060Y-9096460D02*
X10675540Y-9253940D01*
X10675540Y-9096460D02*
X10518060Y-9253940D01*
X10675540Y-9175200D02*
G75*
G03*
X10675540Y-9175200I-78740J0D01*
G01*
X10518060Y-11681460D02*
X10675540Y-11838940D01*
X10675540Y-11681460D02*
X10518060Y-11838940D01*
X10675540Y-11760200D02*
G75*
G03*
X10675540Y-11760200I-78740J0D01*
G01*
D11*
X4454969Y-13615824D02*
X4454969Y-13415824D01*
X4454969Y-13415824D02*
X4502588Y-13415824D01*
X4502588Y-13415824D02*
X4531160Y-13425348D01*
X4531160Y-13425348D02*
X4550207Y-13444395D01*
X4550207Y-13444395D02*
X4559731Y-13463443D01*
X4559731Y-13463443D02*
X4569255Y-13501538D01*
X4569255Y-13501538D02*
X4569255Y-13530109D01*
X4569255Y-13530109D02*
X4559731Y-13568205D01*
X4559731Y-13568205D02*
X4550207Y-13587252D01*
X4550207Y-13587252D02*
X4531160Y-13606300D01*
X4531160Y-13606300D02*
X4502588Y-13615824D01*
X4502588Y-13615824D02*
X4454969Y-13615824D01*
X4654969Y-13615824D02*
X4654969Y-13482490D01*
X4654969Y-13520586D02*
X4664493Y-13501538D01*
X4664493Y-13501538D02*
X4674017Y-13492014D01*
X4674017Y-13492014D02*
X4693064Y-13482490D01*
X4693064Y-13482490D02*
X4712112Y-13482490D01*
X4778779Y-13615824D02*
X4778779Y-13482490D01*
X4778779Y-13415824D02*
X4769255Y-13425348D01*
X4769255Y-13425348D02*
X4778779Y-13434871D01*
X4778779Y-13434871D02*
X4788302Y-13425348D01*
X4788302Y-13425348D02*
X4778779Y-13415824D01*
X4778779Y-13415824D02*
X4778779Y-13434871D01*
X4902588Y-13615824D02*
X4883540Y-13606300D01*
X4883540Y-13606300D02*
X4874017Y-13587252D01*
X4874017Y-13587252D02*
X4874017Y-13415824D01*
X5007350Y-13615824D02*
X4988302Y-13606300D01*
X4988302Y-13606300D02*
X4978779Y-13587252D01*
X4978779Y-13587252D02*
X4978779Y-13415824D01*
X5235921Y-13615824D02*
X5235921Y-13415824D01*
X5235921Y-13415824D02*
X5302588Y-13558681D01*
X5302588Y-13558681D02*
X5369255Y-13415824D01*
X5369255Y-13415824D02*
X5369255Y-13615824D01*
X5550207Y-13615824D02*
X5550207Y-13511062D01*
X5550207Y-13511062D02*
X5540683Y-13492014D01*
X5540683Y-13492014D02*
X5521636Y-13482490D01*
X5521636Y-13482490D02*
X5483540Y-13482490D01*
X5483540Y-13482490D02*
X5464493Y-13492014D01*
X5550207Y-13606300D02*
X5531160Y-13615824D01*
X5531160Y-13615824D02*
X5483540Y-13615824D01*
X5483540Y-13615824D02*
X5464493Y-13606300D01*
X5464493Y-13606300D02*
X5454969Y-13587252D01*
X5454969Y-13587252D02*
X5454969Y-13568205D01*
X5454969Y-13568205D02*
X5464493Y-13549157D01*
X5464493Y-13549157D02*
X5483540Y-13539633D01*
X5483540Y-13539633D02*
X5531160Y-13539633D01*
X5531160Y-13539633D02*
X5550207Y-13530109D01*
X5645445Y-13482490D02*
X5645445Y-13682490D01*
X5645445Y-13492014D02*
X5664493Y-13482490D01*
X5664493Y-13482490D02*
X5702588Y-13482490D01*
X5702588Y-13482490D02*
X5721636Y-13492014D01*
X5721636Y-13492014D02*
X5731159Y-13501538D01*
X5731159Y-13501538D02*
X5740683Y-13520586D01*
X5740683Y-13520586D02*
X5740683Y-13577728D01*
X5740683Y-13577728D02*
X5731159Y-13596776D01*
X5731159Y-13596776D02*
X5721636Y-13606300D01*
X5721636Y-13606300D02*
X5702588Y-13615824D01*
X5702588Y-13615824D02*
X5664493Y-13615824D01*
X5664493Y-13615824D02*
X5645445Y-13606300D01*
X5826398Y-13596776D02*
X5835921Y-13606300D01*
X5835921Y-13606300D02*
X5826398Y-13615824D01*
X5826398Y-13615824D02*
X5816874Y-13606300D01*
X5816874Y-13606300D02*
X5826398Y-13596776D01*
X5826398Y-13596776D02*
X5826398Y-13615824D01*
X5826398Y-13492014D02*
X5835921Y-13501538D01*
X5835921Y-13501538D02*
X5826398Y-13511062D01*
X5826398Y-13511062D02*
X5816874Y-13501538D01*
X5816874Y-13501538D02*
X5826398Y-13492014D01*
X5826398Y-13492014D02*
X5826398Y-13511062D01*
D12*
X4167350Y-13923300D02*
X4207350Y-13963300D01*
X4207350Y-13923300D02*
X4167350Y-13963300D01*
D11*
X4493064Y-13835824D02*
X4512112Y-13835824D01*
X4512112Y-13835824D02*
X4531160Y-13845348D01*
X4531160Y-13845348D02*
X4540683Y-13854871D01*
X4540683Y-13854871D02*
X4550207Y-13873919D01*
X4550207Y-13873919D02*
X4559731Y-13912014D01*
X4559731Y-13912014D02*
X4559731Y-13959633D01*
X4559731Y-13959633D02*
X4550207Y-13997728D01*
X4550207Y-13997728D02*
X4540683Y-14016776D01*
X4540683Y-14016776D02*
X4531160Y-14026300D01*
X4531160Y-14026300D02*
X4512112Y-14035824D01*
X4512112Y-14035824D02*
X4493064Y-14035824D01*
X4493064Y-14035824D02*
X4474017Y-14026300D01*
X4474017Y-14026300D02*
X4464493Y-14016776D01*
X4464493Y-14016776D02*
X4454969Y-13997728D01*
X4454969Y-13997728D02*
X4445445Y-13959633D01*
X4445445Y-13959633D02*
X4445445Y-13912014D01*
X4445445Y-13912014D02*
X4454969Y-13873919D01*
X4454969Y-13873919D02*
X4464493Y-13854871D01*
X4464493Y-13854871D02*
X4474017Y-13845348D01*
X4474017Y-13845348D02*
X4493064Y-13835824D01*
X4645445Y-14016776D02*
X4654969Y-14026300D01*
X4654969Y-14026300D02*
X4645445Y-14035824D01*
X4645445Y-14035824D02*
X4635921Y-14026300D01*
X4635921Y-14026300D02*
X4645445Y-14016776D01*
X4645445Y-14016776D02*
X4645445Y-14035824D01*
X4826398Y-13902490D02*
X4826398Y-14035824D01*
X4778779Y-13826300D02*
X4731160Y-13969157D01*
X4731160Y-13969157D02*
X4854969Y-13969157D01*
X4969255Y-13835824D02*
X4988302Y-13835824D01*
X4988302Y-13835824D02*
X5007350Y-13845348D01*
X5007350Y-13845348D02*
X5016874Y-13854871D01*
X5016874Y-13854871D02*
X5026398Y-13873919D01*
X5026398Y-13873919D02*
X5035921Y-13912014D01*
X5035921Y-13912014D02*
X5035921Y-13959633D01*
X5035921Y-13959633D02*
X5026398Y-13997728D01*
X5026398Y-13997728D02*
X5016874Y-14016776D01*
X5016874Y-14016776D02*
X5007350Y-14026300D01*
X5007350Y-14026300D02*
X4988302Y-14035824D01*
X4988302Y-14035824D02*
X4969255Y-14035824D01*
X4969255Y-14035824D02*
X4950207Y-14026300D01*
X4950207Y-14026300D02*
X4940683Y-14016776D01*
X4940683Y-14016776D02*
X4931160Y-13997728D01*
X4931160Y-13997728D02*
X4921636Y-13959633D01*
X4921636Y-13959633D02*
X4921636Y-13912014D01*
X4921636Y-13912014D02*
X4931160Y-13873919D01*
X4931160Y-13873919D02*
X4940683Y-13854871D01*
X4940683Y-13854871D02*
X4950207Y-13845348D01*
X4950207Y-13845348D02*
X4969255Y-13835824D01*
X5159731Y-13835824D02*
X5178779Y-13835824D01*
X5178779Y-13835824D02*
X5197826Y-13845348D01*
X5197826Y-13845348D02*
X5207350Y-13854871D01*
X5207350Y-13854871D02*
X5216874Y-13873919D01*
X5216874Y-13873919D02*
X5226398Y-13912014D01*
X5226398Y-13912014D02*
X5226398Y-13959633D01*
X5226398Y-13959633D02*
X5216874Y-13997728D01*
X5216874Y-13997728D02*
X5207350Y-14016776D01*
X5207350Y-14016776D02*
X5197826Y-14026300D01*
X5197826Y-14026300D02*
X5178779Y-14035824D01*
X5178779Y-14035824D02*
X5159731Y-14035824D01*
X5159731Y-14035824D02*
X5140683Y-14026300D01*
X5140683Y-14026300D02*
X5131160Y-14016776D01*
X5131160Y-14016776D02*
X5121636Y-13997728D01*
X5121636Y-13997728D02*
X5112112Y-13959633D01*
X5112112Y-13959633D02*
X5112112Y-13912014D01*
X5112112Y-13912014D02*
X5121636Y-13873919D01*
X5121636Y-13873919D02*
X5131160Y-13854871D01*
X5131160Y-13854871D02*
X5140683Y-13845348D01*
X5140683Y-13845348D02*
X5159731Y-13835824D01*
X5312112Y-14035824D02*
X5312112Y-13902490D01*
X5312112Y-13921538D02*
X5321636Y-13912014D01*
X5321636Y-13912014D02*
X5340683Y-13902490D01*
X5340683Y-13902490D02*
X5369255Y-13902490D01*
X5369255Y-13902490D02*
X5388302Y-13912014D01*
X5388302Y-13912014D02*
X5397826Y-13931062D01*
X5397826Y-13931062D02*
X5397826Y-14035824D01*
X5397826Y-13931062D02*
X5407350Y-13912014D01*
X5407350Y-13912014D02*
X5426398Y-13902490D01*
X5426398Y-13902490D02*
X5454969Y-13902490D01*
X5454969Y-13902490D02*
X5474017Y-13912014D01*
X5474017Y-13912014D02*
X5483541Y-13931062D01*
X5483541Y-13931062D02*
X5483541Y-14035824D01*
X5578779Y-14035824D02*
X5578779Y-13902490D01*
X5578779Y-13921538D02*
X5588302Y-13912014D01*
X5588302Y-13912014D02*
X5607350Y-13902490D01*
X5607350Y-13902490D02*
X5635921Y-13902490D01*
X5635921Y-13902490D02*
X5654969Y-13912014D01*
X5654969Y-13912014D02*
X5664493Y-13931062D01*
X5664493Y-13931062D02*
X5664493Y-14035824D01*
X5664493Y-13931062D02*
X5674017Y-13912014D01*
X5674017Y-13912014D02*
X5693064Y-13902490D01*
X5693064Y-13902490D02*
X5721636Y-13902490D01*
X5721636Y-13902490D02*
X5740683Y-13912014D01*
X5740683Y-13912014D02*
X5750207Y-13931062D01*
X5750207Y-13931062D02*
X5750207Y-14035824D01*
X6140683Y-13826300D02*
X5969255Y-14083443D01*
X6397826Y-13835824D02*
X6416874Y-13835824D01*
X6416874Y-13835824D02*
X6435922Y-13845348D01*
X6435922Y-13845348D02*
X6445445Y-13854871D01*
X6445445Y-13854871D02*
X6454969Y-13873919D01*
X6454969Y-13873919D02*
X6464493Y-13912014D01*
X6464493Y-13912014D02*
X6464493Y-13959633D01*
X6464493Y-13959633D02*
X6454969Y-13997728D01*
X6454969Y-13997728D02*
X6445445Y-14016776D01*
X6445445Y-14016776D02*
X6435922Y-14026300D01*
X6435922Y-14026300D02*
X6416874Y-14035824D01*
X6416874Y-14035824D02*
X6397826Y-14035824D01*
X6397826Y-14035824D02*
X6378779Y-14026300D01*
X6378779Y-14026300D02*
X6369255Y-14016776D01*
X6369255Y-14016776D02*
X6359731Y-13997728D01*
X6359731Y-13997728D02*
X6350207Y-13959633D01*
X6350207Y-13959633D02*
X6350207Y-13912014D01*
X6350207Y-13912014D02*
X6359731Y-13873919D01*
X6359731Y-13873919D02*
X6369255Y-13854871D01*
X6369255Y-13854871D02*
X6378779Y-13845348D01*
X6378779Y-13845348D02*
X6397826Y-13835824D01*
X6550207Y-14016776D02*
X6559731Y-14026300D01*
X6559731Y-14026300D02*
X6550207Y-14035824D01*
X6550207Y-14035824D02*
X6540683Y-14026300D01*
X6540683Y-14026300D02*
X6550207Y-14016776D01*
X6550207Y-14016776D02*
X6550207Y-14035824D01*
X6683541Y-13835824D02*
X6702588Y-13835824D01*
X6702588Y-13835824D02*
X6721636Y-13845348D01*
X6721636Y-13845348D02*
X6731160Y-13854871D01*
X6731160Y-13854871D02*
X6740683Y-13873919D01*
X6740683Y-13873919D02*
X6750207Y-13912014D01*
X6750207Y-13912014D02*
X6750207Y-13959633D01*
X6750207Y-13959633D02*
X6740683Y-13997728D01*
X6740683Y-13997728D02*
X6731160Y-14016776D01*
X6731160Y-14016776D02*
X6721636Y-14026300D01*
X6721636Y-14026300D02*
X6702588Y-14035824D01*
X6702588Y-14035824D02*
X6683541Y-14035824D01*
X6683541Y-14035824D02*
X6664493Y-14026300D01*
X6664493Y-14026300D02*
X6654969Y-14016776D01*
X6654969Y-14016776D02*
X6645445Y-13997728D01*
X6645445Y-13997728D02*
X6635922Y-13959633D01*
X6635922Y-13959633D02*
X6635922Y-13912014D01*
X6635922Y-13912014D02*
X6645445Y-13873919D01*
X6645445Y-13873919D02*
X6654969Y-13854871D01*
X6654969Y-13854871D02*
X6664493Y-13845348D01*
X6664493Y-13845348D02*
X6683541Y-13835824D01*
X6940683Y-14035824D02*
X6826398Y-14035824D01*
X6883541Y-14035824D02*
X6883541Y-13835824D01*
X6883541Y-13835824D02*
X6864493Y-13864395D01*
X6864493Y-13864395D02*
X6845445Y-13883443D01*
X6845445Y-13883443D02*
X6826398Y-13892967D01*
X7121636Y-13835824D02*
X7026398Y-13835824D01*
X7026398Y-13835824D02*
X7016874Y-13931062D01*
X7016874Y-13931062D02*
X7026398Y-13921538D01*
X7026398Y-13921538D02*
X7045445Y-13912014D01*
X7045445Y-13912014D02*
X7093064Y-13912014D01*
X7093064Y-13912014D02*
X7112112Y-13921538D01*
X7112112Y-13921538D02*
X7121636Y-13931062D01*
X7121636Y-13931062D02*
X7131160Y-13950109D01*
X7131160Y-13950109D02*
X7131160Y-13997728D01*
X7131160Y-13997728D02*
X7121636Y-14016776D01*
X7121636Y-14016776D02*
X7112112Y-14026300D01*
X7112112Y-14026300D02*
X7093064Y-14035824D01*
X7093064Y-14035824D02*
X7045445Y-14035824D01*
X7045445Y-14035824D02*
X7026398Y-14026300D01*
X7026398Y-14026300D02*
X7016874Y-14016776D01*
X7197826Y-13835824D02*
X7331160Y-13835824D01*
X7331160Y-13835824D02*
X7245445Y-14035824D01*
X7397826Y-13835824D02*
X7397826Y-13873919D01*
X7474017Y-13835824D02*
X7474017Y-13873919D01*
X7769255Y-14112014D02*
X7759731Y-14102490D01*
X7759731Y-14102490D02*
X7740684Y-14073919D01*
X7740684Y-14073919D02*
X7731160Y-14054871D01*
X7731160Y-14054871D02*
X7721636Y-14026300D01*
X7721636Y-14026300D02*
X7712112Y-13978681D01*
X7712112Y-13978681D02*
X7712112Y-13940586D01*
X7712112Y-13940586D02*
X7721636Y-13892967D01*
X7721636Y-13892967D02*
X7731160Y-13864395D01*
X7731160Y-13864395D02*
X7740684Y-13845348D01*
X7740684Y-13845348D02*
X7759731Y-13816776D01*
X7759731Y-13816776D02*
X7769255Y-13807252D01*
X7835922Y-13854871D02*
X7845445Y-13845348D01*
X7845445Y-13845348D02*
X7864493Y-13835824D01*
X7864493Y-13835824D02*
X7912112Y-13835824D01*
X7912112Y-13835824D02*
X7931160Y-13845348D01*
X7931160Y-13845348D02*
X7940684Y-13854871D01*
X7940684Y-13854871D02*
X7950207Y-13873919D01*
X7950207Y-13873919D02*
X7950207Y-13892967D01*
X7950207Y-13892967D02*
X7940684Y-13921538D01*
X7940684Y-13921538D02*
X7826398Y-14035824D01*
X7826398Y-14035824D02*
X7950207Y-14035824D01*
X8188303Y-14035824D02*
X8188303Y-13835824D01*
X8274017Y-14035824D02*
X8274017Y-13931062D01*
X8274017Y-13931062D02*
X8264493Y-13912014D01*
X8264493Y-13912014D02*
X8245446Y-13902490D01*
X8245446Y-13902490D02*
X8216874Y-13902490D01*
X8216874Y-13902490D02*
X8197826Y-13912014D01*
X8197826Y-13912014D02*
X8188303Y-13921538D01*
X8397827Y-14035824D02*
X8378779Y-14026300D01*
X8378779Y-14026300D02*
X8369255Y-14016776D01*
X8369255Y-14016776D02*
X8359731Y-13997728D01*
X8359731Y-13997728D02*
X8359731Y-13940586D01*
X8359731Y-13940586D02*
X8369255Y-13921538D01*
X8369255Y-13921538D02*
X8378779Y-13912014D01*
X8378779Y-13912014D02*
X8397827Y-13902490D01*
X8397827Y-13902490D02*
X8426398Y-13902490D01*
X8426398Y-13902490D02*
X8445446Y-13912014D01*
X8445446Y-13912014D02*
X8454969Y-13921538D01*
X8454969Y-13921538D02*
X8464493Y-13940586D01*
X8464493Y-13940586D02*
X8464493Y-13997728D01*
X8464493Y-13997728D02*
X8454969Y-14016776D01*
X8454969Y-14016776D02*
X8445446Y-14026300D01*
X8445446Y-14026300D02*
X8426398Y-14035824D01*
X8426398Y-14035824D02*
X8397827Y-14035824D01*
X8578779Y-14035824D02*
X8559731Y-14026300D01*
X8559731Y-14026300D02*
X8550208Y-14007252D01*
X8550208Y-14007252D02*
X8550208Y-13835824D01*
X8731160Y-14026300D02*
X8712112Y-14035824D01*
X8712112Y-14035824D02*
X8674017Y-14035824D01*
X8674017Y-14035824D02*
X8654969Y-14026300D01*
X8654969Y-14026300D02*
X8645446Y-14007252D01*
X8645446Y-14007252D02*
X8645446Y-13931062D01*
X8645446Y-13931062D02*
X8654969Y-13912014D01*
X8654969Y-13912014D02*
X8674017Y-13902490D01*
X8674017Y-13902490D02*
X8712112Y-13902490D01*
X8712112Y-13902490D02*
X8731160Y-13912014D01*
X8731160Y-13912014D02*
X8740684Y-13931062D01*
X8740684Y-13931062D02*
X8740684Y-13950109D01*
X8740684Y-13950109D02*
X8645446Y-13969157D01*
X8816874Y-14026300D02*
X8835922Y-14035824D01*
X8835922Y-14035824D02*
X8874017Y-14035824D01*
X8874017Y-14035824D02*
X8893065Y-14026300D01*
X8893065Y-14026300D02*
X8902589Y-14007252D01*
X8902589Y-14007252D02*
X8902589Y-13997728D01*
X8902589Y-13997728D02*
X8893065Y-13978681D01*
X8893065Y-13978681D02*
X8874017Y-13969157D01*
X8874017Y-13969157D02*
X8845446Y-13969157D01*
X8845446Y-13969157D02*
X8826398Y-13959633D01*
X8826398Y-13959633D02*
X8816874Y-13940586D01*
X8816874Y-13940586D02*
X8816874Y-13931062D01*
X8816874Y-13931062D02*
X8826398Y-13912014D01*
X8826398Y-13912014D02*
X8845446Y-13902490D01*
X8845446Y-13902490D02*
X8874017Y-13902490D01*
X8874017Y-13902490D02*
X8893065Y-13912014D01*
X8969255Y-14112014D02*
X8978779Y-14102490D01*
X8978779Y-14102490D02*
X8997827Y-14073919D01*
X8997827Y-14073919D02*
X9007350Y-14054871D01*
X9007350Y-14054871D02*
X9016874Y-14026300D01*
X9016874Y-14026300D02*
X9026398Y-13978681D01*
X9026398Y-13978681D02*
X9026398Y-13940586D01*
X9026398Y-13940586D02*
X9016874Y-13892967D01*
X9016874Y-13892967D02*
X9007350Y-13864395D01*
X9007350Y-13864395D02*
X8997827Y-13845348D01*
X8997827Y-13845348D02*
X8978779Y-13816776D01*
X8978779Y-13816776D02*
X8969255Y-13807252D01*
D13*
X4207350Y-14207300D02*
G75*
G03*
X4207350Y-14207300I-38000J0D01*
G01*
D11*
X4493064Y-14099824D02*
X4512112Y-14099824D01*
X4512112Y-14099824D02*
X4531160Y-14109348D01*
X4531160Y-14109348D02*
X4540683Y-14118871D01*
X4540683Y-14118871D02*
X4550207Y-14137919D01*
X4550207Y-14137919D02*
X4559731Y-14176014D01*
X4559731Y-14176014D02*
X4559731Y-14223633D01*
X4559731Y-14223633D02*
X4550207Y-14261728D01*
X4550207Y-14261728D02*
X4540683Y-14280776D01*
X4540683Y-14280776D02*
X4531160Y-14290300D01*
X4531160Y-14290300D02*
X4512112Y-14299824D01*
X4512112Y-14299824D02*
X4493064Y-14299824D01*
X4493064Y-14299824D02*
X4474017Y-14290300D01*
X4474017Y-14290300D02*
X4464493Y-14280776D01*
X4464493Y-14280776D02*
X4454969Y-14261728D01*
X4454969Y-14261728D02*
X4445445Y-14223633D01*
X4445445Y-14223633D02*
X4445445Y-14176014D01*
X4445445Y-14176014D02*
X4454969Y-14137919D01*
X4454969Y-14137919D02*
X4464493Y-14118871D01*
X4464493Y-14118871D02*
X4474017Y-14109348D01*
X4474017Y-14109348D02*
X4493064Y-14099824D01*
X4645445Y-14280776D02*
X4654969Y-14290300D01*
X4654969Y-14290300D02*
X4645445Y-14299824D01*
X4645445Y-14299824D02*
X4635921Y-14290300D01*
X4635921Y-14290300D02*
X4645445Y-14280776D01*
X4645445Y-14280776D02*
X4645445Y-14299824D01*
X4721636Y-14099824D02*
X4854969Y-14099824D01*
X4854969Y-14099824D02*
X4769255Y-14299824D01*
X5016874Y-14099824D02*
X4978779Y-14099824D01*
X4978779Y-14099824D02*
X4959731Y-14109348D01*
X4959731Y-14109348D02*
X4950207Y-14118871D01*
X4950207Y-14118871D02*
X4931160Y-14147443D01*
X4931160Y-14147443D02*
X4921636Y-14185538D01*
X4921636Y-14185538D02*
X4921636Y-14261728D01*
X4921636Y-14261728D02*
X4931160Y-14280776D01*
X4931160Y-14280776D02*
X4940683Y-14290300D01*
X4940683Y-14290300D02*
X4959731Y-14299824D01*
X4959731Y-14299824D02*
X4997826Y-14299824D01*
X4997826Y-14299824D02*
X5016874Y-14290300D01*
X5016874Y-14290300D02*
X5026398Y-14280776D01*
X5026398Y-14280776D02*
X5035921Y-14261728D01*
X5035921Y-14261728D02*
X5035921Y-14214109D01*
X5035921Y-14214109D02*
X5026398Y-14195062D01*
X5026398Y-14195062D02*
X5016874Y-14185538D01*
X5016874Y-14185538D02*
X4997826Y-14176014D01*
X4997826Y-14176014D02*
X4959731Y-14176014D01*
X4959731Y-14176014D02*
X4940683Y-14185538D01*
X4940683Y-14185538D02*
X4931160Y-14195062D01*
X4931160Y-14195062D02*
X4921636Y-14214109D01*
X5159731Y-14099824D02*
X5178779Y-14099824D01*
X5178779Y-14099824D02*
X5197826Y-14109348D01*
X5197826Y-14109348D02*
X5207350Y-14118871D01*
X5207350Y-14118871D02*
X5216874Y-14137919D01*
X5216874Y-14137919D02*
X5226398Y-14176014D01*
X5226398Y-14176014D02*
X5226398Y-14223633D01*
X5226398Y-14223633D02*
X5216874Y-14261728D01*
X5216874Y-14261728D02*
X5207350Y-14280776D01*
X5207350Y-14280776D02*
X5197826Y-14290300D01*
X5197826Y-14290300D02*
X5178779Y-14299824D01*
X5178779Y-14299824D02*
X5159731Y-14299824D01*
X5159731Y-14299824D02*
X5140683Y-14290300D01*
X5140683Y-14290300D02*
X5131160Y-14280776D01*
X5131160Y-14280776D02*
X5121636Y-14261728D01*
X5121636Y-14261728D02*
X5112112Y-14223633D01*
X5112112Y-14223633D02*
X5112112Y-14176014D01*
X5112112Y-14176014D02*
X5121636Y-14137919D01*
X5121636Y-14137919D02*
X5131160Y-14118871D01*
X5131160Y-14118871D02*
X5140683Y-14109348D01*
X5140683Y-14109348D02*
X5159731Y-14099824D01*
X5312112Y-14299824D02*
X5312112Y-14166490D01*
X5312112Y-14185538D02*
X5321636Y-14176014D01*
X5321636Y-14176014D02*
X5340683Y-14166490D01*
X5340683Y-14166490D02*
X5369255Y-14166490D01*
X5369255Y-14166490D02*
X5388302Y-14176014D01*
X5388302Y-14176014D02*
X5397826Y-14195062D01*
X5397826Y-14195062D02*
X5397826Y-14299824D01*
X5397826Y-14195062D02*
X5407350Y-14176014D01*
X5407350Y-14176014D02*
X5426398Y-14166490D01*
X5426398Y-14166490D02*
X5454969Y-14166490D01*
X5454969Y-14166490D02*
X5474017Y-14176014D01*
X5474017Y-14176014D02*
X5483541Y-14195062D01*
X5483541Y-14195062D02*
X5483541Y-14299824D01*
X5578779Y-14299824D02*
X5578779Y-14166490D01*
X5578779Y-14185538D02*
X5588302Y-14176014D01*
X5588302Y-14176014D02*
X5607350Y-14166490D01*
X5607350Y-14166490D02*
X5635921Y-14166490D01*
X5635921Y-14166490D02*
X5654969Y-14176014D01*
X5654969Y-14176014D02*
X5664493Y-14195062D01*
X5664493Y-14195062D02*
X5664493Y-14299824D01*
X5664493Y-14195062D02*
X5674017Y-14176014D01*
X5674017Y-14176014D02*
X5693064Y-14166490D01*
X5693064Y-14166490D02*
X5721636Y-14166490D01*
X5721636Y-14166490D02*
X5740683Y-14176014D01*
X5740683Y-14176014D02*
X5750207Y-14195062D01*
X5750207Y-14195062D02*
X5750207Y-14299824D01*
X6140683Y-14090300D02*
X5969255Y-14347443D01*
X6397826Y-14099824D02*
X6416874Y-14099824D01*
X6416874Y-14099824D02*
X6435922Y-14109348D01*
X6435922Y-14109348D02*
X6445445Y-14118871D01*
X6445445Y-14118871D02*
X6454969Y-14137919D01*
X6454969Y-14137919D02*
X6464493Y-14176014D01*
X6464493Y-14176014D02*
X6464493Y-14223633D01*
X6464493Y-14223633D02*
X6454969Y-14261728D01*
X6454969Y-14261728D02*
X6445445Y-14280776D01*
X6445445Y-14280776D02*
X6435922Y-14290300D01*
X6435922Y-14290300D02*
X6416874Y-14299824D01*
X6416874Y-14299824D02*
X6397826Y-14299824D01*
X6397826Y-14299824D02*
X6378779Y-14290300D01*
X6378779Y-14290300D02*
X6369255Y-14280776D01*
X6369255Y-14280776D02*
X6359731Y-14261728D01*
X6359731Y-14261728D02*
X6350207Y-14223633D01*
X6350207Y-14223633D02*
X6350207Y-14176014D01*
X6350207Y-14176014D02*
X6359731Y-14137919D01*
X6359731Y-14137919D02*
X6369255Y-14118871D01*
X6369255Y-14118871D02*
X6378779Y-14109348D01*
X6378779Y-14109348D02*
X6397826Y-14099824D01*
X6550207Y-14280776D02*
X6559731Y-14290300D01*
X6559731Y-14290300D02*
X6550207Y-14299824D01*
X6550207Y-14299824D02*
X6540683Y-14290300D01*
X6540683Y-14290300D02*
X6550207Y-14280776D01*
X6550207Y-14280776D02*
X6550207Y-14299824D01*
X6683541Y-14099824D02*
X6702588Y-14099824D01*
X6702588Y-14099824D02*
X6721636Y-14109348D01*
X6721636Y-14109348D02*
X6731160Y-14118871D01*
X6731160Y-14118871D02*
X6740683Y-14137919D01*
X6740683Y-14137919D02*
X6750207Y-14176014D01*
X6750207Y-14176014D02*
X6750207Y-14223633D01*
X6750207Y-14223633D02*
X6740683Y-14261728D01*
X6740683Y-14261728D02*
X6731160Y-14280776D01*
X6731160Y-14280776D02*
X6721636Y-14290300D01*
X6721636Y-14290300D02*
X6702588Y-14299824D01*
X6702588Y-14299824D02*
X6683541Y-14299824D01*
X6683541Y-14299824D02*
X6664493Y-14290300D01*
X6664493Y-14290300D02*
X6654969Y-14280776D01*
X6654969Y-14280776D02*
X6645445Y-14261728D01*
X6645445Y-14261728D02*
X6635922Y-14223633D01*
X6635922Y-14223633D02*
X6635922Y-14176014D01*
X6635922Y-14176014D02*
X6645445Y-14137919D01*
X6645445Y-14137919D02*
X6654969Y-14118871D01*
X6654969Y-14118871D02*
X6664493Y-14109348D01*
X6664493Y-14109348D02*
X6683541Y-14099824D01*
X6826398Y-14118871D02*
X6835922Y-14109348D01*
X6835922Y-14109348D02*
X6854969Y-14099824D01*
X6854969Y-14099824D02*
X6902588Y-14099824D01*
X6902588Y-14099824D02*
X6921636Y-14109348D01*
X6921636Y-14109348D02*
X6931160Y-14118871D01*
X6931160Y-14118871D02*
X6940683Y-14137919D01*
X6940683Y-14137919D02*
X6940683Y-14156967D01*
X6940683Y-14156967D02*
X6931160Y-14185538D01*
X6931160Y-14185538D02*
X6816874Y-14299824D01*
X6816874Y-14299824D02*
X6940683Y-14299824D01*
X7035922Y-14299824D02*
X7074017Y-14299824D01*
X7074017Y-14299824D02*
X7093064Y-14290300D01*
X7093064Y-14290300D02*
X7102588Y-14280776D01*
X7102588Y-14280776D02*
X7121636Y-14252205D01*
X7121636Y-14252205D02*
X7131160Y-14214109D01*
X7131160Y-14214109D02*
X7131160Y-14137919D01*
X7131160Y-14137919D02*
X7121636Y-14118871D01*
X7121636Y-14118871D02*
X7112112Y-14109348D01*
X7112112Y-14109348D02*
X7093064Y-14099824D01*
X7093064Y-14099824D02*
X7054969Y-14099824D01*
X7054969Y-14099824D02*
X7035922Y-14109348D01*
X7035922Y-14109348D02*
X7026398Y-14118871D01*
X7026398Y-14118871D02*
X7016874Y-14137919D01*
X7016874Y-14137919D02*
X7016874Y-14185538D01*
X7016874Y-14185538D02*
X7026398Y-14204586D01*
X7026398Y-14204586D02*
X7035922Y-14214109D01*
X7035922Y-14214109D02*
X7054969Y-14223633D01*
X7054969Y-14223633D02*
X7093064Y-14223633D01*
X7093064Y-14223633D02*
X7112112Y-14214109D01*
X7112112Y-14214109D02*
X7121636Y-14204586D01*
X7121636Y-14204586D02*
X7131160Y-14185538D01*
X7226398Y-14299824D02*
X7264493Y-14299824D01*
X7264493Y-14299824D02*
X7283541Y-14290300D01*
X7283541Y-14290300D02*
X7293064Y-14280776D01*
X7293064Y-14280776D02*
X7312112Y-14252205D01*
X7312112Y-14252205D02*
X7321636Y-14214109D01*
X7321636Y-14214109D02*
X7321636Y-14137919D01*
X7321636Y-14137919D02*
X7312112Y-14118871D01*
X7312112Y-14118871D02*
X7302588Y-14109348D01*
X7302588Y-14109348D02*
X7283541Y-14099824D01*
X7283541Y-14099824D02*
X7245445Y-14099824D01*
X7245445Y-14099824D02*
X7226398Y-14109348D01*
X7226398Y-14109348D02*
X7216874Y-14118871D01*
X7216874Y-14118871D02*
X7207350Y-14137919D01*
X7207350Y-14137919D02*
X7207350Y-14185538D01*
X7207350Y-14185538D02*
X7216874Y-14204586D01*
X7216874Y-14204586D02*
X7226398Y-14214109D01*
X7226398Y-14214109D02*
X7245445Y-14223633D01*
X7245445Y-14223633D02*
X7283541Y-14223633D01*
X7283541Y-14223633D02*
X7302588Y-14214109D01*
X7302588Y-14214109D02*
X7312112Y-14204586D01*
X7312112Y-14204586D02*
X7321636Y-14185538D01*
X7397826Y-14099824D02*
X7397826Y-14137919D01*
X7474017Y-14099824D02*
X7474017Y-14137919D01*
X7769255Y-14376014D02*
X7759731Y-14366490D01*
X7759731Y-14366490D02*
X7740684Y-14337919D01*
X7740684Y-14337919D02*
X7731160Y-14318871D01*
X7731160Y-14318871D02*
X7721636Y-14290300D01*
X7721636Y-14290300D02*
X7712112Y-14242681D01*
X7712112Y-14242681D02*
X7712112Y-14204586D01*
X7712112Y-14204586D02*
X7721636Y-14156967D01*
X7721636Y-14156967D02*
X7731160Y-14128395D01*
X7731160Y-14128395D02*
X7740684Y-14109348D01*
X7740684Y-14109348D02*
X7759731Y-14080776D01*
X7759731Y-14080776D02*
X7769255Y-14071252D01*
X7835922Y-14118871D02*
X7845445Y-14109348D01*
X7845445Y-14109348D02*
X7864493Y-14099824D01*
X7864493Y-14099824D02*
X7912112Y-14099824D01*
X7912112Y-14099824D02*
X7931160Y-14109348D01*
X7931160Y-14109348D02*
X7940684Y-14118871D01*
X7940684Y-14118871D02*
X7950207Y-14137919D01*
X7950207Y-14137919D02*
X7950207Y-14156967D01*
X7950207Y-14156967D02*
X7940684Y-14185538D01*
X7940684Y-14185538D02*
X7826398Y-14299824D01*
X7826398Y-14299824D02*
X7950207Y-14299824D01*
X8121636Y-14166490D02*
X8121636Y-14299824D01*
X8074017Y-14090300D02*
X8026398Y-14233157D01*
X8026398Y-14233157D02*
X8150207Y-14233157D01*
X8378779Y-14299824D02*
X8378779Y-14099824D01*
X8464493Y-14299824D02*
X8464493Y-14195062D01*
X8464493Y-14195062D02*
X8454969Y-14176014D01*
X8454969Y-14176014D02*
X8435922Y-14166490D01*
X8435922Y-14166490D02*
X8407350Y-14166490D01*
X8407350Y-14166490D02*
X8388303Y-14176014D01*
X8388303Y-14176014D02*
X8378779Y-14185538D01*
X8588303Y-14299824D02*
X8569255Y-14290300D01*
X8569255Y-14290300D02*
X8559731Y-14280776D01*
X8559731Y-14280776D02*
X8550208Y-14261728D01*
X8550208Y-14261728D02*
X8550208Y-14204586D01*
X8550208Y-14204586D02*
X8559731Y-14185538D01*
X8559731Y-14185538D02*
X8569255Y-14176014D01*
X8569255Y-14176014D02*
X8588303Y-14166490D01*
X8588303Y-14166490D02*
X8616874Y-14166490D01*
X8616874Y-14166490D02*
X8635922Y-14176014D01*
X8635922Y-14176014D02*
X8645446Y-14185538D01*
X8645446Y-14185538D02*
X8654969Y-14204586D01*
X8654969Y-14204586D02*
X8654969Y-14261728D01*
X8654969Y-14261728D02*
X8645446Y-14280776D01*
X8645446Y-14280776D02*
X8635922Y-14290300D01*
X8635922Y-14290300D02*
X8616874Y-14299824D01*
X8616874Y-14299824D02*
X8588303Y-14299824D01*
X8769255Y-14299824D02*
X8750208Y-14290300D01*
X8750208Y-14290300D02*
X8740684Y-14271252D01*
X8740684Y-14271252D02*
X8740684Y-14099824D01*
X8921636Y-14290300D02*
X8902589Y-14299824D01*
X8902589Y-14299824D02*
X8864493Y-14299824D01*
X8864493Y-14299824D02*
X8845446Y-14290300D01*
X8845446Y-14290300D02*
X8835922Y-14271252D01*
X8835922Y-14271252D02*
X8835922Y-14195062D01*
X8835922Y-14195062D02*
X8845446Y-14176014D01*
X8845446Y-14176014D02*
X8864493Y-14166490D01*
X8864493Y-14166490D02*
X8902589Y-14166490D01*
X8902589Y-14166490D02*
X8921636Y-14176014D01*
X8921636Y-14176014D02*
X8931160Y-14195062D01*
X8931160Y-14195062D02*
X8931160Y-14214109D01*
X8931160Y-14214109D02*
X8835922Y-14233157D01*
X9007350Y-14290300D02*
X9026398Y-14299824D01*
X9026398Y-14299824D02*
X9064493Y-14299824D01*
X9064493Y-14299824D02*
X9083541Y-14290300D01*
X9083541Y-14290300D02*
X9093065Y-14271252D01*
X9093065Y-14271252D02*
X9093065Y-14261728D01*
X9093065Y-14261728D02*
X9083541Y-14242681D01*
X9083541Y-14242681D02*
X9064493Y-14233157D01*
X9064493Y-14233157D02*
X9035922Y-14233157D01*
X9035922Y-14233157D02*
X9016874Y-14223633D01*
X9016874Y-14223633D02*
X9007350Y-14204586D01*
X9007350Y-14204586D02*
X9007350Y-14195062D01*
X9007350Y-14195062D02*
X9016874Y-14176014D01*
X9016874Y-14176014D02*
X9035922Y-14166490D01*
X9035922Y-14166490D02*
X9064493Y-14166490D01*
X9064493Y-14166490D02*
X9083541Y-14176014D01*
X9159731Y-14376014D02*
X9169255Y-14366490D01*
X9169255Y-14366490D02*
X9188303Y-14337919D01*
X9188303Y-14337919D02*
X9197827Y-14318871D01*
X9197827Y-14318871D02*
X9207350Y-14290300D01*
X9207350Y-14290300D02*
X9216874Y-14242681D01*
X9216874Y-14242681D02*
X9216874Y-14204586D01*
X9216874Y-14204586D02*
X9207350Y-14156967D01*
X9207350Y-14156967D02*
X9197827Y-14128395D01*
X9197827Y-14128395D02*
X9188303Y-14109348D01*
X9188303Y-14109348D02*
X9169255Y-14080776D01*
X9169255Y-14080776D02*
X9159731Y-14071252D01*
D14*
X4167350Y-14431300D02*
X4167350Y-14511300D01*
X4127350Y-14471300D02*
X4207350Y-14471300D01*
D11*
X4493064Y-14363824D02*
X4512112Y-14363824D01*
X4512112Y-14363824D02*
X4531160Y-14373348D01*
X4531160Y-14373348D02*
X4540683Y-14382871D01*
X4540683Y-14382871D02*
X4550207Y-14401919D01*
X4550207Y-14401919D02*
X4559731Y-14440014D01*
X4559731Y-14440014D02*
X4559731Y-14487633D01*
X4559731Y-14487633D02*
X4550207Y-14525728D01*
X4550207Y-14525728D02*
X4540683Y-14544776D01*
X4540683Y-14544776D02*
X4531160Y-14554300D01*
X4531160Y-14554300D02*
X4512112Y-14563824D01*
X4512112Y-14563824D02*
X4493064Y-14563824D01*
X4493064Y-14563824D02*
X4474017Y-14554300D01*
X4474017Y-14554300D02*
X4464493Y-14544776D01*
X4464493Y-14544776D02*
X4454969Y-14525728D01*
X4454969Y-14525728D02*
X4445445Y-14487633D01*
X4445445Y-14487633D02*
X4445445Y-14440014D01*
X4445445Y-14440014D02*
X4454969Y-14401919D01*
X4454969Y-14401919D02*
X4464493Y-14382871D01*
X4464493Y-14382871D02*
X4474017Y-14373348D01*
X4474017Y-14373348D02*
X4493064Y-14363824D01*
X4645445Y-14544776D02*
X4654969Y-14554300D01*
X4654969Y-14554300D02*
X4645445Y-14563824D01*
X4645445Y-14563824D02*
X4635921Y-14554300D01*
X4635921Y-14554300D02*
X4645445Y-14544776D01*
X4645445Y-14544776D02*
X4645445Y-14563824D01*
X4769255Y-14449538D02*
X4750207Y-14440014D01*
X4750207Y-14440014D02*
X4740683Y-14430490D01*
X4740683Y-14430490D02*
X4731160Y-14411443D01*
X4731160Y-14411443D02*
X4731160Y-14401919D01*
X4731160Y-14401919D02*
X4740683Y-14382871D01*
X4740683Y-14382871D02*
X4750207Y-14373348D01*
X4750207Y-14373348D02*
X4769255Y-14363824D01*
X4769255Y-14363824D02*
X4807350Y-14363824D01*
X4807350Y-14363824D02*
X4826398Y-14373348D01*
X4826398Y-14373348D02*
X4835921Y-14382871D01*
X4835921Y-14382871D02*
X4845445Y-14401919D01*
X4845445Y-14401919D02*
X4845445Y-14411443D01*
X4845445Y-14411443D02*
X4835921Y-14430490D01*
X4835921Y-14430490D02*
X4826398Y-14440014D01*
X4826398Y-14440014D02*
X4807350Y-14449538D01*
X4807350Y-14449538D02*
X4769255Y-14449538D01*
X4769255Y-14449538D02*
X4750207Y-14459062D01*
X4750207Y-14459062D02*
X4740683Y-14468586D01*
X4740683Y-14468586D02*
X4731160Y-14487633D01*
X4731160Y-14487633D02*
X4731160Y-14525728D01*
X4731160Y-14525728D02*
X4740683Y-14544776D01*
X4740683Y-14544776D02*
X4750207Y-14554300D01*
X4750207Y-14554300D02*
X4769255Y-14563824D01*
X4769255Y-14563824D02*
X4807350Y-14563824D01*
X4807350Y-14563824D02*
X4826398Y-14554300D01*
X4826398Y-14554300D02*
X4835921Y-14544776D01*
X4835921Y-14544776D02*
X4845445Y-14525728D01*
X4845445Y-14525728D02*
X4845445Y-14487633D01*
X4845445Y-14487633D02*
X4835921Y-14468586D01*
X4835921Y-14468586D02*
X4826398Y-14459062D01*
X4826398Y-14459062D02*
X4807350Y-14449538D01*
X4969255Y-14363824D02*
X4988302Y-14363824D01*
X4988302Y-14363824D02*
X5007350Y-14373348D01*
X5007350Y-14373348D02*
X5016874Y-14382871D01*
X5016874Y-14382871D02*
X5026398Y-14401919D01*
X5026398Y-14401919D02*
X5035921Y-14440014D01*
X5035921Y-14440014D02*
X5035921Y-14487633D01*
X5035921Y-14487633D02*
X5026398Y-14525728D01*
X5026398Y-14525728D02*
X5016874Y-14544776D01*
X5016874Y-14544776D02*
X5007350Y-14554300D01*
X5007350Y-14554300D02*
X4988302Y-14563824D01*
X4988302Y-14563824D02*
X4969255Y-14563824D01*
X4969255Y-14563824D02*
X4950207Y-14554300D01*
X4950207Y-14554300D02*
X4940683Y-14544776D01*
X4940683Y-14544776D02*
X4931160Y-14525728D01*
X4931160Y-14525728D02*
X4921636Y-14487633D01*
X4921636Y-14487633D02*
X4921636Y-14440014D01*
X4921636Y-14440014D02*
X4931160Y-14401919D01*
X4931160Y-14401919D02*
X4940683Y-14382871D01*
X4940683Y-14382871D02*
X4950207Y-14373348D01*
X4950207Y-14373348D02*
X4969255Y-14363824D01*
X5159731Y-14363824D02*
X5178779Y-14363824D01*
X5178779Y-14363824D02*
X5197826Y-14373348D01*
X5197826Y-14373348D02*
X5207350Y-14382871D01*
X5207350Y-14382871D02*
X5216874Y-14401919D01*
X5216874Y-14401919D02*
X5226398Y-14440014D01*
X5226398Y-14440014D02*
X5226398Y-14487633D01*
X5226398Y-14487633D02*
X5216874Y-14525728D01*
X5216874Y-14525728D02*
X5207350Y-14544776D01*
X5207350Y-14544776D02*
X5197826Y-14554300D01*
X5197826Y-14554300D02*
X5178779Y-14563824D01*
X5178779Y-14563824D02*
X5159731Y-14563824D01*
X5159731Y-14563824D02*
X5140683Y-14554300D01*
X5140683Y-14554300D02*
X5131160Y-14544776D01*
X5131160Y-14544776D02*
X5121636Y-14525728D01*
X5121636Y-14525728D02*
X5112112Y-14487633D01*
X5112112Y-14487633D02*
X5112112Y-14440014D01*
X5112112Y-14440014D02*
X5121636Y-14401919D01*
X5121636Y-14401919D02*
X5131160Y-14382871D01*
X5131160Y-14382871D02*
X5140683Y-14373348D01*
X5140683Y-14373348D02*
X5159731Y-14363824D01*
X5312112Y-14563824D02*
X5312112Y-14430490D01*
X5312112Y-14449538D02*
X5321636Y-14440014D01*
X5321636Y-14440014D02*
X5340683Y-14430490D01*
X5340683Y-14430490D02*
X5369255Y-14430490D01*
X5369255Y-14430490D02*
X5388302Y-14440014D01*
X5388302Y-14440014D02*
X5397826Y-14459062D01*
X5397826Y-14459062D02*
X5397826Y-14563824D01*
X5397826Y-14459062D02*
X5407350Y-14440014D01*
X5407350Y-14440014D02*
X5426398Y-14430490D01*
X5426398Y-14430490D02*
X5454969Y-14430490D01*
X5454969Y-14430490D02*
X5474017Y-14440014D01*
X5474017Y-14440014D02*
X5483541Y-14459062D01*
X5483541Y-14459062D02*
X5483541Y-14563824D01*
X5578779Y-14563824D02*
X5578779Y-14430490D01*
X5578779Y-14449538D02*
X5588302Y-14440014D01*
X5588302Y-14440014D02*
X5607350Y-14430490D01*
X5607350Y-14430490D02*
X5635921Y-14430490D01*
X5635921Y-14430490D02*
X5654969Y-14440014D01*
X5654969Y-14440014D02*
X5664493Y-14459062D01*
X5664493Y-14459062D02*
X5664493Y-14563824D01*
X5664493Y-14459062D02*
X5674017Y-14440014D01*
X5674017Y-14440014D02*
X5693064Y-14430490D01*
X5693064Y-14430490D02*
X5721636Y-14430490D01*
X5721636Y-14430490D02*
X5740683Y-14440014D01*
X5740683Y-14440014D02*
X5750207Y-14459062D01*
X5750207Y-14459062D02*
X5750207Y-14563824D01*
X6140683Y-14354300D02*
X5969255Y-14611443D01*
X6397826Y-14363824D02*
X6416874Y-14363824D01*
X6416874Y-14363824D02*
X6435922Y-14373348D01*
X6435922Y-14373348D02*
X6445445Y-14382871D01*
X6445445Y-14382871D02*
X6454969Y-14401919D01*
X6454969Y-14401919D02*
X6464493Y-14440014D01*
X6464493Y-14440014D02*
X6464493Y-14487633D01*
X6464493Y-14487633D02*
X6454969Y-14525728D01*
X6454969Y-14525728D02*
X6445445Y-14544776D01*
X6445445Y-14544776D02*
X6435922Y-14554300D01*
X6435922Y-14554300D02*
X6416874Y-14563824D01*
X6416874Y-14563824D02*
X6397826Y-14563824D01*
X6397826Y-14563824D02*
X6378779Y-14554300D01*
X6378779Y-14554300D02*
X6369255Y-14544776D01*
X6369255Y-14544776D02*
X6359731Y-14525728D01*
X6359731Y-14525728D02*
X6350207Y-14487633D01*
X6350207Y-14487633D02*
X6350207Y-14440014D01*
X6350207Y-14440014D02*
X6359731Y-14401919D01*
X6359731Y-14401919D02*
X6369255Y-14382871D01*
X6369255Y-14382871D02*
X6378779Y-14373348D01*
X6378779Y-14373348D02*
X6397826Y-14363824D01*
X6550207Y-14544776D02*
X6559731Y-14554300D01*
X6559731Y-14554300D02*
X6550207Y-14563824D01*
X6550207Y-14563824D02*
X6540683Y-14554300D01*
X6540683Y-14554300D02*
X6550207Y-14544776D01*
X6550207Y-14544776D02*
X6550207Y-14563824D01*
X6683541Y-14363824D02*
X6702588Y-14363824D01*
X6702588Y-14363824D02*
X6721636Y-14373348D01*
X6721636Y-14373348D02*
X6731160Y-14382871D01*
X6731160Y-14382871D02*
X6740683Y-14401919D01*
X6740683Y-14401919D02*
X6750207Y-14440014D01*
X6750207Y-14440014D02*
X6750207Y-14487633D01*
X6750207Y-14487633D02*
X6740683Y-14525728D01*
X6740683Y-14525728D02*
X6731160Y-14544776D01*
X6731160Y-14544776D02*
X6721636Y-14554300D01*
X6721636Y-14554300D02*
X6702588Y-14563824D01*
X6702588Y-14563824D02*
X6683541Y-14563824D01*
X6683541Y-14563824D02*
X6664493Y-14554300D01*
X6664493Y-14554300D02*
X6654969Y-14544776D01*
X6654969Y-14544776D02*
X6645445Y-14525728D01*
X6645445Y-14525728D02*
X6635922Y-14487633D01*
X6635922Y-14487633D02*
X6635922Y-14440014D01*
X6635922Y-14440014D02*
X6645445Y-14401919D01*
X6645445Y-14401919D02*
X6654969Y-14382871D01*
X6654969Y-14382871D02*
X6664493Y-14373348D01*
X6664493Y-14373348D02*
X6683541Y-14363824D01*
X6816874Y-14363824D02*
X6940683Y-14363824D01*
X6940683Y-14363824D02*
X6874017Y-14440014D01*
X6874017Y-14440014D02*
X6902588Y-14440014D01*
X6902588Y-14440014D02*
X6921636Y-14449538D01*
X6921636Y-14449538D02*
X6931160Y-14459062D01*
X6931160Y-14459062D02*
X6940683Y-14478109D01*
X6940683Y-14478109D02*
X6940683Y-14525728D01*
X6940683Y-14525728D02*
X6931160Y-14544776D01*
X6931160Y-14544776D02*
X6921636Y-14554300D01*
X6921636Y-14554300D02*
X6902588Y-14563824D01*
X6902588Y-14563824D02*
X6845445Y-14563824D01*
X6845445Y-14563824D02*
X6826398Y-14554300D01*
X6826398Y-14554300D02*
X6816874Y-14544776D01*
X7131160Y-14563824D02*
X7016874Y-14563824D01*
X7074017Y-14563824D02*
X7074017Y-14363824D01*
X7074017Y-14363824D02*
X7054969Y-14392395D01*
X7054969Y-14392395D02*
X7035922Y-14411443D01*
X7035922Y-14411443D02*
X7016874Y-14420967D01*
X7312112Y-14363824D02*
X7216874Y-14363824D01*
X7216874Y-14363824D02*
X7207350Y-14459062D01*
X7207350Y-14459062D02*
X7216874Y-14449538D01*
X7216874Y-14449538D02*
X7235922Y-14440014D01*
X7235922Y-14440014D02*
X7283541Y-14440014D01*
X7283541Y-14440014D02*
X7302588Y-14449538D01*
X7302588Y-14449538D02*
X7312112Y-14459062D01*
X7312112Y-14459062D02*
X7321636Y-14478109D01*
X7321636Y-14478109D02*
X7321636Y-14525728D01*
X7321636Y-14525728D02*
X7312112Y-14544776D01*
X7312112Y-14544776D02*
X7302588Y-14554300D01*
X7302588Y-14554300D02*
X7283541Y-14563824D01*
X7283541Y-14563824D02*
X7235922Y-14563824D01*
X7235922Y-14563824D02*
X7216874Y-14554300D01*
X7216874Y-14554300D02*
X7207350Y-14544776D01*
X7397826Y-14363824D02*
X7397826Y-14401919D01*
X7474017Y-14363824D02*
X7474017Y-14401919D01*
X7769255Y-14640014D02*
X7759731Y-14630490D01*
X7759731Y-14630490D02*
X7740684Y-14601919D01*
X7740684Y-14601919D02*
X7731160Y-14582871D01*
X7731160Y-14582871D02*
X7721636Y-14554300D01*
X7721636Y-14554300D02*
X7712112Y-14506681D01*
X7712112Y-14506681D02*
X7712112Y-14468586D01*
X7712112Y-14468586D02*
X7721636Y-14420967D01*
X7721636Y-14420967D02*
X7731160Y-14392395D01*
X7731160Y-14392395D02*
X7740684Y-14373348D01*
X7740684Y-14373348D02*
X7759731Y-14344776D01*
X7759731Y-14344776D02*
X7769255Y-14335252D01*
X7835922Y-14382871D02*
X7845445Y-14373348D01*
X7845445Y-14373348D02*
X7864493Y-14363824D01*
X7864493Y-14363824D02*
X7912112Y-14363824D01*
X7912112Y-14363824D02*
X7931160Y-14373348D01*
X7931160Y-14373348D02*
X7940684Y-14382871D01*
X7940684Y-14382871D02*
X7950207Y-14401919D01*
X7950207Y-14401919D02*
X7950207Y-14420967D01*
X7950207Y-14420967D02*
X7940684Y-14449538D01*
X7940684Y-14449538D02*
X7826398Y-14563824D01*
X7826398Y-14563824D02*
X7950207Y-14563824D01*
X8121636Y-14430490D02*
X8121636Y-14563824D01*
X8074017Y-14354300D02*
X8026398Y-14497157D01*
X8026398Y-14497157D02*
X8150207Y-14497157D01*
X8378779Y-14563824D02*
X8378779Y-14363824D01*
X8464493Y-14563824D02*
X8464493Y-14459062D01*
X8464493Y-14459062D02*
X8454969Y-14440014D01*
X8454969Y-14440014D02*
X8435922Y-14430490D01*
X8435922Y-14430490D02*
X8407350Y-14430490D01*
X8407350Y-14430490D02*
X8388303Y-14440014D01*
X8388303Y-14440014D02*
X8378779Y-14449538D01*
X8588303Y-14563824D02*
X8569255Y-14554300D01*
X8569255Y-14554300D02*
X8559731Y-14544776D01*
X8559731Y-14544776D02*
X8550208Y-14525728D01*
X8550208Y-14525728D02*
X8550208Y-14468586D01*
X8550208Y-14468586D02*
X8559731Y-14449538D01*
X8559731Y-14449538D02*
X8569255Y-14440014D01*
X8569255Y-14440014D02*
X8588303Y-14430490D01*
X8588303Y-14430490D02*
X8616874Y-14430490D01*
X8616874Y-14430490D02*
X8635922Y-14440014D01*
X8635922Y-14440014D02*
X8645446Y-14449538D01*
X8645446Y-14449538D02*
X8654969Y-14468586D01*
X8654969Y-14468586D02*
X8654969Y-14525728D01*
X8654969Y-14525728D02*
X8645446Y-14544776D01*
X8645446Y-14544776D02*
X8635922Y-14554300D01*
X8635922Y-14554300D02*
X8616874Y-14563824D01*
X8616874Y-14563824D02*
X8588303Y-14563824D01*
X8769255Y-14563824D02*
X8750208Y-14554300D01*
X8750208Y-14554300D02*
X8740684Y-14535252D01*
X8740684Y-14535252D02*
X8740684Y-14363824D01*
X8921636Y-14554300D02*
X8902589Y-14563824D01*
X8902589Y-14563824D02*
X8864493Y-14563824D01*
X8864493Y-14563824D02*
X8845446Y-14554300D01*
X8845446Y-14554300D02*
X8835922Y-14535252D01*
X8835922Y-14535252D02*
X8835922Y-14459062D01*
X8835922Y-14459062D02*
X8845446Y-14440014D01*
X8845446Y-14440014D02*
X8864493Y-14430490D01*
X8864493Y-14430490D02*
X8902589Y-14430490D01*
X8902589Y-14430490D02*
X8921636Y-14440014D01*
X8921636Y-14440014D02*
X8931160Y-14459062D01*
X8931160Y-14459062D02*
X8931160Y-14478109D01*
X8931160Y-14478109D02*
X8835922Y-14497157D01*
X9007350Y-14554300D02*
X9026398Y-14563824D01*
X9026398Y-14563824D02*
X9064493Y-14563824D01*
X9064493Y-14563824D02*
X9083541Y-14554300D01*
X9083541Y-14554300D02*
X9093065Y-14535252D01*
X9093065Y-14535252D02*
X9093065Y-14525728D01*
X9093065Y-14525728D02*
X9083541Y-14506681D01*
X9083541Y-14506681D02*
X9064493Y-14497157D01*
X9064493Y-14497157D02*
X9035922Y-14497157D01*
X9035922Y-14497157D02*
X9016874Y-14487633D01*
X9016874Y-14487633D02*
X9007350Y-14468586D01*
X9007350Y-14468586D02*
X9007350Y-14459062D01*
X9007350Y-14459062D02*
X9016874Y-14440014D01*
X9016874Y-14440014D02*
X9035922Y-14430490D01*
X9035922Y-14430490D02*
X9064493Y-14430490D01*
X9064493Y-14430490D02*
X9083541Y-14440014D01*
X9159731Y-14640014D02*
X9169255Y-14630490D01*
X9169255Y-14630490D02*
X9188303Y-14601919D01*
X9188303Y-14601919D02*
X9197827Y-14582871D01*
X9197827Y-14582871D02*
X9207350Y-14554300D01*
X9207350Y-14554300D02*
X9216874Y-14506681D01*
X9216874Y-14506681D02*
X9216874Y-14468586D01*
X9216874Y-14468586D02*
X9207350Y-14420967D01*
X9207350Y-14420967D02*
X9197827Y-14392395D01*
X9197827Y-14392395D02*
X9188303Y-14373348D01*
X9188303Y-14373348D02*
X9169255Y-14344776D01*
X9169255Y-14344776D02*
X9159731Y-14335252D01*
D10*
X4192706Y-14770656D02*
X4192706Y-14699944D01*
X4121994Y-14699944D01*
X4121994Y-14770656D01*
X4192706Y-14770656D01*
D11*
X4559731Y-14827824D02*
X4445445Y-14827824D01*
X4502588Y-14827824D02*
X4502588Y-14627824D01*
X4502588Y-14627824D02*
X4483540Y-14656395D01*
X4483540Y-14656395D02*
X4464493Y-14675443D01*
X4464493Y-14675443D02*
X4445445Y-14684967D01*
X4645445Y-14808776D02*
X4654969Y-14818300D01*
X4654969Y-14818300D02*
X4645445Y-14827824D01*
X4645445Y-14827824D02*
X4635921Y-14818300D01*
X4635921Y-14818300D02*
X4645445Y-14808776D01*
X4645445Y-14808776D02*
X4645445Y-14827824D01*
X4778779Y-14627824D02*
X4797826Y-14627824D01*
X4797826Y-14627824D02*
X4816874Y-14637348D01*
X4816874Y-14637348D02*
X4826398Y-14646871D01*
X4826398Y-14646871D02*
X4835921Y-14665919D01*
X4835921Y-14665919D02*
X4845445Y-14704014D01*
X4845445Y-14704014D02*
X4845445Y-14751633D01*
X4845445Y-14751633D02*
X4835921Y-14789728D01*
X4835921Y-14789728D02*
X4826398Y-14808776D01*
X4826398Y-14808776D02*
X4816874Y-14818300D01*
X4816874Y-14818300D02*
X4797826Y-14827824D01*
X4797826Y-14827824D02*
X4778779Y-14827824D01*
X4778779Y-14827824D02*
X4759731Y-14818300D01*
X4759731Y-14818300D02*
X4750207Y-14808776D01*
X4750207Y-14808776D02*
X4740683Y-14789728D01*
X4740683Y-14789728D02*
X4731160Y-14751633D01*
X4731160Y-14751633D02*
X4731160Y-14704014D01*
X4731160Y-14704014D02*
X4740683Y-14665919D01*
X4740683Y-14665919D02*
X4750207Y-14646871D01*
X4750207Y-14646871D02*
X4759731Y-14637348D01*
X4759731Y-14637348D02*
X4778779Y-14627824D01*
X4969255Y-14627824D02*
X4988302Y-14627824D01*
X4988302Y-14627824D02*
X5007350Y-14637348D01*
X5007350Y-14637348D02*
X5016874Y-14646871D01*
X5016874Y-14646871D02*
X5026398Y-14665919D01*
X5026398Y-14665919D02*
X5035921Y-14704014D01*
X5035921Y-14704014D02*
X5035921Y-14751633D01*
X5035921Y-14751633D02*
X5026398Y-14789728D01*
X5026398Y-14789728D02*
X5016874Y-14808776D01*
X5016874Y-14808776D02*
X5007350Y-14818300D01*
X5007350Y-14818300D02*
X4988302Y-14827824D01*
X4988302Y-14827824D02*
X4969255Y-14827824D01*
X4969255Y-14827824D02*
X4950207Y-14818300D01*
X4950207Y-14818300D02*
X4940683Y-14808776D01*
X4940683Y-14808776D02*
X4931160Y-14789728D01*
X4931160Y-14789728D02*
X4921636Y-14751633D01*
X4921636Y-14751633D02*
X4921636Y-14704014D01*
X4921636Y-14704014D02*
X4931160Y-14665919D01*
X4931160Y-14665919D02*
X4940683Y-14646871D01*
X4940683Y-14646871D02*
X4950207Y-14637348D01*
X4950207Y-14637348D02*
X4969255Y-14627824D01*
X5159731Y-14627824D02*
X5178779Y-14627824D01*
X5178779Y-14627824D02*
X5197826Y-14637348D01*
X5197826Y-14637348D02*
X5207350Y-14646871D01*
X5207350Y-14646871D02*
X5216874Y-14665919D01*
X5216874Y-14665919D02*
X5226398Y-14704014D01*
X5226398Y-14704014D02*
X5226398Y-14751633D01*
X5226398Y-14751633D02*
X5216874Y-14789728D01*
X5216874Y-14789728D02*
X5207350Y-14808776D01*
X5207350Y-14808776D02*
X5197826Y-14818300D01*
X5197826Y-14818300D02*
X5178779Y-14827824D01*
X5178779Y-14827824D02*
X5159731Y-14827824D01*
X5159731Y-14827824D02*
X5140683Y-14818300D01*
X5140683Y-14818300D02*
X5131160Y-14808776D01*
X5131160Y-14808776D02*
X5121636Y-14789728D01*
X5121636Y-14789728D02*
X5112112Y-14751633D01*
X5112112Y-14751633D02*
X5112112Y-14704014D01*
X5112112Y-14704014D02*
X5121636Y-14665919D01*
X5121636Y-14665919D02*
X5131160Y-14646871D01*
X5131160Y-14646871D02*
X5140683Y-14637348D01*
X5140683Y-14637348D02*
X5159731Y-14627824D01*
X5312112Y-14827824D02*
X5312112Y-14694490D01*
X5312112Y-14713538D02*
X5321636Y-14704014D01*
X5321636Y-14704014D02*
X5340683Y-14694490D01*
X5340683Y-14694490D02*
X5369255Y-14694490D01*
X5369255Y-14694490D02*
X5388302Y-14704014D01*
X5388302Y-14704014D02*
X5397826Y-14723062D01*
X5397826Y-14723062D02*
X5397826Y-14827824D01*
X5397826Y-14723062D02*
X5407350Y-14704014D01*
X5407350Y-14704014D02*
X5426398Y-14694490D01*
X5426398Y-14694490D02*
X5454969Y-14694490D01*
X5454969Y-14694490D02*
X5474017Y-14704014D01*
X5474017Y-14704014D02*
X5483541Y-14723062D01*
X5483541Y-14723062D02*
X5483541Y-14827824D01*
X5578779Y-14827824D02*
X5578779Y-14694490D01*
X5578779Y-14713538D02*
X5588302Y-14704014D01*
X5588302Y-14704014D02*
X5607350Y-14694490D01*
X5607350Y-14694490D02*
X5635921Y-14694490D01*
X5635921Y-14694490D02*
X5654969Y-14704014D01*
X5654969Y-14704014D02*
X5664493Y-14723062D01*
X5664493Y-14723062D02*
X5664493Y-14827824D01*
X5664493Y-14723062D02*
X5674017Y-14704014D01*
X5674017Y-14704014D02*
X5693064Y-14694490D01*
X5693064Y-14694490D02*
X5721636Y-14694490D01*
X5721636Y-14694490D02*
X5740683Y-14704014D01*
X5740683Y-14704014D02*
X5750207Y-14723062D01*
X5750207Y-14723062D02*
X5750207Y-14827824D01*
X6140683Y-14618300D02*
X5969255Y-14875443D01*
X6397826Y-14627824D02*
X6416874Y-14627824D01*
X6416874Y-14627824D02*
X6435922Y-14637348D01*
X6435922Y-14637348D02*
X6445445Y-14646871D01*
X6445445Y-14646871D02*
X6454969Y-14665919D01*
X6454969Y-14665919D02*
X6464493Y-14704014D01*
X6464493Y-14704014D02*
X6464493Y-14751633D01*
X6464493Y-14751633D02*
X6454969Y-14789728D01*
X6454969Y-14789728D02*
X6445445Y-14808776D01*
X6445445Y-14808776D02*
X6435922Y-14818300D01*
X6435922Y-14818300D02*
X6416874Y-14827824D01*
X6416874Y-14827824D02*
X6397826Y-14827824D01*
X6397826Y-14827824D02*
X6378779Y-14818300D01*
X6378779Y-14818300D02*
X6369255Y-14808776D01*
X6369255Y-14808776D02*
X6359731Y-14789728D01*
X6359731Y-14789728D02*
X6350207Y-14751633D01*
X6350207Y-14751633D02*
X6350207Y-14704014D01*
X6350207Y-14704014D02*
X6359731Y-14665919D01*
X6359731Y-14665919D02*
X6369255Y-14646871D01*
X6369255Y-14646871D02*
X6378779Y-14637348D01*
X6378779Y-14637348D02*
X6397826Y-14627824D01*
X6550207Y-14808776D02*
X6559731Y-14818300D01*
X6559731Y-14818300D02*
X6550207Y-14827824D01*
X6550207Y-14827824D02*
X6540683Y-14818300D01*
X6540683Y-14818300D02*
X6550207Y-14808776D01*
X6550207Y-14808776D02*
X6550207Y-14827824D01*
X6683541Y-14627824D02*
X6702588Y-14627824D01*
X6702588Y-14627824D02*
X6721636Y-14637348D01*
X6721636Y-14637348D02*
X6731160Y-14646871D01*
X6731160Y-14646871D02*
X6740683Y-14665919D01*
X6740683Y-14665919D02*
X6750207Y-14704014D01*
X6750207Y-14704014D02*
X6750207Y-14751633D01*
X6750207Y-14751633D02*
X6740683Y-14789728D01*
X6740683Y-14789728D02*
X6731160Y-14808776D01*
X6731160Y-14808776D02*
X6721636Y-14818300D01*
X6721636Y-14818300D02*
X6702588Y-14827824D01*
X6702588Y-14827824D02*
X6683541Y-14827824D01*
X6683541Y-14827824D02*
X6664493Y-14818300D01*
X6664493Y-14818300D02*
X6654969Y-14808776D01*
X6654969Y-14808776D02*
X6645445Y-14789728D01*
X6645445Y-14789728D02*
X6635922Y-14751633D01*
X6635922Y-14751633D02*
X6635922Y-14704014D01*
X6635922Y-14704014D02*
X6645445Y-14665919D01*
X6645445Y-14665919D02*
X6654969Y-14646871D01*
X6654969Y-14646871D02*
X6664493Y-14637348D01*
X6664493Y-14637348D02*
X6683541Y-14627824D01*
X6816874Y-14627824D02*
X6940683Y-14627824D01*
X6940683Y-14627824D02*
X6874017Y-14704014D01*
X6874017Y-14704014D02*
X6902588Y-14704014D01*
X6902588Y-14704014D02*
X6921636Y-14713538D01*
X6921636Y-14713538D02*
X6931160Y-14723062D01*
X6931160Y-14723062D02*
X6940683Y-14742109D01*
X6940683Y-14742109D02*
X6940683Y-14789728D01*
X6940683Y-14789728D02*
X6931160Y-14808776D01*
X6931160Y-14808776D02*
X6921636Y-14818300D01*
X6921636Y-14818300D02*
X6902588Y-14827824D01*
X6902588Y-14827824D02*
X6845445Y-14827824D01*
X6845445Y-14827824D02*
X6826398Y-14818300D01*
X6826398Y-14818300D02*
X6816874Y-14808776D01*
X7035922Y-14827824D02*
X7074017Y-14827824D01*
X7074017Y-14827824D02*
X7093064Y-14818300D01*
X7093064Y-14818300D02*
X7102588Y-14808776D01*
X7102588Y-14808776D02*
X7121636Y-14780205D01*
X7121636Y-14780205D02*
X7131160Y-14742109D01*
X7131160Y-14742109D02*
X7131160Y-14665919D01*
X7131160Y-14665919D02*
X7121636Y-14646871D01*
X7121636Y-14646871D02*
X7112112Y-14637348D01*
X7112112Y-14637348D02*
X7093064Y-14627824D01*
X7093064Y-14627824D02*
X7054969Y-14627824D01*
X7054969Y-14627824D02*
X7035922Y-14637348D01*
X7035922Y-14637348D02*
X7026398Y-14646871D01*
X7026398Y-14646871D02*
X7016874Y-14665919D01*
X7016874Y-14665919D02*
X7016874Y-14713538D01*
X7016874Y-14713538D02*
X7026398Y-14732586D01*
X7026398Y-14732586D02*
X7035922Y-14742109D01*
X7035922Y-14742109D02*
X7054969Y-14751633D01*
X7054969Y-14751633D02*
X7093064Y-14751633D01*
X7093064Y-14751633D02*
X7112112Y-14742109D01*
X7112112Y-14742109D02*
X7121636Y-14732586D01*
X7121636Y-14732586D02*
X7131160Y-14713538D01*
X7302588Y-14694490D02*
X7302588Y-14827824D01*
X7254969Y-14618300D02*
X7207350Y-14761157D01*
X7207350Y-14761157D02*
X7331160Y-14761157D01*
X7397826Y-14627824D02*
X7397826Y-14665919D01*
X7474017Y-14627824D02*
X7474017Y-14665919D01*
X7769255Y-14904014D02*
X7759731Y-14894490D01*
X7759731Y-14894490D02*
X7740684Y-14865919D01*
X7740684Y-14865919D02*
X7731160Y-14846871D01*
X7731160Y-14846871D02*
X7721636Y-14818300D01*
X7721636Y-14818300D02*
X7712112Y-14770681D01*
X7712112Y-14770681D02*
X7712112Y-14732586D01*
X7712112Y-14732586D02*
X7721636Y-14684967D01*
X7721636Y-14684967D02*
X7731160Y-14656395D01*
X7731160Y-14656395D02*
X7740684Y-14637348D01*
X7740684Y-14637348D02*
X7759731Y-14608776D01*
X7759731Y-14608776D02*
X7769255Y-14599252D01*
X7826398Y-14627824D02*
X7950207Y-14627824D01*
X7950207Y-14627824D02*
X7883541Y-14704014D01*
X7883541Y-14704014D02*
X7912112Y-14704014D01*
X7912112Y-14704014D02*
X7931160Y-14713538D01*
X7931160Y-14713538D02*
X7940684Y-14723062D01*
X7940684Y-14723062D02*
X7950207Y-14742109D01*
X7950207Y-14742109D02*
X7950207Y-14789728D01*
X7950207Y-14789728D02*
X7940684Y-14808776D01*
X7940684Y-14808776D02*
X7931160Y-14818300D01*
X7931160Y-14818300D02*
X7912112Y-14827824D01*
X7912112Y-14827824D02*
X7854969Y-14827824D01*
X7854969Y-14827824D02*
X7835922Y-14818300D01*
X7835922Y-14818300D02*
X7826398Y-14808776D01*
X8026398Y-14646871D02*
X8035922Y-14637348D01*
X8035922Y-14637348D02*
X8054969Y-14627824D01*
X8054969Y-14627824D02*
X8102588Y-14627824D01*
X8102588Y-14627824D02*
X8121636Y-14637348D01*
X8121636Y-14637348D02*
X8131160Y-14646871D01*
X8131160Y-14646871D02*
X8140684Y-14665919D01*
X8140684Y-14665919D02*
X8140684Y-14684967D01*
X8140684Y-14684967D02*
X8131160Y-14713538D01*
X8131160Y-14713538D02*
X8016874Y-14827824D01*
X8016874Y-14827824D02*
X8140684Y-14827824D01*
X8378779Y-14827824D02*
X8378779Y-14627824D01*
X8464493Y-14827824D02*
X8464493Y-14723062D01*
X8464493Y-14723062D02*
X8454969Y-14704014D01*
X8454969Y-14704014D02*
X8435922Y-14694490D01*
X8435922Y-14694490D02*
X8407350Y-14694490D01*
X8407350Y-14694490D02*
X8388303Y-14704014D01*
X8388303Y-14704014D02*
X8378779Y-14713538D01*
X8588303Y-14827824D02*
X8569255Y-14818300D01*
X8569255Y-14818300D02*
X8559731Y-14808776D01*
X8559731Y-14808776D02*
X8550208Y-14789728D01*
X8550208Y-14789728D02*
X8550208Y-14732586D01*
X8550208Y-14732586D02*
X8559731Y-14713538D01*
X8559731Y-14713538D02*
X8569255Y-14704014D01*
X8569255Y-14704014D02*
X8588303Y-14694490D01*
X8588303Y-14694490D02*
X8616874Y-14694490D01*
X8616874Y-14694490D02*
X8635922Y-14704014D01*
X8635922Y-14704014D02*
X8645446Y-14713538D01*
X8645446Y-14713538D02*
X8654969Y-14732586D01*
X8654969Y-14732586D02*
X8654969Y-14789728D01*
X8654969Y-14789728D02*
X8645446Y-14808776D01*
X8645446Y-14808776D02*
X8635922Y-14818300D01*
X8635922Y-14818300D02*
X8616874Y-14827824D01*
X8616874Y-14827824D02*
X8588303Y-14827824D01*
X8769255Y-14827824D02*
X8750208Y-14818300D01*
X8750208Y-14818300D02*
X8740684Y-14799252D01*
X8740684Y-14799252D02*
X8740684Y-14627824D01*
X8921636Y-14818300D02*
X8902589Y-14827824D01*
X8902589Y-14827824D02*
X8864493Y-14827824D01*
X8864493Y-14827824D02*
X8845446Y-14818300D01*
X8845446Y-14818300D02*
X8835922Y-14799252D01*
X8835922Y-14799252D02*
X8835922Y-14723062D01*
X8835922Y-14723062D02*
X8845446Y-14704014D01*
X8845446Y-14704014D02*
X8864493Y-14694490D01*
X8864493Y-14694490D02*
X8902589Y-14694490D01*
X8902589Y-14694490D02*
X8921636Y-14704014D01*
X8921636Y-14704014D02*
X8931160Y-14723062D01*
X8931160Y-14723062D02*
X8931160Y-14742109D01*
X8931160Y-14742109D02*
X8835922Y-14761157D01*
X9007350Y-14818300D02*
X9026398Y-14827824D01*
X9026398Y-14827824D02*
X9064493Y-14827824D01*
X9064493Y-14827824D02*
X9083541Y-14818300D01*
X9083541Y-14818300D02*
X9093065Y-14799252D01*
X9093065Y-14799252D02*
X9093065Y-14789728D01*
X9093065Y-14789728D02*
X9083541Y-14770681D01*
X9083541Y-14770681D02*
X9064493Y-14761157D01*
X9064493Y-14761157D02*
X9035922Y-14761157D01*
X9035922Y-14761157D02*
X9016874Y-14751633D01*
X9016874Y-14751633D02*
X9007350Y-14732586D01*
X9007350Y-14732586D02*
X9007350Y-14723062D01*
X9007350Y-14723062D02*
X9016874Y-14704014D01*
X9016874Y-14704014D02*
X9035922Y-14694490D01*
X9035922Y-14694490D02*
X9064493Y-14694490D01*
X9064493Y-14694490D02*
X9083541Y-14704014D01*
X9159731Y-14904014D02*
X9169255Y-14894490D01*
X9169255Y-14894490D02*
X9188303Y-14865919D01*
X9188303Y-14865919D02*
X9197827Y-14846871D01*
X9197827Y-14846871D02*
X9207350Y-14818300D01*
X9207350Y-14818300D02*
X9216874Y-14770681D01*
X9216874Y-14770681D02*
X9216874Y-14732586D01*
X9216874Y-14732586D02*
X9207350Y-14684967D01*
X9207350Y-14684967D02*
X9197827Y-14656395D01*
X9197827Y-14656395D02*
X9188303Y-14637348D01*
X9188303Y-14637348D02*
X9169255Y-14608776D01*
X9169255Y-14608776D02*
X9159731Y-14599252D01*
D15*
X4137500Y-15069150D02*
X4207350Y-14999300D01*
X4137500Y-14929450D01*
X4067650Y-14999300D01*
X4137500Y-15069150D01*
D11*
X4559731Y-15091824D02*
X4445445Y-15091824D01*
X4502588Y-15091824D02*
X4502588Y-14891824D01*
X4502588Y-14891824D02*
X4483540Y-14920395D01*
X4483540Y-14920395D02*
X4464493Y-14939443D01*
X4464493Y-14939443D02*
X4445445Y-14948967D01*
X4645445Y-15072776D02*
X4654969Y-15082300D01*
X4654969Y-15082300D02*
X4645445Y-15091824D01*
X4645445Y-15091824D02*
X4635921Y-15082300D01*
X4635921Y-15082300D02*
X4645445Y-15072776D01*
X4645445Y-15072776D02*
X4645445Y-15091824D01*
X4721636Y-14891824D02*
X4845445Y-14891824D01*
X4845445Y-14891824D02*
X4778779Y-14968014D01*
X4778779Y-14968014D02*
X4807350Y-14968014D01*
X4807350Y-14968014D02*
X4826398Y-14977538D01*
X4826398Y-14977538D02*
X4835921Y-14987062D01*
X4835921Y-14987062D02*
X4845445Y-15006109D01*
X4845445Y-15006109D02*
X4845445Y-15053728D01*
X4845445Y-15053728D02*
X4835921Y-15072776D01*
X4835921Y-15072776D02*
X4826398Y-15082300D01*
X4826398Y-15082300D02*
X4807350Y-15091824D01*
X4807350Y-15091824D02*
X4750207Y-15091824D01*
X4750207Y-15091824D02*
X4731160Y-15082300D01*
X4731160Y-15082300D02*
X4721636Y-15072776D01*
X4940683Y-15091824D02*
X4978779Y-15091824D01*
X4978779Y-15091824D02*
X4997826Y-15082300D01*
X4997826Y-15082300D02*
X5007350Y-15072776D01*
X5007350Y-15072776D02*
X5026398Y-15044205D01*
X5026398Y-15044205D02*
X5035921Y-15006109D01*
X5035921Y-15006109D02*
X5035921Y-14929919D01*
X5035921Y-14929919D02*
X5026398Y-14910871D01*
X5026398Y-14910871D02*
X5016874Y-14901348D01*
X5016874Y-14901348D02*
X4997826Y-14891824D01*
X4997826Y-14891824D02*
X4959731Y-14891824D01*
X4959731Y-14891824D02*
X4940683Y-14901348D01*
X4940683Y-14901348D02*
X4931160Y-14910871D01*
X4931160Y-14910871D02*
X4921636Y-14929919D01*
X4921636Y-14929919D02*
X4921636Y-14977538D01*
X4921636Y-14977538D02*
X4931160Y-14996586D01*
X4931160Y-14996586D02*
X4940683Y-15006109D01*
X4940683Y-15006109D02*
X4959731Y-15015633D01*
X4959731Y-15015633D02*
X4997826Y-15015633D01*
X4997826Y-15015633D02*
X5016874Y-15006109D01*
X5016874Y-15006109D02*
X5026398Y-14996586D01*
X5026398Y-14996586D02*
X5035921Y-14977538D01*
X5102588Y-14891824D02*
X5235921Y-14891824D01*
X5235921Y-14891824D02*
X5150207Y-15091824D01*
X5312112Y-15091824D02*
X5312112Y-14958490D01*
X5312112Y-14977538D02*
X5321636Y-14968014D01*
X5321636Y-14968014D02*
X5340683Y-14958490D01*
X5340683Y-14958490D02*
X5369255Y-14958490D01*
X5369255Y-14958490D02*
X5388302Y-14968014D01*
X5388302Y-14968014D02*
X5397826Y-14987062D01*
X5397826Y-14987062D02*
X5397826Y-15091824D01*
X5397826Y-14987062D02*
X5407350Y-14968014D01*
X5407350Y-14968014D02*
X5426398Y-14958490D01*
X5426398Y-14958490D02*
X5454969Y-14958490D01*
X5454969Y-14958490D02*
X5474017Y-14968014D01*
X5474017Y-14968014D02*
X5483541Y-14987062D01*
X5483541Y-14987062D02*
X5483541Y-15091824D01*
X5578779Y-15091824D02*
X5578779Y-14958490D01*
X5578779Y-14977538D02*
X5588302Y-14968014D01*
X5588302Y-14968014D02*
X5607350Y-14958490D01*
X5607350Y-14958490D02*
X5635921Y-14958490D01*
X5635921Y-14958490D02*
X5654969Y-14968014D01*
X5654969Y-14968014D02*
X5664493Y-14987062D01*
X5664493Y-14987062D02*
X5664493Y-15091824D01*
X5664493Y-14987062D02*
X5674017Y-14968014D01*
X5674017Y-14968014D02*
X5693064Y-14958490D01*
X5693064Y-14958490D02*
X5721636Y-14958490D01*
X5721636Y-14958490D02*
X5740683Y-14968014D01*
X5740683Y-14968014D02*
X5750207Y-14987062D01*
X5750207Y-14987062D02*
X5750207Y-15091824D01*
X6140683Y-14882300D02*
X5969255Y-15139443D01*
X6397826Y-14891824D02*
X6416874Y-14891824D01*
X6416874Y-14891824D02*
X6435922Y-14901348D01*
X6435922Y-14901348D02*
X6445445Y-14910871D01*
X6445445Y-14910871D02*
X6454969Y-14929919D01*
X6454969Y-14929919D02*
X6464493Y-14968014D01*
X6464493Y-14968014D02*
X6464493Y-15015633D01*
X6464493Y-15015633D02*
X6454969Y-15053728D01*
X6454969Y-15053728D02*
X6445445Y-15072776D01*
X6445445Y-15072776D02*
X6435922Y-15082300D01*
X6435922Y-15082300D02*
X6416874Y-15091824D01*
X6416874Y-15091824D02*
X6397826Y-15091824D01*
X6397826Y-15091824D02*
X6378779Y-15082300D01*
X6378779Y-15082300D02*
X6369255Y-15072776D01*
X6369255Y-15072776D02*
X6359731Y-15053728D01*
X6359731Y-15053728D02*
X6350207Y-15015633D01*
X6350207Y-15015633D02*
X6350207Y-14968014D01*
X6350207Y-14968014D02*
X6359731Y-14929919D01*
X6359731Y-14929919D02*
X6369255Y-14910871D01*
X6369255Y-14910871D02*
X6378779Y-14901348D01*
X6378779Y-14901348D02*
X6397826Y-14891824D01*
X6550207Y-15072776D02*
X6559731Y-15082300D01*
X6559731Y-15082300D02*
X6550207Y-15091824D01*
X6550207Y-15091824D02*
X6540683Y-15082300D01*
X6540683Y-15082300D02*
X6550207Y-15072776D01*
X6550207Y-15072776D02*
X6550207Y-15091824D01*
X6683541Y-14891824D02*
X6702588Y-14891824D01*
X6702588Y-14891824D02*
X6721636Y-14901348D01*
X6721636Y-14901348D02*
X6731160Y-14910871D01*
X6731160Y-14910871D02*
X6740683Y-14929919D01*
X6740683Y-14929919D02*
X6750207Y-14968014D01*
X6750207Y-14968014D02*
X6750207Y-15015633D01*
X6750207Y-15015633D02*
X6740683Y-15053728D01*
X6740683Y-15053728D02*
X6731160Y-15072776D01*
X6731160Y-15072776D02*
X6721636Y-15082300D01*
X6721636Y-15082300D02*
X6702588Y-15091824D01*
X6702588Y-15091824D02*
X6683541Y-15091824D01*
X6683541Y-15091824D02*
X6664493Y-15082300D01*
X6664493Y-15082300D02*
X6654969Y-15072776D01*
X6654969Y-15072776D02*
X6645445Y-15053728D01*
X6645445Y-15053728D02*
X6635922Y-15015633D01*
X6635922Y-15015633D02*
X6635922Y-14968014D01*
X6635922Y-14968014D02*
X6645445Y-14929919D01*
X6645445Y-14929919D02*
X6654969Y-14910871D01*
X6654969Y-14910871D02*
X6664493Y-14901348D01*
X6664493Y-14901348D02*
X6683541Y-14891824D01*
X6931160Y-14891824D02*
X6835922Y-14891824D01*
X6835922Y-14891824D02*
X6826398Y-14987062D01*
X6826398Y-14987062D02*
X6835922Y-14977538D01*
X6835922Y-14977538D02*
X6854969Y-14968014D01*
X6854969Y-14968014D02*
X6902588Y-14968014D01*
X6902588Y-14968014D02*
X6921636Y-14977538D01*
X6921636Y-14977538D02*
X6931160Y-14987062D01*
X6931160Y-14987062D02*
X6940683Y-15006109D01*
X6940683Y-15006109D02*
X6940683Y-15053728D01*
X6940683Y-15053728D02*
X6931160Y-15072776D01*
X6931160Y-15072776D02*
X6921636Y-15082300D01*
X6921636Y-15082300D02*
X6902588Y-15091824D01*
X6902588Y-15091824D02*
X6854969Y-15091824D01*
X6854969Y-15091824D02*
X6835922Y-15082300D01*
X6835922Y-15082300D02*
X6826398Y-15072776D01*
X7121636Y-14891824D02*
X7026398Y-14891824D01*
X7026398Y-14891824D02*
X7016874Y-14987062D01*
X7016874Y-14987062D02*
X7026398Y-14977538D01*
X7026398Y-14977538D02*
X7045445Y-14968014D01*
X7045445Y-14968014D02*
X7093064Y-14968014D01*
X7093064Y-14968014D02*
X7112112Y-14977538D01*
X7112112Y-14977538D02*
X7121636Y-14987062D01*
X7121636Y-14987062D02*
X7131160Y-15006109D01*
X7131160Y-15006109D02*
X7131160Y-15053728D01*
X7131160Y-15053728D02*
X7121636Y-15072776D01*
X7121636Y-15072776D02*
X7112112Y-15082300D01*
X7112112Y-15082300D02*
X7093064Y-15091824D01*
X7093064Y-15091824D02*
X7045445Y-15091824D01*
X7045445Y-15091824D02*
X7026398Y-15082300D01*
X7026398Y-15082300D02*
X7016874Y-15072776D01*
X7254969Y-14891824D02*
X7274017Y-14891824D01*
X7274017Y-14891824D02*
X7293064Y-14901348D01*
X7293064Y-14901348D02*
X7302588Y-14910871D01*
X7302588Y-14910871D02*
X7312112Y-14929919D01*
X7312112Y-14929919D02*
X7321636Y-14968014D01*
X7321636Y-14968014D02*
X7321636Y-15015633D01*
X7321636Y-15015633D02*
X7312112Y-15053728D01*
X7312112Y-15053728D02*
X7302588Y-15072776D01*
X7302588Y-15072776D02*
X7293064Y-15082300D01*
X7293064Y-15082300D02*
X7274017Y-15091824D01*
X7274017Y-15091824D02*
X7254969Y-15091824D01*
X7254969Y-15091824D02*
X7235922Y-15082300D01*
X7235922Y-15082300D02*
X7226398Y-15072776D01*
X7226398Y-15072776D02*
X7216874Y-15053728D01*
X7216874Y-15053728D02*
X7207350Y-15015633D01*
X7207350Y-15015633D02*
X7207350Y-14968014D01*
X7207350Y-14968014D02*
X7216874Y-14929919D01*
X7216874Y-14929919D02*
X7226398Y-14910871D01*
X7226398Y-14910871D02*
X7235922Y-14901348D01*
X7235922Y-14901348D02*
X7254969Y-14891824D01*
X7397826Y-14891824D02*
X7397826Y-14929919D01*
X7474017Y-14891824D02*
X7474017Y-14929919D01*
X7769255Y-15168014D02*
X7759731Y-15158490D01*
X7759731Y-15158490D02*
X7740684Y-15129919D01*
X7740684Y-15129919D02*
X7731160Y-15110871D01*
X7731160Y-15110871D02*
X7721636Y-15082300D01*
X7721636Y-15082300D02*
X7712112Y-15034681D01*
X7712112Y-15034681D02*
X7712112Y-14996586D01*
X7712112Y-14996586D02*
X7721636Y-14948967D01*
X7721636Y-14948967D02*
X7731160Y-14920395D01*
X7731160Y-14920395D02*
X7740684Y-14901348D01*
X7740684Y-14901348D02*
X7759731Y-14872776D01*
X7759731Y-14872776D02*
X7769255Y-14863252D01*
X7950207Y-15091824D02*
X7835922Y-15091824D01*
X7893064Y-15091824D02*
X7893064Y-14891824D01*
X7893064Y-14891824D02*
X7874017Y-14920395D01*
X7874017Y-14920395D02*
X7854969Y-14939443D01*
X7854969Y-14939443D02*
X7835922Y-14948967D01*
X8121636Y-14891824D02*
X8083541Y-14891824D01*
X8083541Y-14891824D02*
X8064493Y-14901348D01*
X8064493Y-14901348D02*
X8054969Y-14910871D01*
X8054969Y-14910871D02*
X8035922Y-14939443D01*
X8035922Y-14939443D02*
X8026398Y-14977538D01*
X8026398Y-14977538D02*
X8026398Y-15053728D01*
X8026398Y-15053728D02*
X8035922Y-15072776D01*
X8035922Y-15072776D02*
X8045445Y-15082300D01*
X8045445Y-15082300D02*
X8064493Y-15091824D01*
X8064493Y-15091824D02*
X8102588Y-15091824D01*
X8102588Y-15091824D02*
X8121636Y-15082300D01*
X8121636Y-15082300D02*
X8131160Y-15072776D01*
X8131160Y-15072776D02*
X8140684Y-15053728D01*
X8140684Y-15053728D02*
X8140684Y-15006109D01*
X8140684Y-15006109D02*
X8131160Y-14987062D01*
X8131160Y-14987062D02*
X8121636Y-14977538D01*
X8121636Y-14977538D02*
X8102588Y-14968014D01*
X8102588Y-14968014D02*
X8064493Y-14968014D01*
X8064493Y-14968014D02*
X8045445Y-14977538D01*
X8045445Y-14977538D02*
X8035922Y-14987062D01*
X8035922Y-14987062D02*
X8026398Y-15006109D01*
X8378779Y-15091824D02*
X8378779Y-14891824D01*
X8464493Y-15091824D02*
X8464493Y-14987062D01*
X8464493Y-14987062D02*
X8454969Y-14968014D01*
X8454969Y-14968014D02*
X8435922Y-14958490D01*
X8435922Y-14958490D02*
X8407350Y-14958490D01*
X8407350Y-14958490D02*
X8388303Y-14968014D01*
X8388303Y-14968014D02*
X8378779Y-14977538D01*
X8588303Y-15091824D02*
X8569255Y-15082300D01*
X8569255Y-15082300D02*
X8559731Y-15072776D01*
X8559731Y-15072776D02*
X8550208Y-15053728D01*
X8550208Y-15053728D02*
X8550208Y-14996586D01*
X8550208Y-14996586D02*
X8559731Y-14977538D01*
X8559731Y-14977538D02*
X8569255Y-14968014D01*
X8569255Y-14968014D02*
X8588303Y-14958490D01*
X8588303Y-14958490D02*
X8616874Y-14958490D01*
X8616874Y-14958490D02*
X8635922Y-14968014D01*
X8635922Y-14968014D02*
X8645446Y-14977538D01*
X8645446Y-14977538D02*
X8654969Y-14996586D01*
X8654969Y-14996586D02*
X8654969Y-15053728D01*
X8654969Y-15053728D02*
X8645446Y-15072776D01*
X8645446Y-15072776D02*
X8635922Y-15082300D01*
X8635922Y-15082300D02*
X8616874Y-15091824D01*
X8616874Y-15091824D02*
X8588303Y-15091824D01*
X8769255Y-15091824D02*
X8750208Y-15082300D01*
X8750208Y-15082300D02*
X8740684Y-15063252D01*
X8740684Y-15063252D02*
X8740684Y-14891824D01*
X8921636Y-15082300D02*
X8902589Y-15091824D01*
X8902589Y-15091824D02*
X8864493Y-15091824D01*
X8864493Y-15091824D02*
X8845446Y-15082300D01*
X8845446Y-15082300D02*
X8835922Y-15063252D01*
X8835922Y-15063252D02*
X8835922Y-14987062D01*
X8835922Y-14987062D02*
X8845446Y-14968014D01*
X8845446Y-14968014D02*
X8864493Y-14958490D01*
X8864493Y-14958490D02*
X8902589Y-14958490D01*
X8902589Y-14958490D02*
X8921636Y-14968014D01*
X8921636Y-14968014D02*
X8931160Y-14987062D01*
X8931160Y-14987062D02*
X8931160Y-15006109D01*
X8931160Y-15006109D02*
X8835922Y-15025157D01*
X9007350Y-15082300D02*
X9026398Y-15091824D01*
X9026398Y-15091824D02*
X9064493Y-15091824D01*
X9064493Y-15091824D02*
X9083541Y-15082300D01*
X9083541Y-15082300D02*
X9093065Y-15063252D01*
X9093065Y-15063252D02*
X9093065Y-15053728D01*
X9093065Y-15053728D02*
X9083541Y-15034681D01*
X9083541Y-15034681D02*
X9064493Y-15025157D01*
X9064493Y-15025157D02*
X9035922Y-15025157D01*
X9035922Y-15025157D02*
X9016874Y-15015633D01*
X9016874Y-15015633D02*
X9007350Y-14996586D01*
X9007350Y-14996586D02*
X9007350Y-14987062D01*
X9007350Y-14987062D02*
X9016874Y-14968014D01*
X9016874Y-14968014D02*
X9035922Y-14958490D01*
X9035922Y-14958490D02*
X9064493Y-14958490D01*
X9064493Y-14958490D02*
X9083541Y-14968014D01*
X9159731Y-15168014D02*
X9169255Y-15158490D01*
X9169255Y-15158490D02*
X9188303Y-15129919D01*
X9188303Y-15129919D02*
X9197827Y-15110871D01*
X9197827Y-15110871D02*
X9207350Y-15082300D01*
X9207350Y-15082300D02*
X9216874Y-15034681D01*
X9216874Y-15034681D02*
X9216874Y-14996586D01*
X9216874Y-14996586D02*
X9207350Y-14948967D01*
X9207350Y-14948967D02*
X9197827Y-14920395D01*
X9197827Y-14920395D02*
X9188303Y-14901348D01*
X9188303Y-14901348D02*
X9169255Y-14872776D01*
X9169255Y-14872776D02*
X9159731Y-14863252D01*
D16*
X4049870Y-15184560D02*
X4207350Y-15342040D01*
X4207350Y-15184560D02*
X4049870Y-15342040D01*
X4207350Y-15263300D02*
G75*
G03*
X4207350Y-15263300I-78740J0D01*
G01*
D11*
X4559731Y-15355824D02*
X4445445Y-15355824D01*
X4502588Y-15355824D02*
X4502588Y-15155824D01*
X4502588Y-15155824D02*
X4483540Y-15184395D01*
X4483540Y-15184395D02*
X4464493Y-15203443D01*
X4464493Y-15203443D02*
X4445445Y-15212967D01*
X4645445Y-15336776D02*
X4654969Y-15346300D01*
X4654969Y-15346300D02*
X4645445Y-15355824D01*
X4645445Y-15355824D02*
X4635921Y-15346300D01*
X4635921Y-15346300D02*
X4645445Y-15336776D01*
X4645445Y-15336776D02*
X4645445Y-15355824D01*
X4835921Y-15155824D02*
X4740683Y-15155824D01*
X4740683Y-15155824D02*
X4731160Y-15251062D01*
X4731160Y-15251062D02*
X4740683Y-15241538D01*
X4740683Y-15241538D02*
X4759731Y-15232014D01*
X4759731Y-15232014D02*
X4807350Y-15232014D01*
X4807350Y-15232014D02*
X4826398Y-15241538D01*
X4826398Y-15241538D02*
X4835921Y-15251062D01*
X4835921Y-15251062D02*
X4845445Y-15270109D01*
X4845445Y-15270109D02*
X4845445Y-15317728D01*
X4845445Y-15317728D02*
X4835921Y-15336776D01*
X4835921Y-15336776D02*
X4826398Y-15346300D01*
X4826398Y-15346300D02*
X4807350Y-15355824D01*
X4807350Y-15355824D02*
X4759731Y-15355824D01*
X4759731Y-15355824D02*
X4740683Y-15346300D01*
X4740683Y-15346300D02*
X4731160Y-15336776D01*
X4912112Y-15155824D02*
X5045445Y-15155824D01*
X5045445Y-15155824D02*
X4959731Y-15355824D01*
X5216874Y-15155824D02*
X5121636Y-15155824D01*
X5121636Y-15155824D02*
X5112112Y-15251062D01*
X5112112Y-15251062D02*
X5121636Y-15241538D01*
X5121636Y-15241538D02*
X5140683Y-15232014D01*
X5140683Y-15232014D02*
X5188302Y-15232014D01*
X5188302Y-15232014D02*
X5207350Y-15241538D01*
X5207350Y-15241538D02*
X5216874Y-15251062D01*
X5216874Y-15251062D02*
X5226398Y-15270109D01*
X5226398Y-15270109D02*
X5226398Y-15317728D01*
X5226398Y-15317728D02*
X5216874Y-15336776D01*
X5216874Y-15336776D02*
X5207350Y-15346300D01*
X5207350Y-15346300D02*
X5188302Y-15355824D01*
X5188302Y-15355824D02*
X5140683Y-15355824D01*
X5140683Y-15355824D02*
X5121636Y-15346300D01*
X5121636Y-15346300D02*
X5112112Y-15336776D01*
X5312112Y-15355824D02*
X5312112Y-15222490D01*
X5312112Y-15241538D02*
X5321636Y-15232014D01*
X5321636Y-15232014D02*
X5340683Y-15222490D01*
X5340683Y-15222490D02*
X5369255Y-15222490D01*
X5369255Y-15222490D02*
X5388302Y-15232014D01*
X5388302Y-15232014D02*
X5397826Y-15251062D01*
X5397826Y-15251062D02*
X5397826Y-15355824D01*
X5397826Y-15251062D02*
X5407350Y-15232014D01*
X5407350Y-15232014D02*
X5426398Y-15222490D01*
X5426398Y-15222490D02*
X5454969Y-15222490D01*
X5454969Y-15222490D02*
X5474017Y-15232014D01*
X5474017Y-15232014D02*
X5483541Y-15251062D01*
X5483541Y-15251062D02*
X5483541Y-15355824D01*
X5578779Y-15355824D02*
X5578779Y-15222490D01*
X5578779Y-15241538D02*
X5588302Y-15232014D01*
X5588302Y-15232014D02*
X5607350Y-15222490D01*
X5607350Y-15222490D02*
X5635921Y-15222490D01*
X5635921Y-15222490D02*
X5654969Y-15232014D01*
X5654969Y-15232014D02*
X5664493Y-15251062D01*
X5664493Y-15251062D02*
X5664493Y-15355824D01*
X5664493Y-15251062D02*
X5674017Y-15232014D01*
X5674017Y-15232014D02*
X5693064Y-15222490D01*
X5693064Y-15222490D02*
X5721636Y-15222490D01*
X5721636Y-15222490D02*
X5740683Y-15232014D01*
X5740683Y-15232014D02*
X5750207Y-15251062D01*
X5750207Y-15251062D02*
X5750207Y-15355824D01*
X6140683Y-15146300D02*
X5969255Y-15403443D01*
X6397826Y-15155824D02*
X6416874Y-15155824D01*
X6416874Y-15155824D02*
X6435922Y-15165348D01*
X6435922Y-15165348D02*
X6445445Y-15174871D01*
X6445445Y-15174871D02*
X6454969Y-15193919D01*
X6454969Y-15193919D02*
X6464493Y-15232014D01*
X6464493Y-15232014D02*
X6464493Y-15279633D01*
X6464493Y-15279633D02*
X6454969Y-15317728D01*
X6454969Y-15317728D02*
X6445445Y-15336776D01*
X6445445Y-15336776D02*
X6435922Y-15346300D01*
X6435922Y-15346300D02*
X6416874Y-15355824D01*
X6416874Y-15355824D02*
X6397826Y-15355824D01*
X6397826Y-15355824D02*
X6378779Y-15346300D01*
X6378779Y-15346300D02*
X6369255Y-15336776D01*
X6369255Y-15336776D02*
X6359731Y-15317728D01*
X6359731Y-15317728D02*
X6350207Y-15279633D01*
X6350207Y-15279633D02*
X6350207Y-15232014D01*
X6350207Y-15232014D02*
X6359731Y-15193919D01*
X6359731Y-15193919D02*
X6369255Y-15174871D01*
X6369255Y-15174871D02*
X6378779Y-15165348D01*
X6378779Y-15165348D02*
X6397826Y-15155824D01*
X6550207Y-15336776D02*
X6559731Y-15346300D01*
X6559731Y-15346300D02*
X6550207Y-15355824D01*
X6550207Y-15355824D02*
X6540683Y-15346300D01*
X6540683Y-15346300D02*
X6550207Y-15336776D01*
X6550207Y-15336776D02*
X6550207Y-15355824D01*
X6683541Y-15155824D02*
X6702588Y-15155824D01*
X6702588Y-15155824D02*
X6721636Y-15165348D01*
X6721636Y-15165348D02*
X6731160Y-15174871D01*
X6731160Y-15174871D02*
X6740683Y-15193919D01*
X6740683Y-15193919D02*
X6750207Y-15232014D01*
X6750207Y-15232014D02*
X6750207Y-15279633D01*
X6750207Y-15279633D02*
X6740683Y-15317728D01*
X6740683Y-15317728D02*
X6731160Y-15336776D01*
X6731160Y-15336776D02*
X6721636Y-15346300D01*
X6721636Y-15346300D02*
X6702588Y-15355824D01*
X6702588Y-15355824D02*
X6683541Y-15355824D01*
X6683541Y-15355824D02*
X6664493Y-15346300D01*
X6664493Y-15346300D02*
X6654969Y-15336776D01*
X6654969Y-15336776D02*
X6645445Y-15317728D01*
X6645445Y-15317728D02*
X6635922Y-15279633D01*
X6635922Y-15279633D02*
X6635922Y-15232014D01*
X6635922Y-15232014D02*
X6645445Y-15193919D01*
X6645445Y-15193919D02*
X6654969Y-15174871D01*
X6654969Y-15174871D02*
X6664493Y-15165348D01*
X6664493Y-15165348D02*
X6683541Y-15155824D01*
X6921636Y-15155824D02*
X6883541Y-15155824D01*
X6883541Y-15155824D02*
X6864493Y-15165348D01*
X6864493Y-15165348D02*
X6854969Y-15174871D01*
X6854969Y-15174871D02*
X6835922Y-15203443D01*
X6835922Y-15203443D02*
X6826398Y-15241538D01*
X6826398Y-15241538D02*
X6826398Y-15317728D01*
X6826398Y-15317728D02*
X6835922Y-15336776D01*
X6835922Y-15336776D02*
X6845445Y-15346300D01*
X6845445Y-15346300D02*
X6864493Y-15355824D01*
X6864493Y-15355824D02*
X6902588Y-15355824D01*
X6902588Y-15355824D02*
X6921636Y-15346300D01*
X6921636Y-15346300D02*
X6931160Y-15336776D01*
X6931160Y-15336776D02*
X6940683Y-15317728D01*
X6940683Y-15317728D02*
X6940683Y-15270109D01*
X6940683Y-15270109D02*
X6931160Y-15251062D01*
X6931160Y-15251062D02*
X6921636Y-15241538D01*
X6921636Y-15241538D02*
X6902588Y-15232014D01*
X6902588Y-15232014D02*
X6864493Y-15232014D01*
X6864493Y-15232014D02*
X6845445Y-15241538D01*
X6845445Y-15241538D02*
X6835922Y-15251062D01*
X6835922Y-15251062D02*
X6826398Y-15270109D01*
X7016874Y-15174871D02*
X7026398Y-15165348D01*
X7026398Y-15165348D02*
X7045445Y-15155824D01*
X7045445Y-15155824D02*
X7093064Y-15155824D01*
X7093064Y-15155824D02*
X7112112Y-15165348D01*
X7112112Y-15165348D02*
X7121636Y-15174871D01*
X7121636Y-15174871D02*
X7131160Y-15193919D01*
X7131160Y-15193919D02*
X7131160Y-15212967D01*
X7131160Y-15212967D02*
X7121636Y-15241538D01*
X7121636Y-15241538D02*
X7007350Y-15355824D01*
X7007350Y-15355824D02*
X7131160Y-15355824D01*
X7254969Y-15155824D02*
X7274017Y-15155824D01*
X7274017Y-15155824D02*
X7293064Y-15165348D01*
X7293064Y-15165348D02*
X7302588Y-15174871D01*
X7302588Y-15174871D02*
X7312112Y-15193919D01*
X7312112Y-15193919D02*
X7321636Y-15232014D01*
X7321636Y-15232014D02*
X7321636Y-15279633D01*
X7321636Y-15279633D02*
X7312112Y-15317728D01*
X7312112Y-15317728D02*
X7302588Y-15336776D01*
X7302588Y-15336776D02*
X7293064Y-15346300D01*
X7293064Y-15346300D02*
X7274017Y-15355824D01*
X7274017Y-15355824D02*
X7254969Y-15355824D01*
X7254969Y-15355824D02*
X7235922Y-15346300D01*
X7235922Y-15346300D02*
X7226398Y-15336776D01*
X7226398Y-15336776D02*
X7216874Y-15317728D01*
X7216874Y-15317728D02*
X7207350Y-15279633D01*
X7207350Y-15279633D02*
X7207350Y-15232014D01*
X7207350Y-15232014D02*
X7216874Y-15193919D01*
X7216874Y-15193919D02*
X7226398Y-15174871D01*
X7226398Y-15174871D02*
X7235922Y-15165348D01*
X7235922Y-15165348D02*
X7254969Y-15155824D01*
X7397826Y-15155824D02*
X7397826Y-15193919D01*
X7474017Y-15155824D02*
X7474017Y-15193919D01*
X7769255Y-15432014D02*
X7759731Y-15422490D01*
X7759731Y-15422490D02*
X7740684Y-15393919D01*
X7740684Y-15393919D02*
X7731160Y-15374871D01*
X7731160Y-15374871D02*
X7721636Y-15346300D01*
X7721636Y-15346300D02*
X7712112Y-15298681D01*
X7712112Y-15298681D02*
X7712112Y-15260586D01*
X7712112Y-15260586D02*
X7721636Y-15212967D01*
X7721636Y-15212967D02*
X7731160Y-15184395D01*
X7731160Y-15184395D02*
X7740684Y-15165348D01*
X7740684Y-15165348D02*
X7759731Y-15136776D01*
X7759731Y-15136776D02*
X7769255Y-15127252D01*
X7950207Y-15355824D02*
X7835922Y-15355824D01*
X7893064Y-15355824D02*
X7893064Y-15155824D01*
X7893064Y-15155824D02*
X7874017Y-15184395D01*
X7874017Y-15184395D02*
X7854969Y-15203443D01*
X7854969Y-15203443D02*
X7835922Y-15212967D01*
X8121636Y-15155824D02*
X8083541Y-15155824D01*
X8083541Y-15155824D02*
X8064493Y-15165348D01*
X8064493Y-15165348D02*
X8054969Y-15174871D01*
X8054969Y-15174871D02*
X8035922Y-15203443D01*
X8035922Y-15203443D02*
X8026398Y-15241538D01*
X8026398Y-15241538D02*
X8026398Y-15317728D01*
X8026398Y-15317728D02*
X8035922Y-15336776D01*
X8035922Y-15336776D02*
X8045445Y-15346300D01*
X8045445Y-15346300D02*
X8064493Y-15355824D01*
X8064493Y-15355824D02*
X8102588Y-15355824D01*
X8102588Y-15355824D02*
X8121636Y-15346300D01*
X8121636Y-15346300D02*
X8131160Y-15336776D01*
X8131160Y-15336776D02*
X8140684Y-15317728D01*
X8140684Y-15317728D02*
X8140684Y-15270109D01*
X8140684Y-15270109D02*
X8131160Y-15251062D01*
X8131160Y-15251062D02*
X8121636Y-15241538D01*
X8121636Y-15241538D02*
X8102588Y-15232014D01*
X8102588Y-15232014D02*
X8064493Y-15232014D01*
X8064493Y-15232014D02*
X8045445Y-15241538D01*
X8045445Y-15241538D02*
X8035922Y-15251062D01*
X8035922Y-15251062D02*
X8026398Y-15270109D01*
X8378779Y-15355824D02*
X8378779Y-15155824D01*
X8464493Y-15355824D02*
X8464493Y-15251062D01*
X8464493Y-15251062D02*
X8454969Y-15232014D01*
X8454969Y-15232014D02*
X8435922Y-15222490D01*
X8435922Y-15222490D02*
X8407350Y-15222490D01*
X8407350Y-15222490D02*
X8388303Y-15232014D01*
X8388303Y-15232014D02*
X8378779Y-15241538D01*
X8588303Y-15355824D02*
X8569255Y-15346300D01*
X8569255Y-15346300D02*
X8559731Y-15336776D01*
X8559731Y-15336776D02*
X8550208Y-15317728D01*
X8550208Y-15317728D02*
X8550208Y-15260586D01*
X8550208Y-15260586D02*
X8559731Y-15241538D01*
X8559731Y-15241538D02*
X8569255Y-15232014D01*
X8569255Y-15232014D02*
X8588303Y-15222490D01*
X8588303Y-15222490D02*
X8616874Y-15222490D01*
X8616874Y-15222490D02*
X8635922Y-15232014D01*
X8635922Y-15232014D02*
X8645446Y-15241538D01*
X8645446Y-15241538D02*
X8654969Y-15260586D01*
X8654969Y-15260586D02*
X8654969Y-15317728D01*
X8654969Y-15317728D02*
X8645446Y-15336776D01*
X8645446Y-15336776D02*
X8635922Y-15346300D01*
X8635922Y-15346300D02*
X8616874Y-15355824D01*
X8616874Y-15355824D02*
X8588303Y-15355824D01*
X8769255Y-15355824D02*
X8750208Y-15346300D01*
X8750208Y-15346300D02*
X8740684Y-15327252D01*
X8740684Y-15327252D02*
X8740684Y-15155824D01*
X8921636Y-15346300D02*
X8902589Y-15355824D01*
X8902589Y-15355824D02*
X8864493Y-15355824D01*
X8864493Y-15355824D02*
X8845446Y-15346300D01*
X8845446Y-15346300D02*
X8835922Y-15327252D01*
X8835922Y-15327252D02*
X8835922Y-15251062D01*
X8835922Y-15251062D02*
X8845446Y-15232014D01*
X8845446Y-15232014D02*
X8864493Y-15222490D01*
X8864493Y-15222490D02*
X8902589Y-15222490D01*
X8902589Y-15222490D02*
X8921636Y-15232014D01*
X8921636Y-15232014D02*
X8931160Y-15251062D01*
X8931160Y-15251062D02*
X8931160Y-15270109D01*
X8931160Y-15270109D02*
X8835922Y-15289157D01*
X9007350Y-15346300D02*
X9026398Y-15355824D01*
X9026398Y-15355824D02*
X9064493Y-15355824D01*
X9064493Y-15355824D02*
X9083541Y-15346300D01*
X9083541Y-15346300D02*
X9093065Y-15327252D01*
X9093065Y-15327252D02*
X9093065Y-15317728D01*
X9093065Y-15317728D02*
X9083541Y-15298681D01*
X9083541Y-15298681D02*
X9064493Y-15289157D01*
X9064493Y-15289157D02*
X9035922Y-15289157D01*
X9035922Y-15289157D02*
X9016874Y-15279633D01*
X9016874Y-15279633D02*
X9007350Y-15260586D01*
X9007350Y-15260586D02*
X9007350Y-15251062D01*
X9007350Y-15251062D02*
X9016874Y-15232014D01*
X9016874Y-15232014D02*
X9035922Y-15222490D01*
X9035922Y-15222490D02*
X9064493Y-15222490D01*
X9064493Y-15222490D02*
X9083541Y-15232014D01*
X9159731Y-15432014D02*
X9169255Y-15422490D01*
X9169255Y-15422490D02*
X9188303Y-15393919D01*
X9188303Y-15393919D02*
X9197827Y-15374871D01*
X9197827Y-15374871D02*
X9207350Y-15346300D01*
X9207350Y-15346300D02*
X9216874Y-15298681D01*
X9216874Y-15298681D02*
X9216874Y-15260586D01*
X9216874Y-15260586D02*
X9207350Y-15212967D01*
X9207350Y-15212967D02*
X9197827Y-15184395D01*
X9197827Y-15184395D02*
X9188303Y-15165348D01*
X9188303Y-15165348D02*
X9169255Y-15136776D01*
X9169255Y-15136776D02*
X9159731Y-15127252D01*
M02*
