G04 #@! TF.GenerationSoftware,KiCad,Pcbnew,7.0.2*
G04 #@! TF.CreationDate,2023-10-25T06:33:51-04:00*
G04 #@! TF.ProjectId,MacroPad Base,4d616372-6f50-4616-9420-426173652e6b,rev?*
G04 #@! TF.SameCoordinates,Original*
G04 #@! TF.FileFunction,Copper,L2,Bot*
G04 #@! TF.FilePolarity,Positive*
%FSLAX46Y46*%
G04 Gerber Fmt 4.6, Leading zero omitted, Abs format (unit mm)*
G04 Created by KiCad (PCBNEW 7.0.2) date 2023-10-25 06:33:51*
%MOMM*%
%LPD*%
G01*
G04 APERTURE LIST*
G04 Aperture macros list*
%AMFreePoly0*
4,1,42,0.305846,1.074936,0.498157,1.000434,0.673504,0.891864,0.825916,0.752922,0.950203,0.588341,1.017866,0.452453,2.579378,1.070874,2.641060,1.074761,2.693245,1.041650,2.716002,0.984188,2.700638,0.924325,2.653021,0.884926,1.082219,0.262826,1.098571,0.205358,1.117600,0.000000,1.098571,-0.205358,1.042131,-0.403724,0.950203,-0.588341,0.825916,-0.752922,0.673504,-0.891864,
0.498157,-1.000434,0.305846,-1.074936,0.103119,-1.112833,-0.103119,-1.112833,-0.305846,-1.074936,-0.498157,-1.000434,-0.673504,-0.891864,-0.825916,-0.752922,-0.950203,-0.588341,-1.042131,-0.403724,-1.098571,-0.205358,-1.117600,0.000000,-1.098571,0.205358,-1.042131,0.403724,-0.950203,0.588341,-0.825916,0.752922,-0.673504,0.891864,-0.498157,1.000434,-0.305846,1.074936,-0.103119,1.112833,
0.103119,1.112833,0.305846,1.074936,0.305846,1.074936,$1*%
%AMFreePoly1*
4,1,50,0.305846,1.074936,0.498157,1.000434,0.673504,0.891864,0.825916,0.752922,0.950203,0.588341,1.042131,0.403724,1.098571,0.205358,1.117600,0.000000,1.098571,-0.205358,1.042131,-0.403724,0.950203,-0.588341,0.825916,-0.752922,0.673504,-0.891864,0.498157,-1.000434,0.354352,-1.056144,1.029360,-3.956856,3.897994,-6.259313,3.931880,-6.311000,3.928913,-6.372732,3.890227,-6.420930,
3.830599,-6.437185,3.772805,-6.415287,0.877205,-4.091187,0.876130,-4.089547,0.874325,-4.088785,0.859283,-4.063850,0.843320,-4.039500,0.843414,-4.037542,0.842402,-4.035865,0.159736,-1.102249,0.103119,-1.112833,-0.103119,-1.112833,-0.305846,-1.074936,-0.498157,-1.000434,-0.673504,-0.891864,-0.825916,-0.752922,-0.950203,-0.588341,-1.042131,-0.403724,-1.098571,-0.205358,-1.117600,0.000000,
-1.098571,0.205358,-1.042131,0.403724,-0.950203,0.588341,-0.825916,0.752922,-0.673504,0.891864,-0.498157,1.000434,-0.305846,1.074936,-0.103119,1.112833,0.103119,1.112833,0.305846,1.074936,0.305846,1.074936,$1*%
G04 Aperture macros list end*
G04 #@! TA.AperFunction,ComponentPad*
%ADD10FreePoly0,270.000000*%
G04 #@! TD*
G04 #@! TA.AperFunction,ComponentPad*
%ADD11C,2.235200*%
G04 #@! TD*
G04 #@! TA.AperFunction,ComponentPad*
%ADD12FreePoly1,270.000000*%
G04 #@! TD*
G04 #@! TA.AperFunction,ComponentPad*
%ADD13R,1.700000X1.700000*%
G04 #@! TD*
G04 #@! TA.AperFunction,ComponentPad*
%ADD14O,1.700000X1.700000*%
G04 #@! TD*
G04 #@! TA.AperFunction,ComponentPad*
%ADD15R,1.160000X1.160000*%
G04 #@! TD*
G04 #@! TA.AperFunction,ComponentPad*
%ADD16C,1.160000*%
G04 #@! TD*
G04 #@! TA.AperFunction,ComponentPad*
%ADD17R,1.600000X1.600000*%
G04 #@! TD*
G04 #@! TA.AperFunction,ComponentPad*
%ADD18O,1.600000X1.600000*%
G04 #@! TD*
G04 #@! TA.AperFunction,ViaPad*
%ADD19C,0.800000*%
G04 #@! TD*
G04 #@! TA.AperFunction,Conductor*
%ADD20C,0.250000*%
G04 #@! TD*
G04 APERTURE END LIST*
D10*
X105091700Y-89212000D03*
D11*
X105968000Y-91752000D03*
D12*
X103428000Y-85402000D03*
D11*
X97090700Y-89212000D03*
D13*
X112378000Y-111483000D03*
D14*
X112378000Y-114023000D03*
X112378000Y-116563000D03*
X112378000Y-119103000D03*
D13*
X45058000Y-111147000D03*
D14*
X45058000Y-113687000D03*
X45058000Y-116227000D03*
X45058000Y-118767000D03*
D10*
X60091700Y-63362000D03*
D11*
X60968000Y-65902000D03*
D12*
X58428000Y-59552000D03*
D11*
X52090700Y-63362000D03*
D13*
X112378000Y-59783000D03*
D14*
X112378000Y-62323000D03*
X112378000Y-64863000D03*
X112378000Y-67403000D03*
D10*
X105091700Y-37512000D03*
D11*
X105968000Y-40052000D03*
D12*
X103428000Y-33702000D03*
D11*
X97090700Y-37512000D03*
D13*
X45058000Y-33597000D03*
D14*
X45058000Y-36137000D03*
X45058000Y-38677000D03*
X45058000Y-41217000D03*
D10*
X60091700Y-115062000D03*
D11*
X60968000Y-117602000D03*
D12*
X58428000Y-111252000D03*
D11*
X52090700Y-115062000D03*
D15*
X71109000Y-92398000D03*
D16*
X71109000Y-94938000D03*
X71109000Y-97478000D03*
X71109000Y-100018000D03*
X71109000Y-102558000D03*
X71109000Y-105098000D03*
X71109000Y-107638000D03*
X71109000Y-110178000D03*
X71109000Y-112718000D03*
X71109000Y-115258000D03*
X71109000Y-117798000D03*
X71109000Y-120338000D03*
X86529000Y-120338000D03*
X86529000Y-117798000D03*
X86529000Y-115258000D03*
X86529000Y-112718000D03*
X86529000Y-110178000D03*
X86529000Y-107638000D03*
X86529000Y-105098000D03*
X86529000Y-102558000D03*
X86529000Y-100018000D03*
X86529000Y-97478000D03*
X86529000Y-94938000D03*
X86529000Y-92398000D03*
D10*
X105091700Y-63362000D03*
D11*
X105968000Y-65902000D03*
D12*
X103428000Y-59552000D03*
D11*
X97090700Y-63362000D03*
D13*
X45058000Y-85297000D03*
D14*
X45058000Y-87837000D03*
X45058000Y-90377000D03*
X45058000Y-92917000D03*
D13*
X112378000Y-85633000D03*
D14*
X112378000Y-88173000D03*
X112378000Y-90713000D03*
X112378000Y-93253000D03*
D13*
X112378000Y-33933000D03*
D14*
X112378000Y-36473000D03*
X112378000Y-39013000D03*
X112378000Y-41553000D03*
D17*
X70812000Y-24387000D03*
D18*
X70812000Y-26927000D03*
X70812000Y-29467000D03*
X70812000Y-32007000D03*
X70812000Y-34547000D03*
X70812000Y-37087000D03*
X70812000Y-39627000D03*
X70812000Y-42167000D03*
X70812000Y-44707000D03*
X70812000Y-47247000D03*
X70812000Y-49787000D03*
X70812000Y-52327000D03*
X86052000Y-52327000D03*
X86052000Y-49787000D03*
X86052000Y-47247000D03*
X86052000Y-44707000D03*
X86052000Y-42167000D03*
X86052000Y-39627000D03*
X86052000Y-37087000D03*
X86052000Y-34547000D03*
X86052000Y-32007000D03*
X86052000Y-29467000D03*
X86052000Y-26927000D03*
X86052000Y-24387000D03*
D10*
X60091700Y-89212000D03*
D11*
X60968000Y-91752000D03*
D12*
X58428000Y-85402000D03*
D11*
X52090700Y-89212000D03*
D10*
X60091700Y-37512000D03*
D11*
X60968000Y-40052000D03*
D12*
X58428000Y-33702000D03*
D11*
X52090700Y-37512000D03*
D10*
X105091700Y-115062000D03*
D11*
X105968000Y-117602000D03*
D12*
X103428000Y-111252000D03*
D11*
X97090700Y-115062000D03*
D13*
X45058000Y-59447000D03*
D14*
X45058000Y-61987000D03*
X45058000Y-64527000D03*
X45058000Y-67067000D03*
D19*
X88096000Y-125868000D03*
X71113000Y-125868000D03*
D20*
X72517000Y-55702000D02*
X72517000Y-55720000D01*
X86052000Y-42167000D02*
X72517000Y-55702000D01*
X72517000Y-90923000D02*
X72517000Y-55720000D01*
X86052000Y-44707000D02*
X73129000Y-57630000D01*
X73088000Y-57630000D02*
X73088000Y-113191000D01*
X73750000Y-59650000D02*
X73750000Y-115126000D01*
X86052000Y-47247000D02*
X73750000Y-59549000D01*
X73750000Y-59549000D02*
X73750000Y-59650000D01*
X84189000Y-51650000D02*
X84178000Y-51650000D01*
X86052000Y-49787000D02*
X84189000Y-51650000D01*
X84178000Y-51650000D02*
X84178000Y-117951000D01*
X84796000Y-53583000D02*
X84796000Y-53610000D01*
X84796000Y-53610000D02*
X84796000Y-116032000D01*
X86052000Y-52327000D02*
X84796000Y-53583000D01*
X89940000Y-34370000D02*
X89940000Y-48651000D01*
X87577000Y-32007000D02*
X89940000Y-34370000D01*
X86052000Y-32007000D02*
X87577000Y-32007000D01*
X70812000Y-29467000D02*
X45723000Y-29467000D01*
X45723000Y-29467000D02*
X43115000Y-32075000D01*
X43115000Y-32075000D02*
X43115000Y-33597000D01*
X103659000Y-111483000D02*
X103428000Y-111252000D01*
X109829000Y-125864000D02*
X109723000Y-125864000D01*
X71117000Y-125864000D02*
X88092000Y-125864000D01*
X48133700Y-111147000D02*
X45058000Y-111147000D01*
X43115000Y-33597000D02*
X43104000Y-33608000D01*
X112378000Y-59783000D02*
X113788000Y-59783000D01*
X103659000Y-33933000D02*
X103428000Y-33702000D01*
X113827000Y-111483000D02*
X113829000Y-111485000D01*
X48175700Y-85297000D02*
X45058000Y-85297000D01*
X48154700Y-59426000D02*
X52090700Y-63362000D01*
X45058000Y-33597000D02*
X43115000Y-33597000D01*
X113732000Y-59783000D02*
X113829000Y-59686000D01*
X112378000Y-111483000D02*
X113827000Y-111483000D01*
X43104000Y-85237000D02*
X43104000Y-111111000D01*
X112378000Y-111483000D02*
X103659000Y-111483000D01*
X71109000Y-125864000D02*
X71113000Y-125868000D01*
X48154700Y-33576000D02*
X52090700Y-37512000D01*
X43140000Y-111147000D02*
X43104000Y-111111000D01*
X48154700Y-111126000D02*
X52090700Y-115062000D01*
X112378000Y-85633000D02*
X113802000Y-85633000D01*
X43104000Y-33608000D02*
X43104000Y-59236000D01*
X43315000Y-59447000D02*
X43104000Y-59236000D01*
X48154700Y-59426000D02*
X48133700Y-59447000D01*
X45058000Y-59447000D02*
X43315000Y-59447000D01*
X103659000Y-59783000D02*
X103428000Y-59552000D01*
X112378000Y-33933000D02*
X113723000Y-33933000D01*
X43104000Y-121748000D02*
X47220000Y-125864000D01*
X112378000Y-33933000D02*
X103659000Y-33933000D01*
X88100000Y-125864000D02*
X109723000Y-125864000D01*
X71113000Y-125868000D02*
X71117000Y-125864000D01*
X48213350Y-85334650D02*
X52090700Y-89212000D01*
X113788000Y-59783000D02*
X113829000Y-59742000D01*
X48133700Y-33597000D02*
X45058000Y-33597000D01*
X112378000Y-85633000D02*
X103659000Y-85633000D01*
X43104000Y-59236000D02*
X43104000Y-85237000D01*
X112378000Y-59783000D02*
X103659000Y-59783000D01*
X88096000Y-125868000D02*
X88100000Y-125864000D01*
X113723000Y-33933000D02*
X113829000Y-34039000D01*
X113829000Y-121864000D02*
X109829000Y-125864000D01*
X113829000Y-59742000D02*
X113829000Y-59686000D01*
X48154700Y-111126000D02*
X48133700Y-111147000D01*
X43104000Y-111111000D02*
X43104000Y-121748000D01*
X48175700Y-85297000D02*
X48213350Y-85334650D01*
X45058000Y-85297000D02*
X43164000Y-85297000D01*
X45058000Y-111147000D02*
X43140000Y-111147000D01*
X113829000Y-85606000D02*
X113829000Y-59742000D01*
X48154700Y-33576000D02*
X48133700Y-33597000D01*
X43164000Y-85297000D02*
X43104000Y-85237000D01*
X48133700Y-59447000D02*
X45058000Y-59447000D01*
X113829000Y-121864000D02*
X113829000Y-111485000D01*
X103659000Y-85633000D02*
X103428000Y-85402000D01*
X113829000Y-34039000D02*
X113829000Y-59686000D01*
X113802000Y-85633000D02*
X113829000Y-85606000D01*
X88092000Y-125864000D02*
X88096000Y-125868000D01*
X113829000Y-111485000D02*
X113829000Y-85606000D01*
X47220000Y-125864000D02*
X71109000Y-125864000D01*
X67048000Y-75182000D02*
X67048000Y-96750000D01*
X66771000Y-125029000D02*
X48745000Y-125029000D01*
X89940000Y-100664000D02*
X89940000Y-125018000D01*
X112378000Y-41553000D02*
X112378000Y-44530000D01*
X112378000Y-44530000D02*
X109845000Y-47063000D01*
X86529000Y-92398000D02*
X87576000Y-92398000D01*
X47421000Y-72900000D02*
X64766000Y-72900000D01*
X45058000Y-121342000D02*
X45058000Y-118767000D01*
X89940000Y-74942000D02*
X89940000Y-90034000D01*
X64766000Y-99266000D02*
X67048000Y-96984000D01*
X89940000Y-90034000D02*
X89940000Y-100664000D01*
X67055000Y-124745000D02*
X66771000Y-125029000D01*
X45058000Y-96810000D02*
X47581000Y-99333000D01*
X45058000Y-70537000D02*
X47421000Y-72900000D01*
X64766000Y-72900000D02*
X67048000Y-75182000D01*
X64766000Y-99333000D02*
X64766000Y-99266000D01*
X48745000Y-125029000D02*
X45058000Y-121342000D01*
X112378000Y-95292000D02*
X108991000Y-98679000D01*
X108991000Y-98679000D02*
X91925000Y-98679000D01*
X110027604Y-125029000D02*
X66771000Y-125029000D01*
X108074000Y-73177000D02*
X91705000Y-73177000D01*
X91925000Y-98679000D02*
X89940000Y-100664000D01*
X47445000Y-46892000D02*
X65414000Y-46892000D01*
X45058000Y-92917000D02*
X45058000Y-96810000D01*
X45058000Y-44505000D02*
X47445000Y-46892000D01*
X91528000Y-47063000D02*
X89940000Y-48651000D01*
X67048000Y-96750000D02*
X67055000Y-96757000D01*
X67048000Y-96750000D02*
X67048000Y-96984000D01*
X112378000Y-122678604D02*
X110027604Y-125029000D01*
X67048000Y-48526000D02*
X67048000Y-75182000D01*
X91705000Y-73177000D02*
X89940000Y-74942000D01*
X87576000Y-92398000D02*
X89940000Y-90034000D01*
X112378000Y-68873000D02*
X108074000Y-73177000D01*
X109845000Y-47063000D02*
X91528000Y-47063000D01*
X65414000Y-46892000D02*
X67048000Y-48526000D01*
X47581000Y-99333000D02*
X64766000Y-99333000D01*
X45058000Y-67067000D02*
X45058000Y-70537000D01*
X112378000Y-93253000D02*
X112378000Y-95292000D01*
X112378000Y-67403000D02*
X112378000Y-68873000D01*
X45058000Y-41217000D02*
X45058000Y-44505000D01*
X89940000Y-48651000D02*
X89940000Y-74942000D01*
X112378000Y-119103000D02*
X112378000Y-122678604D01*
X67055000Y-96757000D02*
X67055000Y-124745000D01*
X84796000Y-116065000D02*
X84796000Y-116032000D01*
X86529000Y-117798000D02*
X84796000Y-116065000D01*
X86529000Y-120338000D02*
X84178000Y-117987000D01*
X84178000Y-117987000D02*
X84178000Y-117951000D01*
X71109000Y-117798000D02*
X73750000Y-115157000D01*
X73750000Y-115157000D02*
X73750000Y-115126000D01*
X73088000Y-113279000D02*
X73088000Y-113191000D01*
X71109000Y-115258000D02*
X73088000Y-113279000D01*
X72517000Y-90990000D02*
X72517000Y-90923000D01*
X71109000Y-92398000D02*
X72517000Y-90990000D01*
M02*
